<svg xmlns="http://www.w3.org/2000/svg" xmlns:xlink="http://www.w3.org/1999/xlink" width="50" zoomAndPan="magnify" viewBox="0 0 375 374.999991" height="50" preserveAspectRatio="xMidYMid meet" version="1.0"><defs><clipPath id="61ae03e5ca"><path d="M 40.429688 44.09375 L 334 44.09375 L 334 337.34375 L 40.429688 337.34375 Z M 40.429688 44.09375 " clip-rule="nonzero"/></clipPath></defs><path fill="#ffffff" d="M 96.769531 206.851562 L 88.039062 214.753906 L 88.039062 224.3125 L 135.957031 224.3125 L 135.957031 211.320312 L 110.492188 211.320312 L 110.492188 211.117188 L 116.726562 205.917969 C 126.5 197.1875 134.707031 188.144531 134.707031 176.816406 C 134.707031 164.550781 126.289062 155.613281 111.011719 155.613281 C 101.863281 155.613281 93.964844 158.730469 88.871094 162.574219 L 93.339844 173.90625 C 96.875 171.203125 101.96875 168.292969 107.789062 168.292969 C 115.585938 168.292969 118.910156 172.65625 118.910156 178.167969 C 118.703125 186.066406 111.53125 193.652344 96.769531 206.851562 " fill-opacity="1" fill-rule="nonzero"/><path fill="#ffffff" d="M 158.511719 196.355469 L 158.511719 196.148438 L 167.554688 181.386719 C 169.839844 177.125 171.605469 173.175781 173.789062 168.8125 L 174.207031 168.8125 C 173.894531 173.175781 173.683594 177.335938 173.683594 181.386719 L 173.683594 196.355469 Z M 188.652344 224.3125 L 188.652344 208.203125 L 196.761719 208.203125 L 196.761719 196.355469 L 188.652344 196.355469 L 188.652344 156.757812 L 169.320312 156.757812 L 143.75 197.914062 L 143.75 208.203125 L 173.683594 208.203125 L 173.683594 224.3125 L 188.652344 224.3125 " fill-opacity="1" fill-rule="nonzero"/><path fill="#ffffff" d="M 211.207031 228.472656 L 233.453125 153.117188 L 222.953125 153.117188 L 200.710938 228.472656 L 211.207031 228.472656 " fill-opacity="1" fill-rule="nonzero"/><path fill="#ffffff" d="M 241.664062 224.3125 L 258.394531 224.3125 L 286.25 166.734375 L 286.25 156.757812 L 238.542969 156.757812 L 238.542969 169.75 L 269.519531 169.75 L 269.519531 169.953125 L 241.664062 224.3125 " fill-opacity="1" fill-rule="nonzero"/><g clip-path="url(#61ae03e5ca)"><path fill="#ffffff" d="M 333.726562 184.890625 L 307.785156 185.929688 C 309.128906 219.519531 296.273438 252.410156 272.519531 276.167969 C 225.445312 323.242188 148.847656 323.242188 101.773438 276.167969 C 54.699219 229.09375 54.699219 152.496094 101.773438 105.421875 C 148.847656 58.347656 225.445312 58.347656 272.519531 105.421875 L 258.707031 119.234375 L 304.691406 119.234375 L 304.691406 73.25 L 290.878906 87.0625 C 263.171875 59.355469 226.332031 44.097656 187.144531 44.097656 C 147.960938 44.097656 111.121094 59.355469 83.414062 87.0625 C 55.707031 114.773438 40.445312 151.609375 40.445312 190.796875 C 40.445312 229.980469 55.707031 266.820312 83.414062 294.527344 C 111.121094 322.234375 147.960938 337.492188 187.144531 337.492188 C 226.332031 337.492188 263.171875 322.234375 290.878906 294.527344 C 305.613281 279.792969 316.824219 262.523438 324.199219 243.203125 C 331.324219 224.542969 334.53125 204.925781 333.726562 184.890625 " fill-opacity="1" fill-rule="nonzero"/></g></svg>