<svg xmlns="http://www.w3.org/2000/svg" xmlns:xlink="http://www.w3.org/1999/xlink" width="50" zoomAndPan="magnify" viewBox="0 0 375 374.999991" height="50" preserveAspectRatio="xMidYMid meet" version="1.0"><path fill="#ffffff" d="M 180.5625 43.253906 C 176.203125 43.253906 171.855469 43.449219 167.515625 43.839844 C 163.175781 44.230469 158.863281 44.816406 154.574219 45.59375 C 150.289062 46.371094 146.042969 47.335938 141.84375 48.496094 C 137.640625 49.652344 133.5 50.996094 129.421875 52.527344 C 125.339844 54.054688 121.335938 55.765625 117.410156 57.65625 C 113.484375 59.542969 109.648438 61.605469 105.90625 63.835938 C 102.164062 66.070312 98.53125 68.464844 95.003906 71.023438 C 91.476562 73.582031 88.070312 76.292969 84.789062 79.160156 L 51.949219 46.320312 C 51.460938 45.839844 50.929688 45.414062 50.359375 45.039062 C 49.789062 44.664062 49.1875 44.347656 48.554688 44.089844 C 47.921875 43.835938 47.269531 43.640625 46.601562 43.511719 C 45.929688 43.382812 45.253906 43.320312 44.570312 43.324219 C 43.886719 43.324219 43.210938 43.394531 42.542969 43.53125 C 41.871094 43.664062 41.222656 43.863281 40.59375 44.128906 C 39.960938 44.390625 39.363281 44.710938 38.796875 45.09375 C 38.226562 45.472656 37.703125 45.902344 37.21875 46.386719 C 36.738281 46.871094 36.304688 47.394531 35.925781 47.960938 C 35.546875 48.527344 35.222656 49.128906 34.960938 49.757812 C 34.699219 50.390625 34.5 51.039062 34.363281 51.707031 C 34.230469 52.378906 34.160156 53.054688 34.15625 53.738281 C 34.152344 54.417969 34.214844 55.097656 34.347656 55.765625 C 34.476562 56.4375 34.667969 57.089844 34.925781 57.722656 C 35.183594 58.355469 35.5 58.957031 35.875 59.527344 C 36.25 60.097656 36.675781 60.625 37.152344 61.113281 L 69.992188 93.953125 C 68.492188 95.679688 67.03125 97.441406 65.613281 99.234375 C 64.195312 101.03125 62.816406 102.855469 61.484375 104.714844 C 60.152344 106.574219 58.863281 108.464844 57.617188 110.382812 C 56.375 112.304688 55.175781 114.25 54.023438 116.226562 C 52.871094 118.203125 51.765625 120.203125 50.703125 122.234375 C 49.644531 124.261719 48.632812 126.3125 47.671875 128.386719 C 46.710938 130.460938 45.796875 132.558594 44.929688 134.675781 C 44.066406 136.796875 43.253906 138.933594 42.488281 141.089844 C 41.722656 143.246094 41.011719 145.417969 40.347656 147.609375 C 39.6875 149.796875 39.078125 152 38.515625 154.21875 C 37.957031 156.4375 37.453125 158.667969 37 160.910156 C 36.542969 163.152344 36.144531 165.40625 35.792969 167.664062 C 35.445312 169.925781 35.152344 172.195312 34.910156 174.46875 C 34.667969 176.746094 34.476562 179.023438 34.34375 181.308594 C 34.207031 183.589844 34.125 185.875 34.097656 188.164062 C 34.070312 190.453125 34.097656 192.738281 34.175781 195.023438 C 34.257812 197.3125 34.390625 199.59375 34.574219 201.875 C 34.761719 204.15625 35.003906 206.429688 35.296875 208.699219 C 35.589844 210.964844 35.9375 213.226562 36.335938 215.480469 C 36.734375 217.730469 37.1875 219.972656 37.691406 222.207031 C 38.195312 224.4375 38.753906 226.65625 39.359375 228.859375 C 39.96875 231.066406 40.628906 233.253906 41.339844 235.429688 C 42.054688 237.605469 42.816406 239.761719 43.628906 241.898438 C 44.441406 244.039062 45.304688 246.15625 46.214844 248.253906 C 47.128906 250.351562 48.085938 252.425781 49.097656 254.480469 C 50.105469 256.53125 51.164062 258.5625 52.269531 260.5625 C 53.371094 262.566406 54.523438 264.542969 55.722656 266.492188 C 56.917969 268.441406 58.160156 270.363281 59.449219 272.253906 C 60.734375 274.144531 62.066406 276.003906 63.441406 277.832031 C 64.816406 279.660156 66.234375 281.457031 67.691406 283.21875 C 69.152344 284.980469 70.652344 286.707031 72.191406 288.398438 C 73.730469 290.089844 75.308594 291.746094 76.925781 293.363281 C 78.542969 294.980469 80.199219 296.558594 81.890625 298.101562 C 83.582031 299.640625 85.308594 301.140625 87.070312 302.597656 C 88.835938 304.058594 90.628906 305.476562 92.457031 306.847656 C 94.285156 308.222656 96.144531 309.554688 98.039062 310.84375 C 99.929688 312.128906 101.847656 313.371094 103.796875 314.570312 C 105.746094 315.765625 107.722656 316.917969 109.726562 318.023438 C 111.730469 319.128906 113.757812 320.183594 115.8125 321.195312 C 117.863281 322.203125 119.941406 323.164062 122.039062 324.078125 C 124.136719 324.988281 126.253906 325.851562 128.390625 326.664062 C 130.53125 327.476562 132.6875 328.238281 134.863281 328.949219 C 137.035156 329.660156 139.226562 330.320312 141.429688 330.929688 C 143.636719 331.539062 145.855469 332.09375 148.085938 332.601562 C 150.316406 333.105469 152.558594 333.558594 154.8125 333.957031 C 157.0625 334.355469 159.324219 334.703125 161.59375 334.996094 C 163.863281 335.289062 166.136719 335.527344 168.417969 335.714844 C 170.695312 335.902344 172.980469 336.035156 175.265625 336.113281 C 177.550781 336.195312 179.839844 336.21875 182.128906 336.191406 C 184.414062 336.164062 186.699219 336.082031 188.984375 335.949219 C 191.269531 335.8125 193.546875 335.625 195.820312 335.382812 C 198.097656 335.140625 200.363281 334.84375 202.625 334.496094 C 204.886719 334.148438 207.136719 333.746094 209.378906 333.292969 C 211.621094 332.839844 213.851562 332.332031 216.070312 331.773438 C 218.289062 331.214844 220.492188 330.605469 222.683594 329.941406 C 224.875 329.28125 227.046875 328.566406 229.203125 327.804688 C 231.359375 327.039062 233.496094 326.222656 235.613281 325.359375 C 237.730469 324.496094 239.828125 323.582031 241.902344 322.621094 C 243.980469 321.65625 246.03125 320.644531 248.058594 319.585938 C 250.085938 318.527344 252.089844 317.421875 254.0625 316.269531 C 256.039062 315.117188 257.988281 313.917969 259.90625 312.671875 C 261.828125 311.429688 263.714844 310.140625 265.574219 308.804688 C 267.433594 307.472656 269.261719 306.097656 271.054688 304.679688 C 272.851562 303.261719 274.613281 301.800781 276.335938 300.296875 L 309.175781 333.136719 C 309.664062 333.617188 310.195312 334.042969 310.765625 334.417969 C 311.335938 334.792969 311.9375 335.109375 312.570312 335.367188 C 313.203125 335.625 313.855469 335.816406 314.523438 335.945312 C 315.195312 336.074219 315.871094 336.140625 316.554688 336.136719 C 317.238281 336.132812 317.914062 336.0625 318.582031 335.929688 C 319.253906 335.792969 319.902344 335.59375 320.535156 335.332031 C 321.164062 335.066406 321.761719 334.746094 322.332031 334.367188 C 322.898438 333.988281 323.421875 333.554688 323.90625 333.070312 C 324.390625 332.589844 324.820312 332.0625 325.199219 331.496094 C 325.582031 330.929688 325.902344 330.332031 326.164062 329.699219 C 326.425781 329.070312 326.625 328.417969 326.761719 327.75 C 326.898438 327.082031 326.96875 326.40625 326.96875 325.722656 C 326.972656 325.039062 326.910156 324.363281 326.78125 323.691406 C 326.652344 323.019531 326.457031 322.367188 326.199219 321.734375 C 325.941406 321.101562 325.625 320.5 325.25 319.929688 C 324.875 319.359375 324.449219 318.832031 323.972656 318.34375 L 291.132812 285.503906 C 293.421875 282.871094 295.613281 280.164062 297.707031 277.375 C 299.800781 274.585938 301.796875 271.726562 303.6875 268.796875 C 305.578125 265.867188 307.359375 262.871094 309.035156 259.8125 C 310.710938 256.753906 312.277344 253.640625 313.730469 250.46875 C 315.183594 247.300781 316.523438 244.082031 317.746094 240.816406 C 318.96875 237.550781 320.074219 234.242188 321.058594 230.898438 C 322.046875 227.554688 322.914062 224.175781 323.660156 220.769531 C 324.402344 217.363281 325.027344 213.933594 325.527344 210.480469 C 326.027344 207.03125 326.402344 203.566406 326.65625 200.085938 C 326.90625 196.609375 327.035156 193.125 327.035156 189.636719 C 327.039062 186.152344 326.917969 182.667969 326.671875 179.1875 C 326.425781 175.710938 326.054688 172.242188 325.5625 168.792969 C 325.066406 165.339844 324.449219 161.910156 323.710938 158.5 C 322.972656 155.09375 322.109375 151.714844 321.128906 148.367188 C 320.148438 145.019531 319.050781 141.714844 317.832031 138.445312 C 316.613281 135.179688 315.28125 131.957031 313.832031 128.785156 C 312.382812 125.613281 310.824219 122.496094 309.152344 119.433594 C 307.484375 116.371094 305.703125 113.375 303.820312 110.441406 C 301.933594 107.507812 299.945312 104.644531 297.855469 101.851562 C 295.765625 99.0625 293.578125 96.347656 291.292969 93.710938 C 289.007812 91.078125 286.632812 88.527344 284.167969 86.0625 C 281.699219 83.597656 279.148438 81.222656 276.511719 78.9375 C 273.875 76.65625 271.160156 74.46875 268.367188 72.382812 C 265.574219 70.292969 262.710938 68.308594 259.773438 66.421875 C 256.839844 64.539062 253.839844 62.761719 250.777344 61.09375 C 247.714844 59.425781 244.597656 57.867188 241.425781 56.421875 C 238.25 54.976562 235.03125 53.644531 231.761719 52.429688 C 228.492188 51.210938 225.183594 50.113281 221.835938 49.136719 C 218.488281 48.15625 215.109375 47.296875 211.703125 46.5625 C 208.292969 45.824219 204.863281 45.210938 201.410156 44.71875 C 197.957031 44.226562 194.492188 43.855469 191.011719 43.613281 C 187.535156 43.367188 184.050781 43.25 180.5625 43.253906 Z M 180.5625 315.277344 C 177.589844 315.28125 174.617188 315.179688 171.652344 314.972656 C 168.6875 314.761719 165.730469 314.449219 162.785156 314.03125 C 159.84375 313.613281 156.917969 313.089844 154.011719 312.464844 C 151.101562 311.839844 148.222656 311.109375 145.367188 310.277344 C 142.511719 309.445312 139.691406 308.515625 136.902344 307.484375 C 134.113281 306.449219 131.363281 305.320312 128.65625 304.09375 C 125.945312 302.867188 123.285156 301.542969 120.671875 300.125 C 118.054688 298.710938 115.496094 297.203125 112.988281 295.601562 C 110.480469 294.003906 108.035156 292.316406 105.644531 290.542969 C 103.257812 288.773438 100.9375 286.914062 98.683594 284.976562 C 96.425781 283.039062 94.242188 281.023438 92.132812 278.929688 C 90.019531 276.835938 87.984375 274.671875 86.027344 272.433594 C 84.070312 270.195312 82.195312 267.890625 80.398438 265.515625 C 78.605469 263.144531 76.898438 260.714844 75.277344 258.21875 C 73.65625 255.726562 72.128906 253.179688 70.6875 250.578125 C 69.25 247.976562 67.902344 245.324219 66.652344 242.628906 C 65.402344 239.929688 64.246094 237.191406 63.191406 234.410156 C 62.132812 231.632812 61.179688 228.816406 60.324219 225.96875 C 59.464844 223.121094 58.710938 220.246094 58.0625 217.347656 C 57.410156 214.445312 56.863281 211.523438 56.417969 208.582031 C 55.972656 205.644531 55.636719 202.691406 55.402344 199.726562 C 55.167969 196.761719 55.039062 193.792969 55.015625 190.820312 C 54.992188 187.84375 55.078125 184.875 55.265625 181.90625 C 55.453125 178.9375 55.75 175.980469 56.148438 173.035156 C 56.546875 170.089844 57.050781 167.160156 57.65625 164.25 C 58.265625 161.335938 58.972656 158.453125 59.785156 155.589844 C 60.601562 152.730469 61.511719 149.902344 62.527344 147.105469 C 63.539062 144.3125 64.652344 141.554688 65.863281 138.839844 C 67.070312 136.121094 68.378906 133.453125 69.777344 130.828125 C 71.175781 128.207031 72.667969 125.636719 74.25 123.117188 C 75.832031 120.601562 77.503906 118.140625 79.261719 115.742188 C 81.019531 113.34375 82.859375 111.011719 84.78125 108.742188 L 137.789062 161.75 C 134.585938 164.039062 131.582031 166.5625 128.78125 169.328125 C 127.933594 170.175781 127.109375 171.046875 126.300781 171.933594 C 125.496094 172.820312 124.714844 173.726562 123.953125 174.65625 C 123.191406 175.582031 122.457031 176.527344 121.742188 177.488281 C 121.027344 178.449219 120.335938 179.429688 119.671875 180.425781 C 119.003906 181.421875 118.363281 182.4375 117.746094 183.464844 C 117.132812 184.492188 116.539062 185.535156 115.976562 186.589844 C 115.410156 187.648438 114.871094 188.71875 114.359375 189.800781 C 113.847656 190.886719 113.359375 191.980469 112.902344 193.089844 C 112.441406 194.195312 112.011719 195.3125 111.609375 196.441406 C 111.203125 197.570312 110.828125 198.707031 110.480469 199.855469 C 110.132812 201.003906 109.8125 202.15625 109.519531 203.320312 C 109.230469 204.484375 108.96875 205.652344 108.734375 206.828125 C 108.5 208.003906 108.292969 209.183594 108.117188 210.371094 C 107.941406 211.554688 107.796875 212.746094 107.679688 213.9375 C 107.5625 215.128906 107.472656 216.324219 107.414062 217.523438 C 107.355469 218.71875 107.324219 219.917969 107.324219 221.117188 C 107.324219 222.316406 107.355469 223.511719 107.414062 224.710938 C 107.472656 225.90625 107.5625 227.101562 107.679688 228.292969 C 107.796875 229.488281 107.941406 230.675781 108.117188 231.863281 C 108.292969 233.046875 108.5 234.230469 108.734375 235.40625 C 108.96875 236.582031 109.230469 237.75 109.519531 238.910156 C 109.8125 240.074219 110.132812 241.230469 110.480469 242.375 C 110.828125 243.523438 111.203125 244.660156 111.609375 245.789062 C 112.011719 246.917969 112.441406 248.035156 112.902344 249.144531 C 113.359375 250.25 113.847656 251.347656 114.359375 252.429688 C 114.871094 253.511719 115.410156 254.582031 115.976562 255.640625 C 116.539062 256.699219 117.132812 257.742188 117.746094 258.769531 C 118.363281 259.796875 119.003906 260.808594 119.671875 261.804688 C 120.335938 262.800781 121.027344 263.78125 121.742188 264.742188 C 122.457031 265.707031 123.191406 266.652344 123.953125 267.578125 C 124.714844 268.503906 125.496094 269.410156 126.300781 270.300781 C 127.109375 271.1875 127.933594 272.054688 128.78125 272.902344 C 129.265625 273.386719 129.796875 273.820312 130.367188 274.203125 C 130.9375 274.585938 131.539062 274.90625 132.175781 275.167969 C 132.808594 275.433594 133.464844 275.632812 134.136719 275.765625 C 134.8125 275.898438 135.492188 275.964844 136.179688 275.964844 C 136.867188 275.964844 137.546875 275.898438 138.21875 275.765625 C 138.894531 275.632812 139.546875 275.433594 140.183594 275.167969 C 140.816406 274.90625 141.417969 274.585938 141.992188 274.203125 C 142.5625 273.820312 143.089844 273.386719 143.574219 272.902344 C 144.0625 272.417969 144.496094 271.886719 144.878906 271.316406 C 145.257812 270.746094 145.582031 270.144531 145.84375 269.507812 C 146.105469 268.875 146.304688 268.21875 146.4375 267.546875 C 146.574219 266.871094 146.640625 266.191406 146.640625 265.503906 C 146.640625 264.816406 146.574219 264.136719 146.4375 263.464844 C 146.304688 262.789062 146.105469 262.136719 145.84375 261.5 C 145.582031 260.867188 145.257812 260.265625 144.878906 259.691406 C 144.496094 259.121094 144.0625 258.59375 143.574219 258.109375 C 142.875 257.417969 142.195312 256.710938 141.539062 255.984375 C 140.878906 255.257812 140.238281 254.511719 139.621094 253.75 C 139.003906 252.988281 138.410156 252.207031 137.835938 251.410156 C 137.261719 250.613281 136.714844 249.800781 136.1875 248.972656 C 135.660156 248.144531 135.15625 247.300781 134.675781 246.445312 C 134.199219 245.589844 133.742188 244.71875 133.3125 243.835938 C 132.882812 242.953125 132.480469 242.058594 132.101562 241.15625 C 131.722656 240.25 131.367188 239.332031 131.042969 238.40625 C 130.714844 237.484375 130.414062 236.546875 130.140625 235.605469 C 129.867188 234.664062 129.617188 233.714844 129.398438 232.757812 C 129.179688 231.800781 128.984375 230.839844 128.820312 229.871094 C 128.652344 228.902344 128.515625 227.933594 128.40625 226.957031 C 128.292969 225.980469 128.210938 225.003906 128.15625 224.023438 C 128.101562 223.042969 128.074219 222.0625 128.074219 221.082031 C 128.074219 220.101562 128.105469 219.121094 128.160156 218.140625 C 128.21875 217.160156 128.300781 216.183594 128.414062 215.207031 C 128.523438 214.230469 128.664062 213.261719 128.832031 212.292969 C 128.996094 211.328125 129.191406 210.363281 129.414062 209.410156 C 129.636719 208.453125 129.882812 207.503906 130.160156 206.5625 C 130.433594 205.617188 130.734375 204.683594 131.0625 203.761719 C 131.390625 202.835938 131.746094 201.921875 132.125 201.015625 C 132.507812 200.109375 132.914062 199.21875 133.34375 198.335938 C 133.773438 197.453125 134.230469 196.585938 134.710938 195.726562 C 135.191406 194.871094 135.695312 194.03125 136.222656 193.203125 C 136.75 192.375 137.300781 191.5625 137.875 190.765625 C 138.449219 189.972656 139.046875 189.191406 139.664062 188.429688 C 140.28125 187.667969 140.921875 186.921875 141.582031 186.195312 C 142.242188 185.472656 142.925781 184.765625 143.625 184.078125 C 144.324219 183.390625 145.042969 182.722656 145.785156 182.074219 C 146.523438 181.429688 147.277344 180.804688 148.050781 180.199219 C 148.824219 179.597656 149.617188 179.015625 150.421875 178.457031 C 151.230469 177.898438 152.050781 177.363281 152.890625 176.851562 L 224.828125 248.789062 C 222.753906 252.167969 220.328125 255.277344 217.550781 258.109375 C 217.0625 258.59375 216.628906 259.121094 216.246094 259.691406 C 215.863281 260.265625 215.542969 260.867188 215.277344 261.5 C 215.015625 262.136719 214.816406 262.789062 214.679688 263.464844 C 214.546875 264.140625 214.480469 264.820312 214.480469 265.507812 C 214.480469 266.195312 214.546875 266.875 214.679688 267.546875 C 214.8125 268.222656 215.011719 268.878906 215.273438 269.511719 C 215.539062 270.148438 215.859375 270.75 216.242188 271.320312 C 216.625 271.894531 217.058594 272.421875 217.542969 272.90625 C 218.027344 273.394531 218.558594 273.828125 219.128906 274.210938 C 219.699219 274.589844 220.304688 274.914062 220.9375 275.175781 C 221.574219 275.4375 222.226562 275.636719 222.902344 275.773438 C 223.578125 275.90625 224.257812 275.972656 224.945312 275.972656 C 225.632812 275.972656 226.3125 275.90625 226.988281 275.769531 C 227.660156 275.636719 228.316406 275.4375 228.949219 275.171875 C 229.585938 274.910156 230.1875 274.585938 230.757812 274.203125 C 231.328125 273.824219 231.859375 273.386719 232.34375 272.902344 C 235.109375 270.097656 237.640625 267.09375 239.925781 263.886719 L 261.546875 285.507812 C 258.75 287.890625 255.855469 290.140625 252.855469 292.265625 C 249.859375 294.390625 246.777344 296.378906 243.605469 298.230469 C 240.433594 300.082031 237.183594 301.792969 233.863281 303.359375 C 230.539062 304.925781 227.15625 306.339844 223.707031 307.609375 C 220.261719 308.875 216.761719 309.988281 213.21875 310.949219 C 209.671875 311.90625 206.089844 312.707031 202.472656 313.351562 C 198.859375 313.992188 195.21875 314.476562 191.5625 314.796875 C 187.902344 315.121094 184.234375 315.28125 180.5625 315.277344 Z M 159.636719 126.953125 C 159.636719 126.269531 159.671875 125.585938 159.738281 124.902344 C 159.804688 124.222656 159.90625 123.542969 160.039062 122.871094 C 160.171875 122.199219 160.339844 121.535156 160.539062 120.878906 C 160.738281 120.222656 160.96875 119.578125 161.230469 118.945312 C 161.492188 118.3125 161.785156 117.695312 162.109375 117.089844 C 162.429688 116.484375 162.785156 115.898438 163.164062 115.328125 C 163.542969 114.757812 163.953125 114.210938 164.386719 113.679688 C 164.820312 113.148438 165.28125 112.640625 165.765625 112.15625 C 166.25 111.671875 166.757812 111.214844 167.289062 110.777344 C 167.816406 110.34375 168.367188 109.9375 168.9375 109.554688 C 169.507812 109.175781 170.09375 108.824219 170.699219 108.5 C 171.304688 108.175781 171.921875 107.882812 172.554688 107.621094 C 173.1875 107.359375 173.832031 107.128906 174.488281 106.929688 C 175.144531 106.730469 175.808594 106.566406 176.480469 106.429688 C 177.152344 106.296875 177.828125 106.195312 178.511719 106.128906 C 179.195312 106.0625 179.878906 106.027344 180.5625 106.027344 C 181.246094 106.027344 181.929688 106.0625 182.613281 106.128906 C 183.296875 106.195312 183.972656 106.296875 184.644531 106.429688 C 185.316406 106.566406 185.980469 106.730469 186.636719 106.929688 C 187.292969 107.128906 187.9375 107.359375 188.570312 107.621094 C 189.203125 107.882812 189.820312 108.175781 190.425781 108.5 C 191.03125 108.824219 191.617188 109.175781 192.1875 109.554688 C 192.757812 109.9375 193.308594 110.34375 193.835938 110.777344 C 194.367188 111.214844 194.875 111.671875 195.359375 112.15625 C 195.84375 112.640625 196.304688 113.148438 196.738281 113.679688 C 197.171875 114.210938 197.582031 114.757812 197.960938 115.328125 C 198.339844 115.898438 198.695312 116.484375 199.015625 117.089844 C 199.339844 117.695312 199.632812 118.3125 199.894531 118.945312 C 200.15625 119.578125 200.386719 120.222656 200.585938 120.878906 C 200.785156 121.535156 200.953125 122.199219 201.085938 122.871094 C 201.21875 123.542969 201.320312 124.222656 201.386719 124.902344 C 201.453125 125.585938 201.488281 126.269531 201.488281 126.953125 C 201.488281 127.640625 201.453125 128.324219 201.386719 129.003906 C 201.320312 129.6875 201.21875 130.363281 201.085938 131.035156 C 200.953125 131.707031 200.785156 132.371094 200.585938 133.027344 C 200.386719 133.683594 200.15625 134.328125 199.894531 134.960938 C 199.632812 135.59375 199.339844 136.214844 199.015625 136.816406 C 198.695312 137.421875 198.339844 138.007812 197.960938 138.578125 C 197.582031 139.148438 197.171875 139.699219 196.738281 140.230469 C 196.304688 140.757812 195.84375 141.265625 195.359375 141.75 C 194.875 142.234375 194.367188 142.695312 193.835938 143.128906 C 193.308594 143.5625 192.757812 143.972656 192.1875 144.351562 C 191.617188 144.734375 191.03125 145.085938 190.425781 145.40625 C 189.820312 145.730469 189.203125 146.023438 188.570312 146.285156 C 187.9375 146.546875 187.292969 146.777344 186.636719 146.976562 C 185.980469 147.175781 185.316406 147.34375 184.644531 147.476562 C 183.972656 147.609375 183.296875 147.710938 182.613281 147.777344 C 181.929688 147.84375 181.246094 147.878906 180.5625 147.878906 C 179.878906 147.878906 179.195312 147.84375 178.511719 147.777344 C 177.832031 147.707031 177.152344 147.605469 176.480469 147.472656 C 175.808594 147.339844 175.144531 147.171875 174.492188 146.972656 C 173.835938 146.773438 173.191406 146.542969 172.558594 146.28125 C 171.925781 146.015625 171.308594 145.722656 170.703125 145.402344 C 170.097656 145.078125 169.511719 144.726562 168.941406 144.34375 C 168.375 143.964844 167.824219 143.554688 167.292969 143.121094 C 166.765625 142.6875 166.257812 142.226562 165.773438 141.742188 C 165.289062 141.257812 164.828125 140.75 164.394531 140.222656 C 163.960938 139.691406 163.550781 139.144531 163.171875 138.574219 C 162.789062 138.003906 162.4375 137.417969 162.117188 136.8125 C 161.792969 136.210938 161.5 135.589844 161.238281 134.957031 C 160.972656 134.324219 160.742188 133.679688 160.542969 133.027344 C 160.34375 132.371094 160.179688 131.707031 160.042969 131.035156 C 159.910156 130.363281 159.808594 129.6875 159.742188 129.003906 C 159.671875 128.324219 159.636719 127.640625 159.636719 126.953125 Z M 232.328125 226.699219 L 174.976562 169.347656 C 176.828125 169.066406 178.691406 168.886719 180.5625 168.804688 C 181.488281 168.765625 182.410156 168.753906 183.335938 168.765625 C 184.261719 168.777344 185.183594 168.816406 186.105469 168.878906 C 187.027344 168.941406 187.949219 169.03125 188.867188 169.144531 C 189.785156 169.261719 190.699219 169.398438 191.609375 169.5625 C 192.519531 169.730469 193.421875 169.917969 194.320312 170.132812 C 195.222656 170.347656 196.113281 170.585938 197 170.851562 C 197.886719 171.117188 198.765625 171.402344 199.636719 171.714844 C 200.507812 172.027344 201.367188 172.363281 202.21875 172.722656 C 203.070312 173.085938 203.910156 173.46875 204.742188 173.875 C 205.574219 174.28125 206.390625 174.710938 207.199219 175.160156 C 208.007812 175.613281 208.800781 176.085938 209.582031 176.582031 C 210.363281 177.078125 211.128906 177.59375 211.878906 178.132812 C 212.632812 178.667969 213.371094 179.226562 214.089844 179.804688 C 214.8125 180.382812 215.519531 180.980469 216.207031 181.597656 C 216.894531 182.214844 217.566406 182.851562 218.21875 183.507812 C 218.875 184.160156 219.507812 184.832031 220.125 185.523438 C 220.742188 186.210938 221.335938 186.917969 221.914062 187.640625 C 222.492188 188.363281 223.050781 189.097656 223.585938 189.851562 C 224.121094 190.605469 224.636719 191.371094 225.132812 192.152344 C 225.628906 192.9375 226.101562 193.730469 226.550781 194.539062 C 227 195.34375 227.429688 196.164062 227.832031 196.996094 C 228.238281 197.828125 228.621094 198.667969 228.980469 199.519531 C 229.339844 200.375 229.675781 201.234375 229.984375 202.105469 C 230.296875 202.976562 230.582031 203.855469 230.847656 204.742188 C 231.109375 205.628906 231.347656 206.523438 231.5625 207.421875 C 231.773438 208.320312 231.960938 209.226562 232.125 210.136719 C 232.289062 211.046875 232.429688 211.960938 232.539062 212.878906 C 232.652344 213.796875 232.742188 214.714844 232.804688 215.640625 C 232.867188 216.5625 232.902344 217.484375 232.914062 218.410156 C 232.925781 219.335938 232.910156 220.257812 232.871094 221.183594 C 232.832031 222.105469 232.765625 223.027344 232.675781 223.949219 C 232.585938 224.871094 232.46875 225.785156 232.328125 226.699219 Z M 249.980469 244.351562 C 250.6875 242.242188 251.300781 240.109375 251.816406 237.945312 C 252.332031 235.78125 252.746094 233.597656 253.0625 231.398438 C 253.378906 229.195312 253.59375 226.984375 253.707031 224.765625 C 253.820312 222.542969 253.832031 220.324219 253.742188 218.101562 C 253.652344 215.878906 253.460938 213.667969 253.171875 211.460938 C 252.878906 209.257812 252.488281 207.070312 251.996094 204.902344 C 251.503906 202.734375 250.917969 200.589844 250.230469 198.476562 C 249.542969 196.363281 248.761719 194.28125 247.882812 192.238281 C 247.007812 190.195312 246.039062 188.195312 244.980469 186.242188 C 243.917969 184.285156 242.773438 182.382812 241.539062 180.53125 C 240.308594 178.683594 238.992188 176.890625 237.59375 175.164062 C 236.199219 173.433594 234.726562 171.769531 233.175781 170.171875 C 231.628906 168.578125 230.007812 167.054688 228.320312 165.609375 C 226.632812 164.160156 224.882812 162.792969 223.070312 161.503906 C 221.257812 160.21875 219.390625 159.015625 217.46875 157.898438 C 215.546875 156.78125 213.574219 155.753906 211.558594 154.816406 C 212.167969 154.160156 212.753906 153.488281 213.320312 152.800781 C 213.886719 152.109375 214.429688 151.398438 214.949219 150.675781 C 215.46875 149.949219 215.96875 149.207031 216.441406 148.453125 C 216.914062 147.695312 217.363281 146.921875 217.789062 146.136719 C 218.210938 145.351562 218.609375 144.554688 218.984375 143.742188 C 219.359375 142.929688 219.707031 142.109375 220.027344 141.277344 C 220.347656 140.441406 220.640625 139.601562 220.910156 138.75 C 221.175781 137.898438 221.417969 137.039062 221.628906 136.171875 C 221.84375 135.304688 222.027344 134.429688 222.183594 133.550781 C 222.34375 132.671875 222.472656 131.789062 222.570312 130.902344 C 222.671875 130.015625 222.746094 129.125 222.789062 128.234375 C 222.835938 127.339844 222.851562 126.449219 222.835938 125.554688 C 222.824219 124.664062 222.785156 123.773438 222.714844 122.882812 C 222.644531 121.992188 222.546875 121.105469 222.421875 120.21875 C 222.296875 119.335938 222.144531 118.457031 221.960938 117.582031 C 221.78125 116.710938 221.570312 115.839844 221.332031 114.980469 C 221.097656 114.121094 220.832031 113.265625 220.539062 112.421875 C 220.25 111.578125 219.933594 110.746094 219.585938 109.921875 C 219.242188 109.097656 218.871094 108.285156 218.476562 107.484375 C 218.082031 106.683594 217.660156 105.898438 217.214844 105.125 C 216.765625 104.351562 216.296875 103.59375 215.800781 102.847656 C 215.308594 102.105469 214.789062 101.378906 214.25 100.667969 C 213.710938 99.957031 213.144531 99.265625 212.5625 98.589844 C 211.976562 97.914062 211.371094 97.261719 210.746094 96.625 C 210.117188 95.988281 209.472656 95.371094 208.804688 94.777344 C 208.140625 94.183594 207.457031 93.609375 206.753906 93.058594 C 206.050781 92.507812 205.332031 91.976562 204.597656 91.472656 C 203.859375 90.964844 203.109375 90.484375 202.34375 90.027344 C 201.574219 89.570312 200.796875 89.136719 200 88.726562 C 199.207031 88.320312 198.402344 87.9375 197.582031 87.582031 C 196.765625 87.222656 195.933594 86.894531 195.09375 86.589844 C 194.257812 86.285156 193.40625 86.007812 192.550781 85.757812 C 191.691406 85.507812 190.828125 85.285156 189.957031 85.089844 C 189.085938 84.898438 188.210938 84.730469 187.328125 84.589844 C 186.445312 84.453125 185.558594 84.339844 184.671875 84.257812 C 183.78125 84.175781 182.890625 84.121094 182 84.09375 C 181.105469 84.070312 180.214844 84.070312 179.320312 84.101562 C 178.429688 84.132812 177.539062 84.191406 176.648438 84.28125 C 175.761719 84.367188 174.875 84.484375 173.996094 84.625 C 173.113281 84.769531 172.238281 84.941406 171.367188 85.140625 C 170.496094 85.339844 169.632812 85.570312 168.777344 85.824219 C 167.921875 86.078125 167.074219 86.359375 166.238281 86.667969 C 165.398438 86.976562 164.574219 87.3125 163.757812 87.671875 C 162.941406 88.035156 162.136719 88.421875 161.34375 88.832031 C 160.550781 89.246094 159.773438 89.683594 159.007812 90.144531 C 158.246094 90.605469 157.496094 91.089844 156.761719 91.601562 C 156.03125 92.109375 155.3125 92.644531 154.613281 93.199219 C 153.914062 93.753906 153.234375 94.332031 152.570312 94.929688 C 151.910156 95.527344 151.265625 96.148438 150.644531 96.785156 C 150.019531 97.425781 149.417969 98.085938 148.835938 98.761719 C 148.257812 99.441406 147.695312 100.136719 147.160156 100.847656 C 146.625 101.5625 146.109375 102.292969 145.617188 103.039062 C 145.128906 103.785156 144.664062 104.546875 144.21875 105.320312 C 143.777344 106.097656 143.363281 106.886719 142.96875 107.6875 C 142.578125 108.492188 142.210938 109.304688 141.871094 110.128906 C 141.53125 110.957031 141.21875 111.792969 140.933594 112.636719 C 140.644531 113.484375 140.386719 114.335938 140.152344 115.199219 C 139.921875 116.0625 139.71875 116.929688 139.539062 117.804688 C 139.363281 118.679688 139.214844 119.558594 139.09375 120.445312 C 138.972656 121.328125 138.878906 122.21875 138.816406 123.109375 C 138.75 124 138.714844 124.890625 138.707031 125.78125 C 138.699219 126.675781 138.71875 127.566406 138.769531 128.460938 C 138.816406 129.351562 138.894531 130.238281 139 131.125 C 139.105469 132.011719 139.242188 132.894531 139.402344 133.773438 L 99.578125 93.949219 C 101.058594 92.691406 102.570312 91.464844 104.113281 90.277344 C 105.652344 89.089844 107.21875 87.9375 108.8125 86.824219 C 110.410156 85.710938 112.027344 84.632812 113.671875 83.59375 C 115.316406 82.550781 116.984375 81.550781 118.675781 80.589844 C 120.363281 79.628906 122.078125 78.707031 123.8125 77.824219 C 125.542969 76.941406 127.296875 76.097656 129.070312 75.296875 C 130.84375 74.496094 132.632812 73.738281 134.441406 73.019531 C 136.25 72.304688 138.074219 71.628906 139.914062 70.996094 C 141.753906 70.363281 143.605469 69.773438 145.472656 69.226562 C 147.339844 68.679688 149.21875 68.179688 151.109375 67.71875 C 153 67.261719 154.902344 66.84375 156.808594 66.476562 C 158.71875 66.105469 160.636719 65.777344 162.5625 65.496094 C 164.488281 65.214844 166.417969 64.980469 168.351562 64.789062 C 170.289062 64.597656 172.230469 64.449219 174.171875 64.347656 C 176.113281 64.246094 178.058594 64.191406 180.003906 64.179688 C 181.949219 64.171875 183.894531 64.203125 185.835938 64.285156 C 187.78125 64.363281 189.722656 64.488281 191.660156 64.660156 C 193.597656 64.828125 195.53125 65.042969 197.457031 65.304688 C 199.386719 65.5625 201.304688 65.867188 203.21875 66.21875 C 205.132812 66.566406 207.039062 66.960938 208.933594 67.398438 C 210.828125 67.835938 212.714844 68.320312 214.585938 68.84375 C 216.460938 69.371094 218.320312 69.9375 220.164062 70.550781 C 222.011719 71.164062 223.84375 71.816406 225.660156 72.515625 C 227.476562 73.210938 229.273438 73.953125 231.054688 74.734375 C 232.835938 75.515625 234.601562 76.335938 236.34375 77.199219 C 238.085938 78.0625 239.808594 78.964844 241.511719 79.910156 C 243.210938 80.851562 244.890625 81.835938 246.546875 82.855469 C 248.203125 83.878906 249.832031 84.9375 251.4375 86.035156 C 253.046875 87.132812 254.625 88.265625 256.179688 89.4375 C 257.730469 90.605469 259.257812 91.8125 260.753906 93.054688 C 262.253906 94.296875 263.71875 95.574219 265.160156 96.882812 C 266.597656 98.191406 268.003906 99.535156 269.378906 100.910156 C 270.753906 102.289062 272.097656 103.695312 273.40625 105.132812 C 274.71875 106.570312 275.992188 108.039062 277.234375 109.535156 C 278.476562 111.03125 279.683594 112.558594 280.855469 114.113281 C 282.023438 115.664062 283.160156 117.246094 284.257812 118.851562 C 285.351562 120.457031 286.414062 122.089844 287.433594 123.746094 C 288.457031 125.398438 289.4375 127.078125 290.382812 128.78125 C 291.324219 130.480469 292.226562 132.203125 293.089844 133.945312 C 293.953125 135.691406 294.777344 137.453125 295.558594 139.234375 C 296.339844 141.015625 297.078125 142.816406 297.773438 144.632812 C 298.472656 146.445312 299.128906 148.277344 299.738281 150.125 C 300.351562 151.972656 300.921875 153.832031 301.445312 155.703125 C 301.972656 157.578125 302.453125 159.460938 302.890625 161.355469 C 303.328125 163.253906 303.722656 165.15625 304.074219 167.070312 C 304.421875 168.984375 304.726562 170.90625 304.988281 172.832031 C 305.246094 174.761719 305.460938 176.695312 305.632812 178.632812 C 305.800781 180.570312 305.925781 182.511719 306.007812 184.453125 C 306.085938 186.398438 306.121094 188.34375 306.109375 190.289062 C 306.097656 192.234375 306.042969 194.175781 305.941406 196.121094 C 305.839844 198.0625 305.695312 200 305.503906 201.9375 C 305.3125 203.871094 305.074219 205.804688 304.792969 207.726562 C 304.511719 209.652344 304.1875 211.570312 303.816406 213.480469 C 303.445312 215.390625 303.03125 217.289062 302.570312 219.179688 C 302.113281 221.070312 301.609375 222.949219 301.0625 224.816406 C 300.515625 226.683594 299.929688 228.535156 299.296875 230.375 C 298.664062 232.214844 297.988281 234.039062 297.269531 235.847656 C 296.550781 237.65625 295.792969 239.445312 294.992188 241.21875 C 294.191406 242.992188 293.351562 244.746094 292.46875 246.480469 C 291.585938 248.214844 290.664062 249.925781 289.699219 251.617188 C 288.738281 253.308594 287.738281 254.976562 286.699219 256.617188 C 285.660156 258.261719 284.582031 259.882812 283.464844 261.476562 C 282.351562 263.070312 281.199219 264.636719 280.011719 266.179688 C 278.824219 267.71875 277.601562 269.230469 276.34375 270.714844 Z M 249.980469 244.351562 " fill-opacity="1" fill-rule="nonzero"/></svg>