<svg xmlns="http://www.w3.org/2000/svg" xmlns:xlink="http://www.w3.org/1999/xlink" width="50" zoomAndPan="magnify" viewBox="0 0 375 374.999991" height="50" preserveAspectRatio="xMidYMid meet" version="1.0"><defs><clipPath id="b24f18901a"><path d="M 64 43.449219 L 325.5 43.449219 L 325.5 305 L 64 305 Z M 64 43.449219 " clip-rule="nonzero"/></clipPath><clipPath id="cdb8f645a6"><path d="M 147 297 L 182 297 L 182 331.449219 L 147 331.449219 Z M 147 297 " clip-rule="nonzero"/></clipPath></defs><g clip-path="url(#b24f18901a)"><path fill="#ffffff" d="M 319.960938 43.609375 C 302.84375 43.609375 282.9375 47.324219 262.117188 54.292969 C 262.101562 54.296875 262.089844 54.292969 262.074219 54.296875 C 262.0625 54.304688 262.058594 54.308594 262.046875 54.316406 C 260.359375 54.878906 258.675781 55.425781 256.976562 56.035156 C 256.8125 56.097656 256.640625 56.167969 256.472656 56.25 C 252.269531 57.765625 248.140625 59.40625 244.070312 61.121094 C 244.046875 61.128906 244.027344 61.144531 244.003906 61.148438 C 218.765625 71.777344 196.355469 85.9375 181.242188 101.050781 L 151.804688 130.492188 L 127.242188 130.492188 C 115.417969 130.492188 104.304688 135.097656 95.9375 143.457031 L 66.449219 172.949219 C 64.847656 174.546875 64.386719 176.957031 65.273438 179.035156 C 66.144531 181.070312 68.152344 182.386719 70.355469 182.386719 C 70.402344 182.386719 70.445312 182.386719 70.488281 182.386719 L 117.46875 181.253906 C 115.21875 193.566406 116.578125 206.363281 121.847656 217.882812 C 105.855469 234.300781 93.558594 255.953125 103.578125 265.972656 C 106.089844 268.488281 109.335938 269.59375 113.050781 269.59375 C 124.15625 269.59375 139.410156 259.648438 151.71875 247.640625 C 159.6875 251.273438 168.230469 253.160156 176.847656 253.160156 C 180.679688 253.160156 184.511719 252.769531 188.304688 252.078125 L 187.171875 299.066406 C 187.113281 301.328125 188.441406 303.390625 190.519531 304.28125 C 191.222656 304.582031 191.964844 304.730469 192.699219 304.730469 C 194.136719 304.730469 195.554688 304.167969 196.609375 303.109375 L 226.097656 273.621094 C 234.460938 265.253906 239.066406 254.140625 239.066406 242.316406 L 239.066406 217.738281 L 268.285156 188.488281 C 283.503906 173.3125 297.707031 150.757812 308.324219 125.34375 C 308.324219 125.339844 308.332031 125.339844 308.332031 125.332031 C 310.105469 121.085938 311.804688 116.785156 313.363281 112.398438 C 313.941406 110.765625 314.460938 109.152344 315.003906 107.53125 C 315.027344 107.488281 315.058594 107.449219 315.082031 107.40625 C 315.109375 107.339844 315.09375 107.265625 315.121094 107.195312 C 322.078125 86.292969 325.730469 66.304688 325.644531 49.113281 C 325.617188 46.066406 323 43.609375 319.960938 43.609375 Z M 120.554688 170.117188 L 84.039062 170.996094 L 103.75 151.277344 C 110.027344 145.007812 118.367188 141.550781 127.234375 141.550781 L 140.738281 141.550781 L 135.574219 146.714844 C 128.78125 153.515625 123.769531 161.550781 120.554688 170.117188 Z M 141.425781 201.746094 C 137.808594 204.050781 134.128906 206.757812 130.484375 209.839844 C 127.070312 200.535156 126.570312 190.410156 128.828125 180.734375 C 132.089844 188.679688 137.148438 196.195312 141.425781 201.746094 Z M 145.050781 238.730469 C 127.632812 256.152344 113.234375 259.984375 111.398438 258.152344 C 109.574219 256.324219 113.410156 241.914062 130.828125 224.5 C 138.519531 216.808594 146.761719 210.699219 154.019531 207.296875 C 158.300781 205.296875 161.230469 204.753906 162.890625 204.753906 C 163.78125 204.753906 164.304688 204.910156 164.476562 205.082031 C 164.964844 205.566406 165.339844 208.953125 162.257812 215.539062 C 158.851562 222.804688 152.738281 231.035156 145.050781 238.730469 Z M 159.710938 239.066406 C 162.800781 235.417969 165.515625 231.726562 167.824219 228.101562 C 173.46875 232.429688 181.039062 237.445312 189.050781 240.667969 C 179.3125 242.980469 169.09375 242.5 159.710938 239.066406 Z M 228 242.3125 C 228 251.179688 224.546875 259.519531 218.273438 265.796875 L 198.5625 285.515625 L 199.445312 248.964844 C 208.023438 245.75 216.070312 240.753906 222.871094 233.949219 L 228.007812 228.808594 L 228.007812 242.3125 Z M 260.460938 180.660156 L 215.046875 226.125 C 213.042969 228.128906 210.910156 229.9375 208.679688 231.574219 C 208.667969 231.578125 208.652344 231.578125 208.640625 231.589844 C 202.039062 235.40625 188.03125 229.980469 173.121094 218.164062 C 177.925781 206.605469 175.441406 200.402344 172.289062 197.257812 C 169.148438 194.105469 162.945312 191.609375 151.367188 196.4375 C 140.210938 182.414062 134.628906 168.933594 137.253906 161.894531 C 139.066406 159.304688 141.101562 156.828125 143.398438 154.535156 L 157.996094 139.9375 C 158 139.929688 158 139.929688 158.007812 139.925781 L 189.0625 108.871094 C 201.785156 96.148438 220.199219 84.09375 241.1875 74.464844 C 243.40625 85.308594 250.46875 97.363281 261.285156 108.167969 C 272.101562 118.96875 284.160156 126 295 128.203125 C 285.375 149.351562 273.277344 167.878906 260.460938 180.660156 Z M 299.460938 117.777344 C 290.464844 116.738281 279 110.226562 269.101562 100.34375 C 259.199219 90.457031 252.664062 78.960938 251.613281 69.988281 C 254.300781 68.902344 257.007812 67.847656 259.753906 66.851562 C 259.746094 66.929688 259.769531 67 259.761719 67.070312 C 259.492188 72.652344 264.121094 83.582031 274.96875 94.433594 C 285.878906 105.34375 296.867188 109.9375 302.46875 109.632812 C 302.503906 109.632812 302.539062 109.640625 302.574219 109.640625 C 301.585938 112.382812 300.539062 115.089844 299.460938 117.777344 Z M 306.113281 98.800781 C 304.695312 98.628906 303.269531 98.507812 301.832031 98.589844 C 300.007812 98.824219 292.023438 95.835938 282.761719 86.574219 C 273.597656 77.417969 270.800781 69.457031 270.8125 67.675781 C 270.898438 66.191406 270.789062 64.722656 270.605469 63.257812 C 286.117188 58.457031 301.246094 55.464844 314.460938 54.8125 C 313.859375 68.019531 310.902344 83.214844 306.113281 98.800781 Z M 306.113281 98.800781 " fill-opacity="1" fill-rule="nonzero"/></g><path fill="#ffffff" d="M 219.132812 113.511719 C 209.105469 113.511719 199.683594 117.414062 192.601562 124.496094 C 185.511719 131.582031 181.613281 141.003906 181.613281 151.027344 C 181.613281 161.054688 185.511719 170.476562 192.601562 177.558594 C 199.683594 184.648438 209.105469 188.546875 219.132812 188.546875 C 229.15625 188.546875 238.578125 184.644531 245.664062 177.558594 C 252.75 170.472656 256.648438 161.054688 256.648438 151.027344 C 256.648438 141.003906 252.75 131.582031 245.664062 124.496094 C 238.578125 117.414062 229.15625 113.511719 219.132812 113.511719 Z M 237.84375 169.746094 C 232.851562 174.746094 226.203125 177.492188 219.132812 177.492188 C 212.058594 177.492188 205.417969 174.738281 200.417969 169.746094 C 195.421875 164.746094 192.671875 158.105469 192.671875 151.035156 C 192.671875 143.96875 195.421875 137.320312 200.417969 132.320312 C 205.414062 127.324219 212.058594 124.574219 219.132812 124.574219 C 226.203125 124.574219 232.84375 127.328125 237.84375 132.320312 C 242.84375 137.320312 245.589844 143.960938 245.589844 151.035156 C 245.589844 158.101562 242.84375 164.746094 237.84375 169.746094 Z M 237.84375 169.746094 " fill-opacity="1" fill-rule="nonzero"/><path fill="#ffffff" d="M 47.449219 220.203125 L 70.5625 197.089844 C 72.722656 194.929688 72.722656 191.433594 70.5625 189.273438 C 68.398438 187.109375 64.90625 187.109375 62.742188 189.273438 L 39.628906 212.386719 C 37.46875 214.546875 37.46875 218.042969 39.628906 220.203125 C 40.707031 221.28125 42.121094 221.824219 43.539062 221.824219 C 44.953125 221.824219 46.371094 221.28125 47.449219 220.203125 Z M 47.449219 220.203125 " fill-opacity="1" fill-rule="nonzero"/><path fill="#ffffff" d="M 98.933594 270.464844 C 96.773438 268.300781 93.277344 268.300781 91.117188 270.464844 L 55.34375 306.230469 C 53.183594 308.390625 53.183594 311.886719 55.34375 314.046875 C 56.421875 315.125 57.839844 315.667969 59.253906 315.667969 C 60.667969 315.667969 62.085938 315.125 63.164062 314.046875 L 98.933594 278.28125 C 101.089844 276.125 101.089844 272.625 98.933594 270.464844 Z M 98.933594 270.464844 " fill-opacity="1" fill-rule="nonzero"/><path fill="#ffffff" d="M 82.761719 229.515625 C 80.597656 227.355469 77.101562 227.355469 74.941406 229.515625 L 44.667969 259.789062 C 42.503906 261.953125 42.503906 265.449219 44.667969 267.609375 C 45.746094 268.6875 47.160156 269.230469 48.574219 269.230469 C 49.992188 269.230469 51.40625 268.6875 52.484375 267.609375 L 82.761719 237.335938 C 84.921875 235.179688 84.921875 231.679688 82.761719 229.515625 Z M 82.761719 229.515625 " fill-opacity="1" fill-rule="nonzero"/><g clip-path="url(#cdb8f645a6)"><path fill="#ffffff" d="M 172.308594 298.835938 L 149.191406 321.949219 C 147.03125 324.113281 147.03125 327.605469 149.191406 329.769531 C 150.269531 330.847656 151.6875 331.386719 153.101562 331.386719 C 154.519531 331.386719 155.933594 330.847656 157.011719 329.769531 L 180.125 306.65625 C 182.289062 304.492188 182.289062 300.996094 180.125 298.835938 C 177.964844 296.671875 174.46875 296.671875 172.308594 298.835938 Z M 172.308594 298.835938 " fill-opacity="1" fill-rule="nonzero"/></g><path fill="#ffffff" d="M 132.0625 286.636719 L 101.789062 316.910156 C 99.625 319.074219 99.625 322.570312 101.789062 324.730469 C 102.867188 325.808594 104.28125 326.351562 105.695312 326.351562 C 107.113281 326.351562 108.527344 325.808594 109.605469 324.730469 L 139.882812 294.457031 C 142.042969 292.292969 142.042969 288.800781 139.882812 286.636719 C 137.71875 284.476562 134.222656 284.476562 132.0625 286.636719 Z M 132.0625 286.636719 " fill-opacity="1" fill-rule="nonzero"/></svg>