<svg xmlns="http://www.w3.org/2000/svg" xmlns:xlink="http://www.w3.org/1999/xlink" width="50" zoomAndPan="magnify" viewBox="0 0 375 374.999991" height="50" preserveAspectRatio="xMidYMid meet" version="1.0"><defs><clipPath id="a156ecaccb"><path d="M 32.828125 37.5 L 341.828125 37.5 L 341.828125 346.5 L 32.828125 346.5 Z M 32.828125 37.5 " clip-rule="nonzero"/></clipPath></defs><g clip-path="url(#a156ecaccb)"><path fill="#ffffff" d="M 187.496094 37.5 C 102.214844 37.5 32.828125 106.890625 32.828125 192.167969 C 32.828125 277.449219 102.214844 346.839844 187.496094 346.839844 C 272.777344 346.839844 342.167969 277.449219 342.167969 192.167969 C 342.167969 106.890625 272.777344 37.5 187.496094 37.5 Z M 100.628906 295.808594 C 102.070312 249.089844 140.429688 211.503906 187.496094 211.503906 C 234.566406 211.503906 272.921875 249.089844 274.363281 295.808594 C 250.832031 315.558594 220.546875 327.507812 187.496094 327.507812 C 154.445312 327.507812 124.160156 315.558594 100.628906 295.808594 Z M 139.164062 143.835938 C 139.164062 117.183594 160.84375 95.5 187.496094 95.5 C 214.148438 95.5 235.832031 117.183594 235.832031 143.835938 C 235.832031 170.488281 214.148438 192.167969 187.496094 192.167969 C 160.84375 192.167969 139.164062 170.488281 139.164062 143.835938 Z M 291.839844 278.253906 C 284.84375 242.117188 259.496094 212.539062 225.921875 199.457031 C 243.5625 187.238281 255.164062 166.871094 255.164062 143.835938 C 255.164062 106.53125 224.800781 76.167969 187.496094 76.167969 C 150.191406 76.167969 119.828125 106.53125 119.828125 143.835938 C 119.828125 166.871094 131.429688 187.238281 149.070312 199.46875 C 115.496094 212.546875 90.152344 242.128906 83.144531 278.261719 C 63.800781 254.851562 52.160156 224.84375 52.160156 192.167969 C 52.160156 117.542969 112.867188 56.832031 187.496094 56.832031 C 262.125 56.832031 322.832031 117.542969 322.832031 192.167969 C 322.832031 224.84375 311.195312 254.851562 291.839844 278.253906 Z M 291.839844 278.253906 " fill-opacity="1" fill-rule="nonzero"/></g></svg>