<svg xmlns="http://www.w3.org/2000/svg" xmlns:xlink="http://www.w3.org/1999/xlink" width="50" zoomAndPan="magnify" viewBox="0 0 375 374.999991" height="50" preserveAspectRatio="xMidYMid meet" version="1.0"><defs><clipPath id="b16dd6e2b0"><path d="M 28.683594 37.5 L 337.683594 37.5 L 337.683594 346.5 L 28.683594 346.5 Z M 28.683594 37.5 " clip-rule="nonzero"/></clipPath></defs><g clip-path="url(#b16dd6e2b0)"><path fill="#ffffff" d="M 183.089844 37.5 C 98.011719 37.5 28.683594 106.828125 28.683594 191.90625 C 28.683594 276.984375 98.011719 346.3125 183.089844 346.3125 C 268.167969 346.3125 337.496094 276.984375 337.496094 191.90625 C 337.496094 106.828125 268.167969 37.5 183.089844 37.5 Z M 183.089844 324.230469 C 110.054688 324.230469 50.765625 264.941406 50.765625 191.90625 C 50.765625 118.871094 110.054688 59.582031 183.089844 59.582031 C 256.125 59.582031 315.417969 118.871094 315.417969 191.90625 C 315.417969 264.941406 256.125 324.230469 183.089844 324.230469 Z M 183.089844 324.230469 " fill-opacity="1" fill-rule="nonzero"/></g><path fill="#ffffff" d="M 143.871094 212.132812 C 138.777344 208.738281 137.386719 201.941406 140.785156 196.847656 C 144.179688 191.75 150.972656 190.363281 156.070312 193.757812 L 171.972656 204.414062 L 171.972656 125.664062 C 171.972656 119.644531 176.914062 114.703125 182.9375 114.703125 C 188.957031 114.703125 193.898438 119.644531 193.898438 125.664062 L 193.898438 204.257812 L 209.804688 193.605469 C 214.898438 190.207031 221.691406 191.597656 225.089844 196.691406 C 228.484375 201.789062 227.097656 208.582031 222 211.980469 L 189.265625 234.214844 C 189.113281 234.367188 188.957031 234.367188 188.804688 234.367188 C 188.648438 234.523438 188.496094 234.675781 188.339844 234.675781 C 187.878906 234.984375 187.414062 234.984375 186.949219 235.292969 C 186.640625 235.449219 186.332031 235.601562 186.023438 235.601562 C 185.097656 235.910156 184.171875 236.066406 183.246094 236.066406 C 182.320312 236.066406 181.238281 235.910156 180.3125 235.601562 C 180.003906 235.449219 179.695312 235.449219 179.382812 235.292969 C 178.765625 234.984375 178.148438 234.832031 177.53125 234.367188 C 177.378906 234.214844 177.222656 234.214844 177.070312 234.214844 Z M 143.871094 212.132812 " fill-opacity="1" fill-rule="nonzero"/><path fill="#ffffff" d="M 249.332031 258.148438 C 249.332031 264.167969 244.390625 269.109375 238.367188 269.109375 L 127.96875 269.109375 C 121.945312 269.109375 117.003906 264.167969 117.003906 258.148438 C 117.003906 252.125 121.945312 247.183594 127.96875 247.183594 L 238.214844 247.183594 C 244.390625 247.027344 249.332031 251.96875 249.332031 258.148438 Z M 249.332031 258.148438 " fill-opacity="1" fill-rule="nonzero"/></svg>