<svg xmlns="http://www.w3.org/2000/svg" xmlns:xlink="http://www.w3.org/1999/xlink" width="50" zoomAndPan="magnify" viewBox="0 0 375 374.999991" height="50" preserveAspectRatio="xMidYMid meet" version="1.0"><defs><clipPath id="9d86a8a40d"><path d="M 14.261719 46 L 360.761719 46 L 360.761719 357.726562 L 14.261719 357.726562 Z M 14.261719 46 " clip-rule="nonzero"/></clipPath><clipPath id="961c1bdbe9"><path d="M 44 41.226562 L 322 41.226562 L 322 326 L 44 326 Z M 44 41.226562 " clip-rule="nonzero"/></clipPath></defs><g clip-path="url(#9d86a8a40d)"><path fill="#ffffff" d="M 186.546875 357.714844 C 136.925781 356.558594 93.34375 340.210938 57.933594 304.945312 C 34.96875 282.085938 20.40625 254.292969 15.839844 222.117188 C 10.796875 186.597656 18.136719 153.332031 38.136719 123.375 C 69.519531 76.386719 114.820312 52.808594 170.230469 46.914062 C 176.449219 46.328125 182.683594 46.054688 188.933594 46.09375 C 195.347656 46.09375 199.070312 49.351562 199.070312 54.5 C 199.070312 59.652344 195.308594 62.703125 189.0625 63.277344 C 176.167969 64.445312 162.980469 64.484375 150.457031 67.328125 C 99.589844 78.859375 60.730469 106.488281 40.550781 155.613281 C 24.949219 193.621094 28.582031 231.214844 49.722656 266.464844 C 72.957031 305.152344 108.019531 328.140625 151.871094 336.777344 C 207.152344 347.667969 257.636719 336.316406 299.933594 298.066406 C 328.785156 271.976562 344.324219 238.816406 343.398438 199.398438 C 342.640625 167.160156 330.570312 139.109375 308.925781 115.148438 C 298.136719 103.152344 285.734375 93.144531 271.722656 85.125 C 268.914062 83.597656 266.691406 81.460938 265.050781 78.71875 C 263.394531 75.605469 264.394531 72.019531 267.359375 69.671875 C 267.730469 69.355469 268.125 69.074219 268.542969 68.824219 C 268.960938 68.574219 269.398438 68.363281 269.851562 68.1875 C 270.304688 68.011719 270.773438 67.878906 271.25 67.78125 C 271.730469 67.6875 272.210938 67.632812 272.699219 67.621094 C 273.183594 67.609375 273.667969 67.636719 274.152344 67.707031 C 274.632812 67.777344 275.105469 67.886719 275.570312 68.039062 C 276.035156 68.1875 276.480469 68.378906 276.910156 68.605469 C 277.34375 68.832031 277.75 69.09375 278.136719 69.390625 C 289.761719 77.59375 302.113281 85.050781 312.53125 94.59375 C 317.496094 99.085938 322.128906 103.898438 326.429688 109.027344 C 330.730469 114.152344 334.660156 119.554688 338.21875 125.222656 C 341.773438 130.890625 344.925781 136.777344 347.671875 142.878906 C 350.417969 148.980469 352.730469 155.242188 354.613281 161.664062 C 365.964844 200.105469 361.4375 236.929688 342.089844 271.859375 C 319.792969 312.070312 284.921875 336.53125 241.597656 350.023438 C 223.648438 355.4375 205.296875 358 186.546875 357.714844 Z M 186.546875 357.714844 " fill-opacity="1" fill-rule="nonzero"/></g><g clip-path="url(#961c1bdbe9)"><path fill="#ffffff" d="M 159.722656 89.574219 C 174.976562 91.25 190.230469 92.878906 205.484375 94.621094 C 208.484375 94.96875 210.207031 94.261719 211.050781 91.019531 C 213.144531 82.988281 215.914062 75.117188 217.710938 67.019531 C 218.273438 64.457031 217.183594 61.125 215.875 58.664062 C 212.21875 51.824219 212.667969 49.335938 219.3125 45.417969 C 230.527344 38.792969 232.695312 39.457031 239.199219 51.503906 C 241.765625 56.320312 241.1875 60.074219 236.234375 62.292969 C 230.449219 64.855469 227.949219 69.082031 226.679688 74.9375 C 225.332031 81.023438 223.621094 87.003906 221.546875 92.878906 C 220.136719 96.953125 221.546875 98.492188 225.394531 99.695312 C 242.574219 105.117188 258.9375 112.378906 274.480469 121.480469 C 302.488281 137.828125 316.648438 162.84375 320.664062 194.351562 C 324.230469 222.144531 317.984375 247.914062 303.589844 271.464844 C 287.375 297.925781 264.125 316.003906 233.3125 322.515625 C 215.835938 326.191406 197.992188 325.449219 180.171875 323.796875 C 151.882812 321.234375 126.109375 311.199219 100.847656 299.011719 C 71.855469 285.035156 54.148438 262.546875 46.964844 231.394531 C 41.34375 206.832031 44.398438 183.035156 53.945312 160.136719 C 67.042969 128.921875 89.800781 107.253906 121.746094 95.609375 C 133.960938 91.175781 146.6875 90.058594 159.722656 89.574219 Z M 167.035156 101.488281 C 159.207031 101.488281 151.242188 100.59375 143.582031 101.71875 C 134.488281 103.066406 125.121094 104.976562 116.832031 108.742188 C 112.871094 110.503906 109.046875 112.519531 105.355469 114.785156 C 101.664062 117.054688 98.136719 119.558594 94.777344 122.296875 C 91.421875 125.035156 88.257812 127.984375 85.292969 131.140625 C 82.328125 134.296875 79.582031 137.636719 77.0625 141.160156 C 57.90625 168.148438 50.300781 197.785156 57.816406 230.460938 C 62.617188 251.296875 72.984375 269.03125 91.175781 280.753906 C 99.980469 286.496094 109.175781 291.539062 118.753906 295.882812 C 128.328125 300.222656 138.183594 303.816406 148.308594 306.65625 C 158.433594 309.496094 168.71875 311.550781 179.160156 312.824219 C 189.601562 314.097656 200.078125 314.574219 210.589844 314.25 C 227.460938 313.828125 243.511719 309.996094 258.289062 301.359375 C 305.359375 273.859375 326.066406 209.097656 298.238281 160.0625 C 292.519531 150.003906 285.410156 140.90625 275.277344 134.664062 C 242.136719 114.199219 206.546875 101.515625 167.035156 101.488281 Z M 167.035156 101.488281 " fill-opacity="1" fill-rule="nonzero"/></g><path fill="#ffffff" d="M 116.191406 191.773438 C 117.011719 190.8125 118.230469 188.417969 120.195312 187.277344 C 128.085938 182.703125 136.140625 178.4375 144.238281 174.234375 C 148.085938 172.261719 151.445312 173.105469 153.792969 176.796875 C 158.476562 184.226562 163.210938 191.648438 167.703125 199.179688 C 170.085938 203.179688 169.191406 206.675781 165.648438 208.601562 C 161.710938 210.753906 158.914062 209.035156 156.769531 205.691406 C 154.628906 202.347656 152.382812 198.644531 150.191406 195.121094 C 145.132812 187.007812 146.457031 187.496094 138.335938 191.75 C 134.089844 193.980469 129.945312 196.441406 125.59375 198.4375 C 120.808594 200.679688 116.308594 198.042969 116.191406 191.773438 Z M 116.191406 191.773438 " fill-opacity="1" fill-rule="nonzero"/><path fill="#ffffff" d="M 250.707031 224.410156 C 249.179688 225.886719 247.628906 228.539062 245.511719 229.101562 C 244.324219 229.25 243.167969 229.128906 242.039062 228.734375 C 240.910156 228.339844 239.929688 227.714844 239.097656 226.859375 C 235.648438 222.453125 232.601562 217.789062 229.949219 212.867188 C 227.71875 208.816406 225.421875 208.40625 221.597656 210.816406 C 217.160156 213.636719 212.425781 215.941406 207.714844 218.375 C 203.585938 220.453125 199.75 219.53125 198.082031 216.3125 C 196.414062 213.097656 197.644531 209.253906 201.570312 207.101562 C 209.421875 202.796875 217.351562 198.644531 225.292969 194.53125 C 228.871094 192.683594 232.296875 193.054688 234.582031 196.582031 C 239.597656 204.34375 244.421875 212.238281 249.269531 220.121094 C 249.867188 221.511719 250.34375 222.941406 250.707031 224.410156 Z M 250.707031 224.410156 " fill-opacity="1" fill-rule="nonzero"/><path fill="#ffffff" d="M 108.007812 227.832031 C 107.445312 227.820312 106.890625 227.753906 106.34375 227.636719 C 105.792969 227.515625 105.261719 227.347656 104.746094 227.125 C 104.226562 226.90625 103.738281 226.640625 103.269531 226.328125 C 102.804688 226.015625 102.375 225.660156 101.976562 225.265625 C 101.578125 224.871094 101.21875 224.441406 100.902344 223.980469 C 100.585938 223.515625 100.316406 223.027344 100.089844 222.511719 C 99.867188 222 99.695312 221.46875 99.570312 220.921875 C 99.449219 220.375 99.378906 219.820312 99.359375 219.261719 C 99.367188 218.714844 99.425781 218.175781 99.535156 217.640625 C 99.648438 217.109375 99.808594 216.589844 100.019531 216.085938 C 100.230469 215.585938 100.488281 215.105469 100.792969 214.652344 C 101.09375 214.199219 101.4375 213.78125 101.824219 213.394531 C 102.207031 213.007812 102.625 212.660156 103.078125 212.351562 C 103.527344 212.046875 104.003906 211.785156 104.507812 211.570312 C 105.007812 211.355469 105.527344 211.191406 106.058594 211.078125 C 106.59375 210.960938 107.132812 210.898438 107.679688 210.886719 C 108.222656 210.875 108.765625 210.917969 109.304688 211.011719 C 109.84375 211.105469 110.367188 211.246094 110.875 211.441406 C 111.386719 211.636719 111.871094 211.875 112.335938 212.164062 C 112.800781 212.453125 113.230469 212.78125 113.632812 213.152344 C 114.03125 213.523438 114.390625 213.929688 114.714844 214.371094 C 115.035156 214.808594 115.3125 215.277344 115.542969 215.769531 C 115.773438 216.265625 115.957031 216.777344 116.089844 217.304688 C 116.222656 217.832031 116.304688 218.371094 116.332031 218.914062 C 116.332031 219.476562 116.277344 220.03125 116.171875 220.582031 C 116.066406 221.128906 115.910156 221.667969 115.703125 222.1875 C 115.496094 222.707031 115.242188 223.207031 114.945312 223.679688 C 114.644531 224.152344 114.304688 224.59375 113.921875 225.003906 C 113.539062 225.414062 113.121094 225.785156 112.667969 226.117188 C 112.214844 226.449219 111.738281 226.734375 111.230469 226.976562 C 110.726562 227.21875 110.203125 227.414062 109.660156 227.554688 C 109.117188 227.699219 108.566406 227.792969 108.007812 227.832031 Z M 108.007812 227.832031 " fill-opacity="1" fill-rule="nonzero"/><path fill="#ffffff" d="M 242.792969 245.863281 C 243.351562 245.859375 243.910156 245.914062 244.460938 246.023438 C 245.011719 246.132812 245.546875 246.292969 246.0625 246.511719 C 246.582031 246.730469 247.070312 246.996094 247.535156 247.3125 C 248 247.628906 248.425781 247.988281 248.816406 248.390625 C 249.207031 248.792969 249.554688 249.230469 249.855469 249.707031 C 250.15625 250.179688 250.410156 250.675781 250.609375 251.199219 C 250.8125 251.722656 250.957031 252.261719 251.050781 252.816406 C 251.140625 253.367188 251.175781 253.925781 251.15625 254.484375 C 251.148438 255.027344 251.085938 255.5625 250.976562 256.089844 C 250.867188 256.621094 250.707031 257.136719 250.496094 257.632812 C 250.289062 258.132812 250.035156 258.609375 249.738281 259.058594 C 249.4375 259.511719 249.101562 259.929688 248.722656 260.316406 C 248.34375 260.703125 247.933594 261.050781 247.488281 261.363281 C 247.042969 261.671875 246.574219 261.9375 246.082031 262.15625 C 245.585938 262.375 245.074219 262.546875 244.546875 262.671875 C 244.019531 262.796875 243.488281 262.867188 242.945312 262.890625 C 242.386719 262.878906 241.832031 262.8125 241.285156 262.691406 C 240.738281 262.574219 240.207031 262.40625 239.6875 262.191406 C 239.171875 261.972656 238.679688 261.710938 238.214844 261.402344 C 237.746094 261.089844 237.3125 260.742188 236.914062 260.351562 C 236.511719 259.960938 236.148438 259.539062 235.828125 259.078125 C 235.503906 258.621094 235.230469 258.136719 234.996094 257.628906 C 234.765625 257.121094 234.585938 256.59375 234.453125 256.050781 C 234.320312 255.503906 234.238281 254.953125 234.207031 254.394531 C 234.214844 253.835938 234.273438 253.28125 234.386719 252.730469 C 234.5 252.183594 234.664062 251.648438 234.882812 251.132812 C 235.101562 250.617188 235.367188 250.125 235.679688 249.660156 C 235.992188 249.195312 236.351562 248.765625 236.746094 248.371094 C 237.144531 247.976562 237.578125 247.621094 238.042969 247.3125 C 238.511719 247 239.003906 246.734375 239.523438 246.519531 C 240.039062 246.304688 240.574219 246.144531 241.125 246.03125 C 241.675781 245.921875 242.230469 245.863281 242.792969 245.863281 Z M 242.792969 245.863281 " fill-opacity="1" fill-rule="nonzero"/></svg>