<svg xmlns="http://www.w3.org/2000/svg" xmlns:xlink="http://www.w3.org/1999/xlink" width="60" zoomAndPan="magnify" viewBox="0 0 375 374.999991" height="60" preserveAspectRatio="xMidYMid meet" version="1.0"><defs><clipPath id="00a6f52a1a"><path d="M 28.21875 28.21875 L 346.96875 28.21875 L 346.96875 346.96875 L 28.21875 346.96875 Z M 28.21875 28.21875 " clip-rule="nonzero"/></clipPath></defs><path fill="#ffffff" d="M 127.210938 235.925781 C 127.082031 235.925781 126.953125 235.925781 126.886719 235.925781 C 126.304688 235.792969 125.78125 235.46875 125.457031 234.949219 L 115.1875 217.007812 C 114.601562 216.035156 114.992188 214.800781 115.96875 214.214844 C 116.941406 213.628906 118.179688 214.019531 118.761719 214.996094 L 127.863281 230.789062 L 132.671875 226.757812 L 123.507812 217.398438 C 122.726562 216.621094 122.726562 215.320312 123.507812 214.539062 C 124.289062 213.757812 125.585938 213.757812 126.367188 214.539062 L 137.09375 225.460938 C 137.484375 225.847656 137.675781 226.433594 137.675781 226.953125 C 137.675781 227.539062 137.351562 228.058594 136.960938 228.382812 L 128.578125 235.40625 C 128.1875 235.792969 127.734375 235.925781 127.210938 235.925781 Z M 127.210938 235.925781 " fill-opacity="1" fill-rule="nonzero"/><path fill="#ffffff" d="M 108.558594 267.710938 C 107.453125 267.710938 106.542969 266.800781 106.542969 265.695312 L 106.542969 237.808594 C 106.542969 236.703125 107.453125 235.792969 108.558594 235.792969 C 109.664062 235.792969 110.574219 236.703125 110.574219 237.808594 L 110.574219 265.695312 C 110.574219 266.800781 109.664062 267.710938 108.558594 267.710938 Z M 108.558594 267.710938 " fill-opacity="1" fill-rule="nonzero"/><path fill="#ffffff" d="M 124.9375 217.984375 C 123.832031 217.984375 122.921875 217.074219 122.921875 215.96875 L 122.921875 206.351562 C 122.921875 205.246094 123.832031 204.335938 124.9375 204.335938 C 126.042969 204.335938 126.953125 205.246094 126.953125 206.351562 L 126.953125 215.96875 C 126.953125 217.074219 126.042969 217.984375 124.9375 217.984375 Z M 124.9375 217.984375 " fill-opacity="1" fill-rule="nonzero"/><path fill="#ffffff" d="M 146.324219 217.984375 C 145.21875 217.984375 144.308594 217.074219 144.308594 215.96875 L 144.308594 206.804688 C 144.308594 205.699219 145.21875 204.789062 146.324219 204.789062 C 147.425781 204.789062 148.335938 205.699219 148.335938 206.804688 L 148.335938 215.96875 C 148.402344 217.074219 147.492188 217.984375 146.324219 217.984375 Z M 146.324219 217.984375 " fill-opacity="1" fill-rule="nonzero"/><path fill="#ffffff" d="M 135.921875 212.460938 C 126.109375 212.460938 115.449219 204.660156 115.058594 187.566406 C 115.058594 186.460938 115.902344 185.484375 117.074219 185.484375 C 118.179688 185.484375 119.152344 186.328125 119.152344 187.5 C 119.476562 201.863281 128.058594 208.429688 135.921875 208.429688 C 143.789062 208.429688 152.367188 201.929688 152.691406 187.628906 C 152.691406 186.523438 153.667969 185.613281 154.773438 185.613281 C 155.878906 185.613281 156.789062 186.589844 156.789062 187.695312 C 156.332031 204.726562 145.671875 212.460938 135.921875 212.460938 Z M 135.921875 212.460938 " fill-opacity="1" fill-rule="nonzero"/><path fill="#ffffff" d="M 154.707031 189.710938 C 154.578125 189.710938 154.382812 189.710938 154.253906 189.644531 C 153.34375 189.449219 152.691406 188.667969 152.691406 187.695312 C 152.433594 178.59375 150.351562 174.628906 149.246094 173.136719 C 140.019531 178.269531 132.476562 175.410156 127.472656 173.523438 C 124.484375 172.355469 123.3125 172.09375 122.726562 172.421875 C 122.664062 180.738281 119.152344 188.019531 119.023438 188.34375 C 118.699219 188.996094 118.046875 189.449219 117.398438 189.515625 C 116.683594 189.578125 115.96875 189.253906 115.578125 188.667969 C 109.859375 180.804688 109.46875 172.03125 114.40625 164.035156 C 120.191406 154.675781 132.414062 148.566406 142.164062 150.191406 C 149.050781 151.359375 153.796875 155.976562 155.746094 163.320312 C 165.824219 171.445312 157.046875 187.824219 156.65625 188.539062 C 156.136719 189.320312 155.488281 189.710938 154.707031 189.710938 Z M 138.78125 154.089844 C 131.113281 154.089844 122.144531 159.160156 117.789062 166.246094 C 114.472656 171.640625 114.148438 177.425781 116.746094 182.886719 C 117.65625 180.089844 118.699219 175.996094 118.632812 171.703125 C 118.632812 171.316406 118.761719 170.925781 118.957031 170.535156 C 121.363281 166.828125 125.394531 168.390625 128.902344 169.691406 C 133.972656 171.574219 140.277344 173.980469 148.46875 168.84375 C 149.117188 168.453125 149.898438 168.453125 150.546875 168.78125 C 151.003906 169.039062 154.1875 171.054688 155.8125 178.789062 C 156.789062 174.371094 156.789062 169.171875 152.628906 166.179688 C 152.238281 165.921875 151.914062 165.464844 151.847656 165.011719 C 150.417969 158.898438 146.84375 155.128906 141.382812 154.21875 C 140.539062 154.15625 139.691406 154.089844 138.78125 154.089844 Z M 138.78125 154.089844 " fill-opacity="1" fill-rule="nonzero"/><path fill="#ffffff" d="M 162.765625 267.710938 C 161.664062 267.710938 160.753906 266.800781 160.753906 265.695312 L 160.753906 237.808594 C 160.753906 236.703125 161.664062 235.792969 162.765625 235.792969 C 163.871094 235.792969 164.78125 236.703125 164.78125 237.808594 L 164.78125 265.695312 C 164.78125 266.800781 163.871094 267.710938 162.765625 267.710938 Z M 162.765625 267.710938 " fill-opacity="1" fill-rule="nonzero"/><path fill="#ffffff" d="M 144.046875 235.925781 C 143.59375 235.925781 143.136719 235.730469 142.746094 235.46875 L 134.363281 228.449219 C 133.90625 228.058594 133.648438 227.539062 133.648438 227.019531 C 133.648438 226.433594 133.84375 225.914062 134.234375 225.523438 L 144.957031 214.605469 C 145.738281 213.824219 147.039062 213.757812 147.816406 214.605469 C 148.597656 215.382812 148.664062 216.683594 147.816406 217.464844 L 138.652344 226.824219 L 143.460938 230.855469 L 152.5625 215.058594 C 153.148438 214.085938 154.382812 213.757812 155.359375 214.28125 C 156.332031 214.863281 156.65625 216.097656 156.136719 217.074219 L 145.800781 234.949219 C 145.476562 235.46875 144.957031 235.859375 144.371094 235.925781 C 144.242188 235.925781 144.175781 235.925781 144.046875 235.925781 Z M 144.046875 235.925781 " fill-opacity="1" fill-rule="nonzero"/><path fill="#ffffff" d="M 138.976562 240.539062 L 132.28125 240.539062 C 131.308594 240.539062 130.527344 239.890625 130.269531 238.980469 L 128.578125 231.570312 C 128.316406 230.464844 129.03125 229.359375 130.136719 229.097656 C 131.242188 228.839844 132.347656 229.554688 132.609375 230.660156 L 133.90625 236.445312 L 137.351562 236.445312 L 138.652344 230.660156 C 138.914062 229.554688 140.019531 228.839844 141.121094 229.097656 C 142.226562 229.359375 142.941406 230.464844 142.683594 231.570312 L 140.992188 238.980469 C 140.734375 239.824219 139.953125 240.539062 138.976562 240.539062 Z M 138.976562 240.539062 " fill-opacity="1" fill-rule="nonzero"/><path fill="#ffffff" d="M 128.773438 267.710938 C 128.707031 267.710938 128.578125 267.710938 128.511719 267.710938 C 127.40625 267.578125 126.628906 266.539062 126.757812 265.433594 L 130.269531 238.199219 C 130.398438 237.09375 131.4375 236.3125 132.542969 236.445312 C 133.648438 236.574219 134.425781 237.613281 134.296875 238.71875 L 130.722656 265.890625 C 130.65625 266.929688 129.746094 267.710938 128.773438 267.710938 Z M 128.773438 267.710938 " fill-opacity="1" fill-rule="nonzero"/><path fill="#ffffff" d="M 142.550781 267.710938 C 141.578125 267.710938 140.667969 266.996094 140.539062 265.953125 L 136.960938 238.785156 C 136.832031 237.679688 137.613281 236.640625 138.71875 236.507812 C 139.824219 236.378906 140.863281 237.160156 140.992188 238.265625 L 144.566406 265.433594 C 144.699219 266.539062 143.917969 267.578125 142.8125 267.710938 C 142.683594 267.710938 142.617188 267.710938 142.550781 267.710938 Z M 142.550781 267.710938 " fill-opacity="1" fill-rule="nonzero"/><path fill="#ffffff" d="M 175.050781 267.710938 L 96.273438 267.710938 C 95.167969 267.710938 94.257812 266.800781 94.257812 265.695312 L 94.257812 238.003906 C 94.257812 224.746094 105.046875 213.953125 118.308594 213.953125 L 124.9375 213.953125 C 126.042969 213.953125 126.953125 214.863281 126.953125 215.96875 C 126.953125 217.074219 126.042969 217.984375 124.9375 217.984375 L 118.308594 217.984375 C 107.257812 217.984375 98.289062 226.953125 98.289062 238.003906 L 98.289062 263.613281 L 172.972656 263.613281 L 172.972656 238.003906 C 172.972656 226.953125 164.003906 217.984375 152.953125 217.984375 L 146.324219 217.984375 C 145.21875 217.984375 144.308594 217.074219 144.308594 215.96875 C 144.308594 214.863281 145.21875 213.953125 146.324219 213.953125 L 152.953125 213.953125 C 166.210938 213.953125 177.003906 224.746094 177.003906 238.003906 L 177.003906 265.695312 C 177.066406 266.800781 176.15625 267.710938 175.050781 267.710938 Z M 175.050781 267.710938 " fill-opacity="1" fill-rule="nonzero"/><path fill="#ffffff" d="M 119.609375 267.710938 C 119.542969 267.710938 119.542969 267.710938 119.609375 267.710938 C 118.4375 267.710938 117.527344 266.734375 117.59375 265.628906 L 117.984375 241.1875 L 106.414062 219.414062 C 105.894531 218.441406 106.28125 217.203125 107.257812 216.683594 C 108.234375 216.164062 109.46875 216.554688 109.988281 217.53125 L 121.753906 239.757812 C 121.882812 240.085938 122.011719 240.410156 122.011719 240.734375 L 121.621094 265.695312 C 121.621094 266.800781 120.710938 267.710938 119.609375 267.710938 Z M 119.609375 267.710938 " fill-opacity="1" fill-rule="nonzero"/><path fill="#ffffff" d="M 151.78125 267.710938 C 150.675781 267.710938 149.769531 266.800781 149.769531 265.695312 L 149.378906 240.734375 C 149.378906 240.410156 149.441406 240.019531 149.636719 239.757812 L 161.402344 217.59375 C 161.921875 216.621094 163.15625 216.230469 164.132812 216.75 C 165.109375 217.269531 165.496094 218.503906 164.976562 219.480469 L 153.472656 241.1875 L 153.863281 265.628906 C 153.863281 266.734375 152.953125 267.644531 151.78125 267.710938 C 151.847656 267.710938 151.847656 267.710938 151.78125 267.710938 Z M 151.78125 267.710938 " fill-opacity="1" fill-rule="nonzero"/><path fill="#ffffff" d="M 231.148438 235.925781 C 231.015625 235.925781 230.886719 235.925781 230.820312 235.925781 C 230.238281 235.792969 229.71875 235.46875 229.390625 234.949219 L 219.121094 217.007812 C 218.535156 216.035156 218.925781 214.800781 219.902344 214.214844 C 220.878906 213.628906 222.113281 214.019531 222.695312 214.996094 L 231.796875 230.789062 L 236.605469 226.757812 L 227.378906 217.398438 C 226.597656 216.621094 226.597656 215.320312 227.378906 214.539062 C 228.15625 213.757812 229.457031 213.757812 230.238281 214.539062 L 240.960938 225.460938 C 241.351562 225.847656 241.546875 226.433594 241.546875 226.953125 C 241.546875 227.539062 241.222656 228.058594 240.832031 228.382812 L 232.445312 235.40625 C 232.058594 235.792969 231.601562 235.925781 231.148438 235.925781 Z M 231.148438 235.925781 " fill-opacity="1" fill-rule="nonzero"/><path fill="#ffffff" d="M 212.425781 267.710938 C 211.320312 267.710938 210.414062 266.800781 210.414062 265.695312 L 210.414062 237.808594 C 210.414062 236.703125 211.320312 235.792969 212.425781 235.792969 C 213.53125 235.792969 214.441406 236.703125 214.441406 237.808594 L 214.441406 265.695312 C 214.441406 266.800781 213.53125 267.710938 212.425781 267.710938 Z M 212.425781 267.710938 " fill-opacity="1" fill-rule="nonzero"/><path fill="#ffffff" d="M 228.808594 217.984375 C 227.703125 217.984375 226.792969 217.074219 226.792969 215.96875 L 226.792969 206.351562 C 226.792969 205.246094 227.703125 204.335938 228.808594 204.335938 C 229.910156 204.335938 230.820312 205.246094 230.820312 206.351562 L 230.820312 215.96875 C 230.886719 217.074219 229.910156 217.984375 228.808594 217.984375 Z M 228.808594 217.984375 " fill-opacity="1" fill-rule="nonzero"/><path fill="#ffffff" d="M 250.191406 217.984375 C 249.085938 217.984375 248.175781 217.074219 248.175781 215.96875 L 248.175781 206.804688 C 248.175781 205.699219 249.085938 204.789062 250.191406 204.789062 C 251.296875 204.789062 252.207031 205.699219 252.207031 206.804688 L 252.207031 215.96875 C 252.273438 217.074219 251.363281 217.984375 250.191406 217.984375 Z M 250.191406 217.984375 " fill-opacity="1" fill-rule="nonzero"/><path fill="#ffffff" d="M 239.792969 212.460938 C 229.976562 212.460938 219.316406 204.660156 218.925781 187.566406 C 218.925781 186.460938 219.773438 185.484375 220.941406 185.484375 C 220.941406 185.484375 220.941406 185.484375 221.007812 185.484375 C 222.113281 185.484375 223.023438 186.394531 223.023438 187.5 C 223.347656 201.863281 231.925781 208.429688 239.792969 208.429688 C 247.65625 208.429688 256.238281 201.929688 256.5625 187.628906 C 256.5625 186.523438 257.535156 185.613281 258.640625 185.613281 C 259.746094 185.613281 260.65625 186.589844 260.65625 187.695312 C 260.203125 204.726562 249.542969 212.460938 239.792969 212.460938 Z M 239.792969 212.460938 " fill-opacity="1" fill-rule="nonzero"/><path fill="#ffffff" d="M 258.578125 189.710938 C 258.445312 189.710938 258.25 189.710938 258.121094 189.644531 C 257.210938 189.449219 256.5625 188.667969 256.5625 187.695312 C 256.300781 178.59375 254.222656 174.628906 253.117188 173.136719 C 243.886719 178.269531 236.347656 175.410156 231.34375 173.523438 C 228.351562 172.355469 227.183594 172.09375 226.597656 172.421875 C 226.53125 180.738281 223.023438 188.019531 222.890625 188.34375 C 222.566406 188.996094 221.917969 189.449219 221.265625 189.515625 C 220.550781 189.578125 219.835938 189.253906 219.445312 188.667969 C 213.726562 180.804688 213.335938 172.03125 218.277344 164.035156 C 224.0625 154.675781 236.28125 148.566406 246.03125 150.191406 C 252.921875 151.359375 257.667969 155.976562 259.617188 163.320312 C 269.691406 171.445312 260.917969 187.824219 260.527344 188.539062 C 260.007812 189.320312 259.355469 189.710938 258.578125 189.710938 Z M 242.652344 154.089844 C 234.980469 154.089844 226.011719 159.160156 221.65625 166.246094 C 218.34375 171.640625 218.015625 177.425781 220.617188 182.886719 C 221.527344 180.089844 222.566406 175.996094 222.503906 171.703125 C 222.503906 171.316406 222.632812 170.925781 222.828125 170.535156 C 225.230469 166.828125 229.261719 168.390625 232.773438 169.691406 C 237.84375 171.574219 244.148438 173.980469 252.335938 168.84375 C 252.988281 168.453125 253.765625 168.453125 254.417969 168.78125 C 254.871094 169.039062 258.058594 171.054688 259.683594 178.789062 C 260.65625 174.371094 260.65625 169.171875 256.496094 166.179688 C 256.105469 165.921875 255.78125 165.464844 255.714844 165.011719 C 254.285156 158.898438 250.710938 155.128906 245.25 154.21875 C 244.40625 154.15625 243.5625 154.089844 242.652344 154.089844 Z M 242.652344 154.089844 " fill-opacity="1" fill-rule="nonzero"/><path fill="#ffffff" d="M 266.636719 267.710938 C 265.53125 267.710938 264.621094 266.800781 264.621094 265.695312 L 264.621094 237.808594 C 264.621094 236.703125 265.53125 235.792969 266.636719 235.792969 C 267.742188 235.792969 268.652344 236.703125 268.652344 237.808594 L 268.652344 265.695312 C 268.652344 266.800781 267.742188 267.710938 266.636719 267.710938 Z M 266.636719 267.710938 " fill-opacity="1" fill-rule="nonzero"/><path fill="#ffffff" d="M 247.917969 235.925781 C 247.460938 235.925781 247.007812 235.730469 246.617188 235.46875 L 238.230469 228.449219 C 237.777344 228.058594 237.515625 227.539062 237.515625 227.019531 C 237.515625 226.433594 237.710938 225.914062 238.101562 225.523438 L 248.828125 214.605469 C 249.605469 213.824219 250.90625 213.757812 251.6875 214.605469 C 252.464844 215.382812 252.53125 216.683594 251.6875 217.464844 L 242.523438 226.824219 L 247.332031 230.855469 L 256.433594 215.058594 C 257.015625 214.085938 258.25 213.757812 259.226562 214.28125 C 260.203125 214.863281 260.527344 216.097656 260.007812 217.074219 L 249.671875 234.949219 C 249.347656 235.46875 248.828125 235.859375 248.242188 235.925781 C 248.175781 235.925781 248.046875 235.925781 247.917969 235.925781 Z M 247.917969 235.925781 " fill-opacity="1" fill-rule="nonzero"/><path fill="#ffffff" d="M 242.847656 240.539062 L 236.152344 240.539062 C 235.175781 240.539062 234.398438 239.890625 234.136719 238.980469 L 232.445312 231.570312 C 232.1875 230.464844 232.902344 229.359375 234.007812 229.097656 C 235.113281 228.839844 236.21875 229.554688 236.476562 230.660156 L 237.777344 236.445312 L 241.222656 236.445312 L 242.523438 230.660156 C 242.78125 229.554688 243.886719 228.839844 244.992188 229.097656 C 246.097656 229.359375 246.8125 230.464844 246.550781 231.570312 L 244.863281 238.980469 C 244.667969 239.824219 243.820312 240.539062 242.847656 240.539062 Z M 242.847656 240.539062 " fill-opacity="1" fill-rule="nonzero"/><path fill="#ffffff" d="M 232.640625 267.710938 C 232.578125 267.710938 232.445312 267.710938 232.382812 267.710938 C 231.277344 267.578125 230.496094 266.539062 230.625 265.433594 L 234.203125 238.265625 C 234.332031 237.160156 235.371094 236.378906 236.476562 236.507812 C 237.582031 236.640625 238.363281 237.679688 238.230469 238.785156 L 234.65625 265.953125 C 234.527344 266.929688 233.617188 267.710938 232.640625 267.710938 Z M 232.640625 267.710938 " fill-opacity="1" fill-rule="nonzero"/><path fill="#ffffff" d="M 246.421875 267.710938 C 245.445312 267.710938 244.535156 266.996094 244.40625 265.953125 L 240.832031 238.785156 C 240.703125 237.679688 241.480469 236.640625 242.585938 236.507812 C 243.691406 236.378906 244.730469 237.160156 244.863281 238.265625 L 248.4375 265.433594 C 248.566406 266.539062 247.785156 267.578125 246.683594 267.710938 C 246.617188 267.710938 246.488281 267.710938 246.421875 267.710938 Z M 246.421875 267.710938 " fill-opacity="1" fill-rule="nonzero"/><path fill="#ffffff" d="M 278.921875 267.710938 L 200.140625 267.710938 C 199.039062 267.710938 198.128906 266.800781 198.128906 265.695312 L 198.128906 238.003906 C 198.128906 224.746094 208.917969 213.953125 222.175781 213.953125 L 228.808594 213.953125 C 229.910156 213.953125 230.820312 214.863281 230.820312 215.96875 C 230.820312 217.074219 229.910156 217.984375 228.808594 217.984375 L 222.175781 217.984375 C 211.128906 217.984375 202.15625 226.953125 202.15625 238.003906 L 202.15625 263.613281 L 276.839844 263.613281 L 276.839844 238.003906 C 276.839844 226.953125 267.871094 217.984375 256.820312 217.984375 L 250.191406 217.984375 C 249.085938 217.984375 248.175781 217.074219 248.175781 215.96875 C 248.175781 214.863281 249.085938 213.953125 250.191406 213.953125 L 256.820312 213.953125 C 270.082031 213.953125 280.871094 224.746094 280.871094 238.003906 L 280.871094 265.695312 C 280.9375 266.800781 280.027344 267.710938 278.921875 267.710938 Z M 278.921875 267.710938 " fill-opacity="1" fill-rule="nonzero"/><path fill="#ffffff" d="M 223.476562 267.710938 C 223.476562 267.710938 223.410156 267.710938 223.476562 267.710938 C 222.308594 267.710938 221.398438 266.734375 221.460938 265.628906 L 221.851562 241.1875 L 210.28125 219.414062 C 209.761719 218.441406 210.152344 217.203125 211.128906 216.683594 C 212.101562 216.164062 213.335938 216.554688 213.855469 217.53125 L 225.621094 239.757812 C 225.753906 240.085938 225.882812 240.410156 225.882812 240.734375 L 225.492188 265.695312 C 225.492188 266.800781 224.582031 267.710938 223.476562 267.710938 Z M 223.476562 267.710938 " fill-opacity="1" fill-rule="nonzero"/><path fill="#ffffff" d="M 255.714844 267.710938 C 254.613281 267.710938 253.703125 266.800781 253.703125 265.695312 L 253.3125 240.734375 C 253.3125 240.410156 253.375 240.019531 253.570312 239.757812 L 265.335938 217.59375 C 265.855469 216.621094 267.089844 216.230469 268.066406 216.75 C 269.042969 217.269531 269.433594 218.503906 268.910156 219.480469 L 257.40625 241.1875 L 257.796875 265.628906 C 257.730469 266.734375 256.820312 267.644531 255.714844 267.710938 Z M 255.714844 267.710938 " fill-opacity="1" fill-rule="nonzero"/><path fill="#ffffff" d="M 184.605469 148.433594 C 183.761719 148.433594 182.980469 148.238281 182.203125 147.785156 L 167.640625 139.398438 C 166.148438 138.554688 165.238281 136.996094 165.238281 135.238281 C 165.238281 133.484375 166.148438 131.925781 167.640625 131.082031 L 182.203125 122.695312 C 183.699219 121.851562 185.515625 121.851562 187.011719 122.695312 C 188.507812 123.539062 189.417969 125.101562 189.417969 126.855469 L 189.417969 126.921875 C 189.417969 127.308594 189.742188 127.636719 190.132812 127.636719 L 205.082031 127.636719 C 207.746094 127.636719 209.890625 129.78125 209.890625 132.445312 L 209.890625 137.96875 C 209.890625 140.636719 207.746094 142.78125 205.082031 142.78125 L 190.132812 142.78125 C 189.742188 142.78125 189.417969 143.105469 189.417969 143.496094 L 189.417969 143.558594 C 189.417969 145.316406 188.507812 146.875 187.011719 147.71875 C 186.296875 148.238281 185.453125 148.433594 184.605469 148.433594 Z M 184.605469 126.140625 C 184.476562 126.140625 184.347656 126.207031 184.21875 126.269531 L 169.65625 134.65625 C 169.398438 134.785156 169.265625 134.980469 169.265625 135.304688 C 169.265625 135.628906 169.398438 135.824219 169.65625 135.957031 L 184.21875 144.339844 C 184.476562 144.46875 184.738281 144.46875 184.933594 144.339844 C 185.191406 144.210938 185.324219 144.015625 185.324219 143.691406 L 185.324219 143.625 C 185.324219 140.960938 187.46875 138.816406 190.132812 138.816406 L 205.082031 138.816406 C 205.472656 138.816406 205.796875 138.488281 205.796875 138.101562 L 205.796875 132.574219 C 205.796875 132.183594 205.472656 131.859375 205.082031 131.859375 L 190.132812 131.859375 C 187.46875 131.859375 185.324219 129.714844 185.324219 127.050781 L 185.324219 126.984375 C 185.324219 126.726562 185.191406 126.464844 184.933594 126.335938 C 184.867188 126.140625 184.738281 126.140625 184.605469 126.140625 Z M 184.605469 126.140625 " fill-opacity="1" fill-rule="nonzero"/><path fill="#ffffff" d="M 190.523438 179.441406 C 189.675781 179.441406 188.898438 179.246094 188.117188 178.789062 C 186.621094 177.945312 185.710938 176.386719 185.710938 174.628906 L 185.710938 174.566406 C 185.710938 174.175781 185.386719 173.851562 184.996094 173.851562 L 170.046875 173.851562 C 167.382812 173.851562 165.238281 171.703125 165.238281 169.039062 L 165.238281 163.449219 C 165.238281 160.785156 167.382812 158.640625 170.046875 158.640625 L 184.996094 158.640625 C 185.386719 158.640625 185.710938 158.316406 185.710938 157.925781 L 185.710938 157.859375 C 185.710938 156.105469 186.621094 154.546875 188.117188 153.699219 C 189.613281 152.855469 191.433594 152.855469 192.925781 153.699219 L 207.488281 162.085938 C 208.980469 162.929688 209.890625 164.488281 209.890625 166.246094 C 209.890625 168 208.980469 169.558594 207.488281 170.40625 L 192.925781 178.789062 C 192.210938 179.246094 191.367188 179.441406 190.523438 179.441406 Z M 170.046875 162.734375 C 169.65625 162.734375 169.332031 163.058594 169.332031 163.449219 L 169.332031 168.976562 C 169.332031 169.363281 169.65625 169.691406 170.046875 169.691406 L 184.996094 169.691406 C 187.664062 169.691406 189.808594 171.835938 189.808594 174.5 L 189.808594 174.566406 C 189.808594 174.890625 189.9375 175.085938 190.199219 175.214844 C 190.457031 175.34375 190.71875 175.34375 190.914062 175.214844 L 205.472656 166.828125 C 205.730469 166.699219 205.863281 166.503906 205.863281 166.179688 C 205.863281 165.921875 205.730469 165.660156 205.472656 165.53125 L 190.914062 157.144531 C 190.652344 157.015625 190.390625 157.015625 190.199219 157.144531 C 189.9375 157.273438 189.808594 157.46875 189.808594 157.796875 L 189.808594 157.859375 C 189.808594 160.523438 187.664062 162.671875 184.996094 162.671875 Z M 170.046875 162.734375 " fill-opacity="1" fill-rule="nonzero"/><path fill="#ffffff" d="M 131.894531 134.332031 C 131.046875 134.332031 130.269531 134.136719 129.488281 133.679688 C 127.992188 132.835938 127.082031 131.273438 127.082031 129.519531 L 127.082031 129.457031 C 127.082031 129.066406 126.757812 128.742188 126.367188 128.742188 L 111.417969 128.742188 C 108.753906 128.742188 106.609375 126.59375 106.609375 123.929688 L 106.609375 118.40625 C 106.609375 115.742188 108.753906 113.59375 111.417969 113.59375 L 126.367188 113.59375 C 126.757812 113.59375 127.082031 113.269531 127.082031 112.878906 L 127.082031 112.75 C 127.082031 110.996094 127.992188 109.433594 129.488281 108.589844 C 130.984375 107.746094 132.804688 107.746094 134.296875 108.589844 L 148.859375 116.976562 C 150.351562 117.820312 151.261719 119.378906 151.261719 121.136719 C 151.261719 122.890625 150.351562 124.449219 148.859375 125.296875 L 134.296875 133.679688 C 133.519531 134.136719 132.738281 134.332031 131.894531 134.332031 Z M 111.417969 117.625 C 111.027344 117.625 110.703125 117.949219 110.703125 118.339844 L 110.703125 123.867188 C 110.703125 124.253906 111.027344 124.582031 111.417969 124.582031 L 126.367188 124.582031 C 129.03125 124.582031 131.179688 126.726562 131.179688 129.390625 L 131.179688 129.457031 C 131.179688 129.78125 131.308594 129.976562 131.566406 130.105469 C 131.828125 130.234375 132.085938 130.234375 132.28125 130.105469 L 146.84375 121.71875 C 147.101562 121.589844 147.234375 121.394531 147.234375 121.070312 C 147.234375 120.746094 147.101562 120.550781 146.84375 120.421875 L 132.28125 112.101562 C 132.023438 111.96875 131.761719 111.96875 131.566406 112.101562 C 131.308594 112.230469 131.179688 112.425781 131.179688 112.75 L 131.179688 112.816406 C 131.179688 115.480469 129.03125 117.625 126.367188 117.625 C 126.367188 117.625 111.417969 117.625 111.417969 117.625 Z M 111.417969 117.625 " fill-opacity="1" fill-rule="nonzero"/><path fill="#ffffff" d="M 243.238281 134.332031 C 242.390625 134.332031 241.613281 134.136719 240.832031 133.679688 L 226.273438 125.296875 C 224.777344 124.449219 223.867188 122.890625 223.867188 121.136719 C 223.867188 119.378906 224.777344 117.820312 226.273438 116.976562 L 240.832031 108.589844 C 242.328125 107.746094 244.148438 107.746094 245.640625 108.589844 C 247.136719 109.433594 248.046875 110.996094 248.046875 112.75 L 248.046875 112.816406 C 248.046875 113.207031 248.371094 113.53125 248.761719 113.53125 L 263.710938 113.53125 C 266.375 113.53125 268.523438 115.675781 268.523438 118.339844 L 268.523438 123.867188 C 268.523438 126.53125 266.375 128.675781 263.710938 128.675781 L 248.761719 128.675781 C 248.371094 128.675781 248.046875 129 248.046875 129.390625 L 248.046875 129.457031 C 248.046875 131.210938 247.136719 132.769531 245.640625 133.617188 C 244.925781 134.136719 244.082031 134.332031 243.238281 134.332031 Z M 243.238281 112.035156 C 243.105469 112.035156 242.976562 112.101562 242.847656 112.164062 L 228.285156 120.550781 C 228.027344 120.679688 227.898438 120.875 227.898438 121.199219 C 227.898438 121.523438 228.027344 121.71875 228.285156 121.851562 L 242.847656 130.234375 C 243.105469 130.367188 243.367188 130.367188 243.5625 130.234375 C 243.820312 130.105469 243.953125 129.910156 243.953125 129.585938 L 243.953125 129.519531 C 243.953125 126.855469 246.097656 124.710938 248.761719 124.710938 L 263.710938 124.710938 C 264.101562 124.710938 264.425781 124.386719 264.425781 123.996094 L 264.425781 118.40625 C 264.425781 118.015625 264.101562 117.691406 263.710938 117.691406 L 248.761719 117.691406 C 246.097656 117.691406 243.953125 115.546875 243.953125 112.878906 L 243.953125 112.75 C 243.953125 112.425781 243.820312 112.230469 243.5625 112.101562 C 243.496094 112.035156 243.367188 112.035156 243.238281 112.035156 Z M 243.238281 112.035156 " fill-opacity="1" fill-rule="nonzero"/><g clip-path="url(#00a6f52a1a)"><path fill="#ffffff" d="M 187.46875 346.75 C 165.953125 346.75 145.085938 342.523438 125.457031 334.203125 C 106.476562 326.207031 89.449219 314.703125 74.824219 300.078125 C 60.199219 285.453125 48.695312 268.425781 40.699219 249.445312 C 32.445312 229.878906 28.21875 209.015625 28.21875 187.5 C 28.21875 165.984375 32.445312 145.121094 40.761719 125.492188 C 48.757812 106.511719 60.261719 89.480469 74.886719 74.855469 C 89.511719 60.230469 106.542969 48.726562 125.523438 40.730469 C 145.085938 32.476562 165.953125 28.25 187.46875 28.25 C 208.980469 28.25 229.847656 32.476562 249.476562 40.796875 C 268.457031 48.789062 285.488281 60.296875 300.113281 74.921875 C 314.734375 89.546875 326.242188 106.574219 334.234375 125.554688 C 342.554688 145.183594 346.78125 166.050781 346.78125 187.566406 C 346.78125 209.078125 342.554688 229.945312 334.234375 249.574219 C 326.242188 268.554688 314.734375 285.585938 300.113281 300.207031 C 285.488281 314.832031 268.457031 326.339844 249.476562 334.332031 C 229.78125 342.523438 208.917969 346.75 187.46875 346.75 Z M 187.46875 32.410156 C 101.992188 32.410156 32.378906 102.027344 32.378906 187.5 C 32.378906 272.972656 101.929688 342.523438 187.46875 342.523438 C 273.007812 342.523438 342.492188 272.972656 342.492188 187.5 C 342.492188 102.027344 272.875 32.410156 187.46875 32.410156 Z M 187.46875 32.410156 " fill-opacity="1" fill-rule="nonzero"/></g></svg>