<svg xmlns="http://www.w3.org/2000/svg" xmlns:xlink="http://www.w3.org/1999/xlink" width="60" zoomAndPan="magnify" viewBox="0 0 375 374.999991" height="60" preserveAspectRatio="xMidYMid meet" version="1.0"><defs><clipPath id="e58b9d0726"><path d="M 81 20 L 283 20 L 283 357.472656 L 81 357.472656 Z M 81 20 " clip-rule="nonzero"/></clipPath></defs><g clip-path="url(#e58b9d0726)"><path fill="#ffffff" d="M 249.6875 357.265625 L 114.1875 357.265625 C 96.410156 357.265625 81.992188 342.648438 81.992188 324.871094 L 81.992188 52.292969 C 81.992188 34.515625 96.410156 20.097656 114.1875 20.097656 L 249.6875 20.097656 C 267.464844 20.097656 282.082031 34.515625 282.082031 52.292969 L 282.082031 183.050781 C 282.082031 188.1875 274.179688 188.1875 274.179688 183.050781 L 274.179688 52.292969 C 274.179688 38.863281 263.117188 28 249.6875 28 L 114.1875 28 C 100.757812 28 89.894531 38.863281 89.894531 52.292969 L 89.894531 324.871094 C 89.894531 338.304688 100.757812 349.363281 114.1875 349.363281 L 249.6875 349.363281 C 263.117188 349.363281 274.179688 338.304688 274.179688 324.871094 L 274.179688 248.035156 C 274.179688 242.902344 282.082031 242.902344 282.082031 248.035156 L 282.082031 324.871094 C 282.082031 342.648438 267.464844 357.265625 249.6875 357.265625 Z M 249.6875 357.265625 " fill-opacity="1" fill-rule="evenodd"/></g><path fill="#ffffff" d="M 278.128906 70.664062 L 85.941406 70.664062 C 80.609375 70.664062 80.609375 62.761719 85.941406 62.761719 L 278.128906 62.761719 C 283.265625 62.761719 283.265625 70.664062 278.128906 70.664062 Z M 278.128906 70.664062 " fill-opacity="1" fill-rule="evenodd"/><path fill="#ffffff" d="M 278.128906 314.601562 L 85.941406 314.601562 C 80.609375 314.601562 80.609375 306.699219 85.941406 306.699219 L 278.128906 306.699219 C 283.265625 306.699219 283.265625 314.601562 278.128906 314.601562 Z M 278.128906 314.601562 " fill-opacity="1" fill-rule="evenodd"/><path fill="#ffffff" d="M 217.097656 50.910156 L 146.777344 50.910156 C 145.199219 50.910156 143.816406 49.921875 143.222656 48.539062 L 133.742188 25.628906 C 131.765625 20.691406 139.074219 17.726562 141.050781 22.46875 L 149.347656 43.011719 L 214.527344 43.011719 L 222.824219 22.46875 C 224.800781 17.726562 232.109375 20.691406 230.132812 25.628906 L 220.847656 48.539062 C 220.257812 49.921875 218.675781 50.910156 217.097656 50.910156 Z M 217.097656 50.910156 " fill-opacity="1" fill-rule="evenodd"/><path fill="#ffffff" d="M 213.34375 335.933594 L 150.730469 335.933594 C 145.394531 335.933594 145.394531 328.03125 150.730469 328.03125 L 213.34375 328.03125 C 218.480469 328.03125 218.480469 335.933594 213.34375 335.933594 Z M 213.34375 335.933594 " fill-opacity="1" fill-rule="evenodd"/><path fill="#ffffff" d="M 106.089844 153.027344 C 103.917969 153.027344 102.140625 151.25 102.140625 149.078125 L 102.140625 108.390625 C 102.140625 103.253906 110.039062 103.253906 110.039062 108.390625 L 110.039062 149.078125 C 110.039062 151.25 108.261719 153.027344 106.089844 153.027344 Z M 106.089844 153.027344 " fill-opacity="1" fill-rule="evenodd"/><path fill="#ffffff" d="M 157.246094 153.027344 C 134.335938 153.027344 134.335938 104.636719 157.246094 104.636719 C 179.960938 104.636719 179.960938 153.027344 157.246094 153.027344 Z M 157.246094 112.539062 C 152.703125 112.539062 147.765625 119.253906 147.765625 128.734375 C 147.765625 138.414062 152.703125 145.128906 157.246094 145.128906 C 161.59375 145.128906 166.53125 138.414062 166.53125 128.734375 C 166.53125 119.253906 161.59375 112.539062 157.246094 112.539062 Z M 157.246094 112.539062 " fill-opacity="1" fill-rule="evenodd"/><path fill="#ffffff" d="M 193.988281 153.027344 C 180.359375 153.027344 175.617188 135.054688 183.714844 135.054688 C 190.234375 135.054688 185.097656 145.128906 193.988281 145.128906 C 197.34375 145.128906 200.109375 142.363281 200.109375 139.003906 C 200.109375 128.140625 179.765625 137.226562 179.765625 118.660156 C 179.765625 100.09375 208.011719 100.09375 208.011719 118.660156 C 208.011719 123.796875 200.109375 123.796875 200.109375 118.660156 C 200.109375 110.5625 187.664062 110.5625 187.664062 118.660156 C 187.664062 129.523438 208.011719 120.4375 208.011719 139.003906 C 208.011719 146.707031 201.691406 153.027344 193.988281 153.027344 Z M 193.988281 153.027344 " fill-opacity="1" fill-rule="evenodd"/><path fill="#ffffff" d="M 237.636719 153.027344 C 235.464844 153.027344 233.6875 151.25 233.6875 149.078125 L 233.6875 108.785156 C 233.6875 103.648438 241.589844 103.648438 241.589844 108.785156 L 241.589844 149.078125 C 241.589844 151.25 239.8125 153.027344 237.636719 153.027344 Z M 237.636719 153.027344 " fill-opacity="1" fill-rule="evenodd"/><path fill="#ffffff" d="M 257.785156 112.734375 L 217.292969 112.734375 C 212.160156 112.734375 212.160156 104.832031 217.292969 104.832031 L 257.785156 104.832031 C 263.117188 104.832031 263.117188 112.734375 257.785156 112.734375 Z M 257.785156 112.734375 " fill-opacity="1" fill-rule="evenodd"/><path fill="#ffffff" d="M 118.929688 137.03125 C 110.632812 137.03125 102.140625 138.609375 102.140625 133.078125 L 102.140625 108.390625 C 102.140625 102.859375 110.632812 104.4375 118.929688 104.4375 C 140.261719 104.4375 140.261719 137.03125 118.929688 137.03125 Z M 110.039062 129.128906 C 116.164062 129.128906 127.222656 130.710938 127.222656 120.636719 C 127.222656 110.757812 116.164062 112.339844 110.039062 112.339844 Z M 110.039062 129.128906 " fill-opacity="1" fill-rule="evenodd"/><path fill="#ffffff" d="M 302.226562 272.726562 C 298.871094 272.726562 295.90625 271.542969 293.734375 269.367188 L 261.539062 237.171875 L 251.859375 253.171875 C 246.527344 261.664062 239.417969 261.46875 236.652344 252.382812 L 210.972656 169.027344 C 208.996094 162.511719 211.960938 158.558594 219.269531 160.929688 L 302.621094 186.410156 C 311.90625 189.371094 311.707031 196.484375 303.214844 201.617188 L 289.585938 209.914062 L 321.191406 241.714844 C 325.929688 246.457031 325.929688 254.160156 321.191406 258.898438 C 314.671875 265.417969 309.339844 272.726562 302.226562 272.726562 Z M 260.75 226.902344 C 261.734375 226.902344 262.722656 227.296875 263.511719 228.085938 L 299.265625 263.640625 C 300.84375 265.21875 303.609375 265.21875 305.191406 263.640625 L 315.660156 253.171875 C 317.238281 251.589844 317.238281 249.023438 315.660156 247.246094 L 280.304688 212.085938 C 278.523438 210.308594 278.921875 207.148438 281.09375 205.964844 L 300.449219 194.113281 C 300.253906 193.914062 300.253906 193.914062 300.253906 193.914062 L 219.269531 169.027344 L 244.15625 250.011719 C 244.15625 250.011719 244.15625 250.207031 244.15625 250.207031 L 257.390625 228.679688 Z M 260.75 226.902344 " fill-opacity="1" fill-rule="evenodd"/></svg>