<svg xmlns="http://www.w3.org/2000/svg" xmlns:xlink="http://www.w3.org/1999/xlink" width="60" zoomAndPan="magnify" viewBox="0 0 375 374.999991" height="60" preserveAspectRatio="xMidYMid meet" version="1.0"><defs><clipPath id="83a1f5cc63"><path d="M 75 22.222656 L 300 22.222656 L 300 352.972656 L 75 352.972656 Z M 75 22.222656 " clip-rule="nonzero"/></clipPath></defs><g clip-path="url(#83a1f5cc63)"><path fill="#ffffff" d="M 297.277344 95.207031 C 295.113281 92.304688 291.808594 90.652344 288.160156 90.652344 L 86.832031 90.652344 C 83.242188 90.652344 79.882812 92.304688 77.71875 95.207031 C 75.554688 98.113281 74.871094 101.757812 75.894531 105.234375 L 85.808594 139.417969 C 87.230469 144.257812 91.730469 147.621094 96.746094 147.621094 L 278.304688 147.621094 C 283.320312 147.621094 287.820312 144.257812 289.242188 139.417969 L 299.15625 105.234375 C 300.183594 101.757812 299.5 98.113281 297.332031 95.207031 Z M 278.25 136.226562 L 96.6875 136.226562 L 86.777344 102.042969 L 288.105469 102.042969 L 278.191406 136.226562 Z M 271.070312 159.011719 L 103.921875 159.011719 C 100.335938 159.011719 96.972656 160.664062 94.808594 163.570312 C 92.644531 166.476562 91.960938 170.121094 92.984375 173.597656 L 102.898438 207.777344 C 104.324219 212.621094 108.824219 215.984375 113.835938 215.984375 L 261.214844 215.984375 C 266.226562 215.984375 270.730469 212.621094 272.152344 207.777344 L 282.066406 173.597656 C 283.089844 170.121094 282.40625 166.476562 280.242188 163.570312 C 278.078125 160.664062 274.773438 159.011719 271.128906 159.011719 Z M 261.160156 204.589844 L 113.777344 204.589844 L 103.867188 170.40625 L 271.015625 170.40625 L 261.101562 204.589844 Z M 253.980469 227.375 L 121.015625 227.375 C 117.425781 227.375 114.0625 229.027344 111.898438 231.933594 C 109.734375 234.839844 109.050781 238.484375 110.078125 241.960938 L 119.988281 276.140625 C 121.414062 280.984375 125.914062 284.34375 130.925781 284.34375 L 244.125 284.34375 C 249.136719 284.34375 253.636719 280.984375 255.0625 276.140625 L 264.976562 241.960938 C 266 238.484375 265.316406 234.839844 263.152344 231.933594 C 260.988281 229.027344 257.683594 227.375 254.039062 227.375 Z M 244.066406 272.953125 L 130.871094 272.953125 L 120.957031 238.769531 L 253.921875 238.769531 L 244.011719 272.953125 Z M 166.363281 60.515625 C 164.140625 58.292969 164.140625 54.703125 166.363281 52.480469 C 168.582031 50.257812 172.171875 50.257812 174.394531 52.480469 L 181.742188 59.832031 L 181.742188 27.984375 C 181.742188 24.851562 184.308594 22.289062 187.441406 22.289062 C 190.574219 22.289062 193.136719 24.851562 193.136719 27.984375 L 193.136719 59.832031 L 200.484375 52.480469 C 202.707031 50.257812 206.296875 50.257812 208.519531 52.480469 C 210.742188 54.703125 210.742188 58.292969 208.519531 60.515625 L 191.429688 77.605469 C 190.289062 78.746094 188.863281 79.257812 187.382812 79.257812 C 185.902344 79.257812 184.476562 78.6875 183.339844 77.605469 L 166.246094 60.515625 Z M 208.574219 325.933594 C 210.796875 328.15625 210.796875 331.742188 208.574219 333.964844 L 191.484375 351.054688 C 190.34375 352.195312 188.921875 352.707031 187.441406 352.707031 C 185.960938 352.707031 184.535156 352.140625 183.394531 351.054688 L 166.304688 333.964844 C 164.082031 331.742188 164.082031 328.15625 166.304688 325.933594 C 168.527344 323.710938 172.117188 323.710938 174.335938 325.933594 L 181.6875 333.28125 L 181.6875 301.4375 C 181.6875 298.304688 184.25 295.738281 187.382812 295.738281 C 190.515625 295.738281 193.082031 298.304688 193.082031 301.4375 L 193.082031 333.28125 L 200.429688 325.933594 C 202.652344 323.710938 206.238281 323.710938 208.460938 325.933594 Z M 240.421875 60.515625 C 238.199219 58.292969 238.199219 54.703125 240.421875 52.480469 C 242.644531 50.257812 246.230469 50.257812 248.453125 52.480469 L 255.804688 59.832031 L 255.804688 27.984375 C 255.804688 24.851562 258.367188 22.289062 261.5 22.289062 C 264.632812 22.289062 267.195312 24.851562 267.195312 27.984375 L 267.195312 59.832031 L 274.546875 52.480469 C 276.769531 50.257812 280.355469 50.257812 282.578125 52.480469 C 284.800781 54.703125 284.800781 58.292969 282.578125 60.515625 L 265.488281 77.605469 C 264.347656 78.746094 262.925781 79.257812 261.441406 79.257812 C 259.960938 79.257812 258.539062 78.6875 257.398438 77.605469 L 240.308594 60.515625 Z M 92.300781 60.515625 C 90.078125 58.292969 90.078125 54.703125 92.300781 52.480469 C 94.523438 50.257812 98.113281 50.257812 100.335938 52.480469 L 107.683594 59.832031 L 107.683594 27.984375 C 107.683594 24.851562 110.246094 22.289062 113.378906 22.289062 C 116.515625 22.289062 119.078125 24.851562 119.078125 27.984375 L 119.078125 59.832031 L 126.425781 52.480469 C 128.648438 50.257812 132.238281 50.257812 134.457031 52.480469 C 136.679688 54.703125 136.679688 58.292969 134.457031 60.515625 L 117.367188 77.605469 C 116.230469 78.746094 114.804688 79.257812 113.324219 79.257812 C 111.84375 79.257812 110.417969 78.6875 109.277344 77.605469 L 92.1875 60.515625 Z M 92.300781 60.515625 " fill-opacity="1" fill-rule="nonzero"/></g></svg>