<svg xmlns="http://www.w3.org/2000/svg" xmlns:xlink="http://www.w3.org/1999/xlink" width="60" zoomAndPan="magnify" viewBox="0 0 375 374.999991" height="60" preserveAspectRatio="xMidYMid meet" version="1.0"><defs><clipPath id="ed2d67b697"><path d="M 20.777344 20.777344 L 354.527344 20.777344 L 354.527344 354.527344 L 20.777344 354.527344 Z M 20.777344 20.777344 " clip-rule="nonzero"/></clipPath></defs><g clip-path="url(#ed2d67b697)"><path fill="#ffffff" d="M 343.109375 331.992188 C 343.109375 338.113281 338.113281 343.109375 331.992188 343.109375 L 231.960938 343.109375 C 225.835938 343.109375 220.84375 338.113281 220.84375 331.992188 L 220.84375 231.960938 C 220.84375 225.835938 225.835938 220.84375 231.960938 220.84375 L 331.992188 220.84375 C 338.113281 220.84375 343.109375 225.835938 343.109375 231.960938 Z M 159.410156 236.910156 C 159.214844 237.191406 158.867188 237.515625 158.257812 237.515625 L 138.871094 237.515625 L 137.765625 215.285156 L 154.414062 215.285156 C 155 222.492188 156.671875 229.289062 159.496094 235.476562 C 159.800781 236.148438 159.5625 236.648438 159.410156 236.910156 Z M 129.820312 313.582031 C 128.757812 314.710938 127.324219 315.320312 125.804688 315.320312 L 112.820312 315.320312 C 110.261719 315.320312 108.046875 313.582031 107.417969 311.109375 L 83.472656 215.285156 L 126.628906 215.285156 L 131.339844 309.480469 C 131.425781 311.023438 130.882812 312.476562 129.820312 313.582031 Z M 65.238281 193.058594 L 65.238281 104.136719 C 65.238281 98.015625 70.230469 93.023438 76.351562 93.023438 L 154.15625 93.023438 L 154.15625 204.171875 L 76.351562 204.171875 C 70.230469 204.171875 65.238281 199.179688 65.238281 193.058594 Z M 31.890625 176.386719 L 31.890625 120.8125 C 31.890625 114.6875 36.886719 109.695312 43.007812 109.695312 L 54.121094 109.695312 L 54.121094 187.5 L 43.007812 187.5 C 36.886719 187.5 31.890625 182.507812 31.890625 176.386719 Z M 210.769531 225.578125 L 165.269531 206.0625 L 165.269531 91.070312 L 265.304688 46.046875 L 265.304688 209.730469 L 231.960938 209.730469 C 221.929688 209.730469 213.527344 216.460938 210.769531 225.578125 Z M 281.976562 31.890625 L 293.089844 31.890625 C 296.152344 31.890625 298.648438 34.386719 298.648438 37.449219 L 298.648438 209.730469 L 276.417969 209.730469 L 276.417969 37.449219 C 276.417969 34.386719 278.914062 31.890625 281.976562 31.890625 Z M 326.433594 148.597656 C 326.433594 163.792969 319.226562 176.972656 309.761719 180.792969 L 309.761719 116.402344 C 319.226562 120.222656 326.433594 133.402344 326.433594 148.597656 Z M 331.992188 209.730469 L 309.761719 209.730469 L 309.761719 192.382812 C 325.5 188.84375 337.550781 170.589844 337.550781 148.597656 C 337.550781 126.605469 325.5 108.351562 309.761719 104.8125 L 309.761719 37.449219 C 309.761719 28.246094 302.296875 20.777344 293.089844 20.777344 L 281.976562 20.777344 C 274.09375 20.777344 267.519531 26.289062 265.78125 33.648438 L 158.519531 81.910156 L 76.351562 81.910156 C 66.019531 81.910156 57.398438 89.027344 54.902344 98.582031 L 43.007812 98.582031 C 30.742188 98.582031 20.777344 108.546875 20.777344 120.8125 L 20.777344 176.386719 C 20.777344 188.648438 30.742188 198.613281 43.007812 198.613281 L 54.902344 198.613281 C 57.03125 206.777344 63.585938 213.136719 71.902344 214.832031 L 96.648438 313.824219 C 98.492188 321.246094 105.160156 326.433594 112.820312 326.433594 L 125.804688 326.433594 C 130.339844 326.433594 134.746094 324.546875 137.875 321.246094 C 141.066406 317.902344 142.671875 313.539062 142.453125 308.9375 L 139.4375 248.632812 L 158.257812 248.632812 C 162.535156 248.632812 166.441406 246.503906 168.742188 242.921875 C 171.066406 239.339844 171.390625 234.824219 169.613281 230.875 C 167.851562 227.03125 166.703125 222.863281 166.007812 218.476562 L 209.730469 237.234375 L 209.730469 331.992188 C 209.730469 344.257812 219.695312 354.222656 231.960938 354.222656 L 331.992188 354.222656 C 344.257812 354.222656 354.222656 344.257812 354.222656 331.992188 L 354.222656 231.960938 C 354.222656 219.695312 344.257812 209.730469 331.992188 209.730469 " fill-opacity="1" fill-rule="nonzero"/></g><path fill="#ffffff" d="M 326.433594 320.878906 L 315.320312 320.878906 L 315.320312 267.605469 L 316.949219 269.234375 C 318.035156 270.316406 319.445312 270.859375 320.878906 270.859375 C 322.3125 270.859375 323.722656 270.316406 324.808594 269.234375 C 326.976562 267.0625 326.976562 263.546875 324.808594 261.375 L 313.691406 250.257812 C 311.519531 248.089844 308.003906 248.089844 305.832031 250.257812 L 294.71875 261.375 C 292.546875 263.546875 292.546875 267.0625 294.71875 269.234375 C 296.890625 271.402344 300.40625 271.402344 302.578125 269.234375 L 304.207031 267.605469 L 304.207031 320.878906 L 293.089844 320.878906 L 293.089844 287.535156 C 293.089844 284.472656 290.59375 281.976562 287.535156 281.976562 C 284.472656 281.976562 281.976562 284.472656 281.976562 287.535156 L 281.976562 320.878906 L 270.859375 320.878906 L 270.859375 298.648438 C 270.859375 295.585938 268.363281 293.089844 265.304688 293.089844 C 262.242188 293.089844 259.746094 295.585938 259.746094 298.648438 L 259.746094 320.878906 L 243.074219 320.878906 L 243.074219 237.515625 C 243.074219 234.457031 240.578125 231.960938 237.515625 231.960938 C 234.457031 231.960938 231.960938 234.457031 231.960938 237.515625 L 231.960938 326.433594 C 231.960938 329.496094 234.457031 331.992188 237.515625 331.992188 L 326.433594 331.992188 C 329.496094 331.992188 331.992188 329.496094 331.992188 326.433594 C 331.992188 323.375 329.496094 320.878906 326.433594 320.878906 " fill-opacity="1" fill-rule="nonzero"/></svg>