<svg xmlns="http://www.w3.org/2000/svg" xmlns:xlink="http://www.w3.org/1999/xlink" width="60" zoomAndPan="magnify" viewBox="0 0 375 374.999991" height="60" preserveAspectRatio="xMidYMid meet" version="1.0"><defs><clipPath id="da9da0f0eb"><path d="M 251 46.917969 L 354.386719 46.917969 L 354.386719 123 L 251 123 Z M 251 46.917969 " clip-rule="nonzero"/></clipPath><clipPath id="cbb2b3e429"><path d="M 251 252 L 354.386719 252 L 354.386719 328 L 251 328 Z M 251 252 " clip-rule="nonzero"/></clipPath><clipPath id="294f922b35"><path d="M 20.636719 46.917969 L 124 46.917969 L 124 123 L 20.636719 123 Z M 20.636719 46.917969 " clip-rule="nonzero"/></clipPath><clipPath id="e04b3b74bd"><path d="M 20.636719 252 L 124 252 L 124 328 L 20.636719 328 Z M 20.636719 252 " clip-rule="nonzero"/></clipPath></defs><path fill="#ffffff" d="M 187.496094 167.921875 C 198.269531 167.921875 207.035156 176.6875 207.035156 187.460938 C 207.035156 189.710938 208.855469 191.53125 211.105469 191.53125 C 213.351562 191.53125 215.175781 189.710938 215.175781 187.460938 C 215.175781 172.199219 202.757812 159.78125 187.496094 159.78125 C 172.230469 159.78125 159.8125 172.199219 159.8125 187.460938 C 159.8125 202.722656 172.230469 215.140625 187.496094 215.140625 C 192.96875 215.140625 198.261719 213.546875 202.800781 210.527344 C 204.675781 209.28125 205.183594 206.753906 203.9375 204.882812 C 202.691406 203.011719 200.167969 202.503906 198.296875 203.75 C 195.09375 205.875 191.359375 207 187.496094 207 C 176.71875 207 167.953125 198.234375 167.953125 187.460938 C 167.953125 176.6875 176.71875 167.921875 187.496094 167.921875 Z M 187.496094 167.921875 " fill-opacity="1" fill-rule="nonzero"/><path fill="#ffffff" d="M 243.097656 202.792969 L 236.761719 198.222656 C 237.535156 194.679688 237.925781 191.074219 237.925781 187.460938 C 237.925781 183.851562 237.535156 180.242188 236.761719 176.703125 L 243.09375 172.132812 C 245.96875 170.058594 246.800781 166.175781 245.027344 163.105469 L 237.355469 149.8125 C 235.582031 146.742188 231.808594 145.523438 228.574219 146.976562 L 221.441406 150.175781 C 216.058594 145.273438 209.703125 141.597656 202.808594 139.398438 L 202.019531 131.644531 C 201.660156 128.117188 198.714844 125.457031 195.167969 125.457031 L 179.820312 125.457031 C 176.273438 125.457031 173.328125 128.117188 172.972656 131.644531 L 172.179688 139.398438 C 165.285156 141.597656 158.929688 145.273438 153.546875 150.175781 L 146.414062 146.976562 C 143.179688 145.523438 139.40625 146.742188 137.632812 149.8125 L 129.960938 163.105469 C 128.1875 166.175781 129.019531 170.054688 131.890625 172.128906 L 140.453125 178.3125 C 142.277344 179.625 144.820312 179.214844 146.136719 177.394531 C 147.453125 175.570312 147.039062 173.027344 145.21875 171.710938 L 137.574219 166.195312 L 144.117188 154.863281 L 152.722656 158.730469 C 154.277344 159.425781 156.101562 159.082031 157.296875 157.863281 C 162.71875 152.332031 169.519531 148.398438 176.960938 146.492188 C 178.613281 146.070312 179.824219 144.660156 179.996094 142.960938 L 180.953125 133.597656 L 194.035156 133.597656 L 194.992188 142.960938 C 195.164062 144.660156 196.375 146.066406 198.027344 146.492188 C 205.46875 148.398438 212.269531 152.332031 217.691406 157.863281 C 218.882812 159.082031 220.710938 159.425781 222.265625 158.730469 L 230.871094 154.863281 L 237.414062 166.195312 L 229.769531 171.710938 C 228.386719 172.707031 227.773438 174.460938 228.230469 176.101562 C 229.261719 179.816406 229.785156 183.636719 229.785156 187.460938 C 229.785156 191.285156 229.261719 195.109375 228.230469 198.820312 C 227.773438 200.460938 228.386719 202.214844 229.769531 203.210938 L 237.414062 208.730469 L 230.871094 220.058594 L 222.265625 216.195312 C 220.707031 215.496094 218.882812 215.84375 217.691406 217.058594 C 212.269531 222.589844 205.46875 226.523438 198.027344 228.429688 C 196.375 228.855469 195.164062 230.265625 194.992188 231.960938 L 194.035156 241.328125 L 180.953125 241.328125 L 179.996094 231.960938 C 179.824219 230.265625 178.613281 228.855469 176.960938 228.429688 C 169.519531 226.523438 162.71875 222.59375 157.296875 217.058594 C 156.101562 215.84375 154.277344 215.496094 152.722656 216.195312 L 144.117188 220.058594 L 137.574219 208.730469 L 145.21875 203.210938 C 147.039062 201.898438 147.453125 199.351562 146.136719 197.53125 C 144.820312 195.707031 142.277344 195.296875 140.453125 196.613281 L 131.890625 202.792969 C 129.019531 204.867188 128.1875 208.746094 129.960938 211.816406 L 137.632812 225.109375 C 139.40625 228.179688 143.183594 229.402344 146.417969 227.949219 L 153.546875 224.746094 C 158.929688 229.648438 165.285156 233.328125 172.179688 235.523438 L 172.972656 243.28125 C 173.328125 246.804688 176.273438 249.464844 179.820312 249.464844 L 195.167969 249.464844 C 198.714844 249.464844 201.660156 246.804688 202.019531 243.28125 L 202.808594 235.523438 C 209.703125 233.328125 216.058594 229.648438 221.441406 224.746094 L 228.574219 227.949219 C 231.808594 229.402344 235.582031 228.179688 237.355469 225.109375 L 245.027344 211.816406 C 246.800781 208.746094 245.96875 204.867188 243.097656 202.792969 Z M 243.097656 202.792969 " fill-opacity="1" fill-rule="nonzero"/><g clip-path="url(#da9da0f0eb)"><path fill="#ffffff" d="M 339.300781 46.960938 L 266.429688 46.960938 C 258.128906 46.960938 251.378906 53.710938 251.378906 62.011719 L 251.378906 75 C 251.378906 77.25 253.199219 79.070312 255.449219 79.070312 C 257.695312 79.070312 259.515625 77.25 259.515625 75 L 259.515625 62.011719 C 259.515625 58.199219 262.617188 55.101562 266.429688 55.101562 L 339.300781 55.101562 C 343.113281 55.101562 346.210938 58.199219 346.210938 62.011719 L 346.210938 107.5 C 346.210938 111.3125 343.113281 114.410156 339.300781 114.410156 L 333.460938 114.410156 L 330.730469 102.640625 C 329.203125 96.070312 323.351562 91.421875 316.609375 91.421875 L 289.121094 91.421875 C 282.378906 91.421875 276.523438 96.070312 275 102.640625 L 272.269531 114.410156 L 266.429688 114.410156 C 262.617188 114.410156 259.515625 111.3125 259.515625 107.5 L 259.515625 96.042969 C 259.515625 93.796875 257.695312 91.972656 255.449219 91.972656 C 253.199219 91.972656 251.378906 93.796875 251.378906 96.042969 L 251.378906 107.5 C 251.378906 115.800781 258.128906 122.550781 266.429688 122.550781 L 339.300781 122.550781 C 347.601562 122.550781 354.351562 115.800781 354.351562 107.5 L 354.351562 62.011719 C 354.351562 53.710938 347.601562 46.960938 339.300781 46.960938 Z M 339.300781 46.960938 " fill-opacity="1" fill-rule="nonzero"/></g><g clip-path="url(#cbb2b3e429)"><path fill="#ffffff" d="M 339.300781 252.375 L 266.429688 252.375 C 258.128906 252.375 251.378906 259.125 251.378906 267.421875 L 251.378906 312.914062 C 251.378906 321.210938 258.128906 327.960938 266.429688 327.960938 L 339.300781 327.960938 C 347.601562 327.960938 354.351562 321.210938 354.351562 312.914062 L 354.351562 267.421875 C 354.351562 259.125 347.601562 252.375 339.300781 252.375 Z M 346.210938 312.914062 C 346.210938 316.722656 343.113281 319.824219 339.300781 319.824219 L 333.460938 319.824219 L 330.730469 308.050781 C 329.203125 301.480469 323.351562 296.832031 316.609375 296.832031 L 289.121094 296.832031 C 282.378906 296.832031 276.523438 301.480469 275 308.050781 L 272.269531 319.824219 L 266.429688 319.824219 C 262.617188 319.824219 259.515625 316.722656 259.515625 312.914062 L 259.515625 267.421875 C 259.515625 263.613281 262.617188 260.511719 266.429688 260.511719 L 339.300781 260.511719 C 343.113281 260.511719 346.210938 263.613281 346.210938 267.421875 Z M 346.210938 312.914062 " fill-opacity="1" fill-rule="nonzero"/></g><g clip-path="url(#294f922b35)"><path fill="#ffffff" d="M 108.558594 46.960938 L 35.6875 46.960938 C 27.386719 46.960938 20.636719 53.710938 20.636719 62.011719 L 20.636719 107.5 C 20.636719 115.800781 27.386719 122.550781 35.6875 122.550781 L 108.558594 122.550781 C 116.859375 122.550781 123.609375 115.800781 123.609375 107.5 L 123.609375 62.011719 C 123.609375 53.710938 116.859375 46.960938 108.558594 46.960938 Z M 115.472656 107.5 C 115.472656 111.3125 112.371094 114.410156 108.558594 114.410156 L 102.71875 114.410156 L 99.988281 102.640625 C 98.464844 96.070312 92.609375 91.421875 85.867188 91.421875 L 58.378906 91.421875 C 51.636719 91.421875 45.785156 96.070312 44.257812 102.640625 L 41.527344 114.410156 L 35.6875 114.410156 C 31.875 114.410156 28.777344 111.3125 28.777344 107.5 L 28.777344 62.011719 C 28.777344 58.199219 31.875 55.101562 35.6875 55.101562 L 108.558594 55.101562 C 112.371094 55.101562 115.472656 58.199219 115.472656 62.011719 Z M 115.472656 107.5 " fill-opacity="1" fill-rule="nonzero"/></g><g clip-path="url(#e04b3b74bd)"><path fill="#ffffff" d="M 108.558594 252.375 L 92.835938 252.375 C 90.589844 252.375 88.765625 254.195312 88.765625 256.441406 C 88.765625 258.691406 90.589844 260.511719 92.835938 260.511719 L 108.558594 260.511719 C 112.371094 260.511719 115.472656 263.613281 115.472656 267.421875 L 115.472656 312.914062 C 115.472656 316.722656 112.371094 319.824219 108.558594 319.824219 L 102.71875 319.824219 L 99.988281 308.050781 C 98.464844 301.480469 92.609375 296.832031 85.867188 296.832031 L 58.378906 296.832031 C 51.636719 296.832031 45.785156 301.480469 44.257812 308.050781 L 41.527344 319.824219 L 35.6875 319.824219 C 31.875 319.824219 28.777344 316.722656 28.777344 312.914062 L 28.777344 267.421875 C 28.777344 263.613281 31.875 260.511719 35.6875 260.511719 L 72.125 260.511719 C 74.371094 260.511719 76.195312 258.691406 76.195312 256.441406 C 76.195312 254.195312 74.371094 252.375 72.125 252.375 L 35.6875 252.375 C 27.386719 252.375 20.636719 259.125 20.636719 267.421875 L 20.636719 312.914062 C 20.636719 321.210938 27.386719 327.960938 35.6875 327.960938 L 108.558594 327.960938 C 116.859375 327.960938 123.609375 321.210938 123.609375 312.914062 L 123.609375 267.421875 C 123.609375 259.125 116.859375 252.375 108.558594 252.375 Z M 108.558594 252.375 " fill-opacity="1" fill-rule="nonzero"/></g><path fill="#ffffff" d="M 232.316406 289.769531 C 217.332031 296.105469 201.410156 299.320312 184.996094 299.320312 C 173.914062 299.320312 162.996094 297.835938 152.445312 294.910156 L 157.386719 290.601562 C 159.078125 289.125 159.253906 286.554688 157.777344 284.859375 C 156.300781 283.167969 153.730469 282.992188 152.035156 284.46875 L 141.59375 293.570312 C 141.585938 293.578125 141.578125 293.589844 141.570312 293.597656 C 141.433594 293.71875 141.304688 293.847656 141.179688 293.992188 C 141.160156 294.011719 141.144531 294.039062 141.125 294.0625 C 141.019531 294.1875 140.921875 294.324219 140.832031 294.464844 C 140.820312 294.488281 140.804688 294.507812 140.789062 294.527344 C 140.699219 294.679688 140.617188 294.839844 140.542969 295.007812 C 140.527344 295.042969 140.515625 295.082031 140.5 295.117188 C 140.472656 295.1875 140.441406 295.253906 140.417969 295.324219 C 140.390625 295.394531 140.375 295.472656 140.351562 295.546875 C 140.34375 295.578125 140.332031 295.613281 140.324219 295.648438 C 140.277344 295.828125 140.246094 296.007812 140.226562 296.1875 C 140.222656 296.207031 140.222656 296.222656 140.21875 296.242188 C 140.203125 296.417969 140.199219 296.589844 140.203125 296.765625 C 140.203125 296.785156 140.203125 296.808594 140.203125 296.832031 C 140.214844 297.019531 140.234375 297.210938 140.269531 297.394531 C 140.273438 297.414062 140.277344 297.429688 140.28125 297.449219 C 140.320312 297.632812 140.367188 297.8125 140.429688 297.988281 C 140.433594 297.996094 140.433594 298.003906 140.4375 298.011719 L 140.449219 298.042969 C 140.453125 298.058594 140.457031 298.070312 140.464844 298.085938 L 146.050781 313.679688 C 146.644531 315.34375 148.210938 316.378906 149.882812 316.378906 C 150.335938 316.378906 150.800781 316.300781 151.253906 316.140625 C 153.371094 315.382812 154.472656 313.050781 153.714844 310.9375 L 150.839844 302.910156 C 161.921875 305.929688 173.378906 307.460938 184.996094 307.460938 C 202.507812 307.460938 219.496094 304.03125 235.488281 297.265625 C 237.558594 296.390625 238.527344 294 237.652344 291.929688 C 236.773438 289.859375 234.386719 288.890625 232.316406 289.769531 Z M 232.316406 289.769531 " fill-opacity="1" fill-rule="nonzero"/><path fill="#ffffff" d="M 84.355469 157.351562 C 85.160156 158.277344 86.289062 158.746094 87.421875 158.746094 C 88.371094 158.746094 89.324219 158.417969 90.097656 157.746094 C 91.789062 156.269531 91.964844 153.699219 90.488281 152.003906 L 81.382812 141.5625 C 81.375 141.550781 81.363281 141.542969 81.355469 141.53125 C 81.234375 141.398438 81.109375 141.273438 80.972656 141.15625 C 80.941406 141.128906 80.914062 141.109375 80.882812 141.085938 C 80.761719 140.984375 80.636719 140.890625 80.5 140.808594 C 80.476562 140.789062 80.449219 140.773438 80.425781 140.757812 C 80.273438 140.664062 80.117188 140.585938 79.949219 140.511719 C 79.914062 140.496094 79.875 140.480469 79.835938 140.464844 C 79.769531 140.4375 79.703125 140.410156 79.632812 140.386719 C 79.558594 140.359375 79.484375 140.34375 79.410156 140.320312 C 79.375 140.3125 79.34375 140.300781 79.308594 140.292969 C 79.128906 140.246094 78.945312 140.210938 78.765625 140.191406 C 78.75 140.191406 78.738281 140.191406 78.726562 140.191406 C 78.542969 140.171875 78.359375 140.164062 78.175781 140.171875 C 78.164062 140.171875 78.148438 140.171875 78.132812 140.171875 C 77.9375 140.179688 77.742188 140.203125 77.554688 140.238281 C 77.542969 140.242188 77.535156 140.246094 77.523438 140.246094 C 77.328125 140.285156 77.136719 140.335938 76.953125 140.402344 C 76.949219 140.402344 76.945312 140.402344 76.945312 140.40625 L 76.933594 140.410156 C 76.910156 140.417969 76.882812 140.425781 76.859375 140.4375 L 61.277344 146.019531 C 59.160156 146.777344 58.058594 149.105469 58.816406 151.222656 C 59.574219 153.339844 61.902344 154.4375 64.019531 153.679688 L 72.042969 150.804688 C 69.027344 161.890625 67.496094 173.34375 67.496094 184.964844 C 67.496094 202.472656 70.925781 219.460938 77.691406 235.457031 C 78.347656 237.007812 79.855469 237.941406 81.441406 237.941406 C 81.96875 237.941406 82.507812 237.835938 83.023438 237.617188 C 85.09375 236.742188 86.0625 234.355469 85.1875 232.285156 C 78.851562 217.300781 75.636719 201.378906 75.636719 184.964844 C 75.636719 173.882812 77.121094 162.964844 80.046875 152.410156 Z M 84.355469 157.351562 " fill-opacity="1" fill-rule="nonzero"/><path fill="#ffffff" d="M 141.085938 85.476562 C 141.617188 85.476562 142.152344 85.375 142.671875 85.15625 C 157.65625 78.816406 173.578125 75.605469 189.992188 75.605469 C 201.074219 75.605469 211.992188 77.085938 222.542969 80.011719 L 217.605469 84.320312 C 215.910156 85.796875 215.734375 88.367188 217.210938 90.0625 C 218.015625 90.984375 219.144531 91.457031 220.28125 91.457031 C 221.226562 91.457031 222.179688 91.128906 222.953125 90.457031 L 233.394531 81.351562 C 233.402344 81.34375 233.410156 81.335938 233.417969 81.328125 C 233.554688 81.207031 233.6875 81.074219 233.808594 80.933594 C 233.828125 80.910156 233.84375 80.886719 233.863281 80.863281 C 233.96875 80.734375 234.066406 80.601562 234.15625 80.457031 C 234.167969 80.4375 234.183594 80.417969 234.199219 80.394531 C 234.289062 80.242188 234.371094 80.082031 234.445312 79.917969 C 234.460938 79.878906 234.472656 79.84375 234.488281 79.804688 C 234.515625 79.738281 234.546875 79.671875 234.570312 79.601562 C 234.597656 79.527344 234.613281 79.453125 234.636719 79.378906 C 234.644531 79.34375 234.65625 79.308594 234.664062 79.273438 C 234.710938 79.097656 234.742188 78.917969 234.761719 78.738281 C 234.765625 78.71875 234.765625 78.699219 234.769531 78.679688 C 234.785156 78.507812 234.789062 78.332031 234.785156 78.160156 C 234.785156 78.136719 234.785156 78.113281 234.785156 78.09375 C 234.773438 77.902344 234.753906 77.714844 234.71875 77.53125 C 234.714844 77.511719 234.710938 77.492188 234.707031 77.472656 C 234.667969 77.292969 234.621094 77.113281 234.558594 76.9375 C 234.554688 76.929688 234.554688 76.921875 234.550781 76.914062 L 234.539062 76.878906 C 234.535156 76.867188 234.53125 76.851562 234.523438 76.835938 L 228.9375 61.242188 C 228.179688 59.125 225.847656 58.027344 223.734375 58.785156 C 221.617188 59.542969 220.515625 61.871094 221.273438 63.988281 L 224.148438 72.011719 C 213.066406 68.992188 201.609375 67.464844 189.992188 67.464844 C 172.480469 67.464844 155.492188 70.894531 139.5 77.660156 C 137.429688 78.535156 136.460938 80.921875 137.335938 82.992188 C 137.992188 84.546875 139.5 85.476562 141.085938 85.476562 Z M 141.085938 85.476562 " fill-opacity="1" fill-rule="nonzero"/><path fill="#ffffff" d="M 290.636719 217.570312 C 289.15625 215.878906 286.585938 215.703125 284.890625 217.179688 C 283.199219 218.65625 283.023438 221.226562 284.5 222.921875 L 293.605469 233.363281 C 293.617188 233.375 293.628906 233.386719 293.640625 233.402344 C 293.703125 233.46875 293.765625 233.53125 293.832031 233.597656 C 293.867188 233.628906 293.898438 233.667969 293.933594 233.699219 C 294.019531 233.773438 294.109375 233.847656 294.199219 233.914062 C 294.21875 233.929688 294.238281 233.949219 294.257812 233.964844 C 294.371094 234.046875 294.488281 234.125 294.613281 234.199219 C 294.636719 234.214844 294.667969 234.226562 294.691406 234.238281 C 294.789062 234.292969 294.882812 234.34375 294.984375 234.390625 C 295.042969 234.417969 295.101562 234.4375 295.160156 234.460938 C 295.222656 234.484375 295.289062 234.515625 295.355469 234.539062 C 295.359375 234.539062 295.367188 234.539062 295.371094 234.542969 C 295.558594 234.605469 295.75 234.652344 295.941406 234.6875 C 295.996094 234.695312 296.046875 234.703125 296.097656 234.710938 C 296.273438 234.738281 296.449219 234.753906 296.628906 234.753906 C 296.644531 234.753906 296.660156 234.757812 296.671875 234.757812 C 296.898438 234.757812 297.121094 234.738281 297.34375 234.699219 C 297.386719 234.691406 297.425781 234.679688 297.46875 234.667969 C 297.648438 234.632812 297.820312 234.589844 297.988281 234.53125 C 298.007812 234.527344 298.027344 234.523438 298.042969 234.519531 L 313.714844 228.90625 C 315.828125 228.148438 316.929688 225.816406 316.171875 223.703125 C 315.414062 221.585938 313.082031 220.484375 310.96875 221.242188 L 302.945312 224.117188 C 305.960938 213.035156 307.492188 201.578125 307.492188 189.957031 C 307.492188 172.449219 304.0625 155.460938 297.296875 139.46875 C 296.421875 137.398438 294.035156 136.429688 291.964844 137.304688 C 289.894531 138.179688 288.925781 140.570312 289.800781 142.640625 C 296.136719 157.625 299.351562 173.542969 299.351562 189.957031 C 299.351562 201.042969 297.871094 211.960938 294.941406 222.511719 Z M 290.636719 217.570312 " fill-opacity="1" fill-rule="nonzero"/><path fill="#ffffff" d="M 304.84375 61.035156 C 305.644531 61.164062 306.425781 61.371094 307.183594 61.65625 C 307.945312 61.9375 308.667969 62.292969 309.359375 62.71875 C 310.046875 63.144531 310.691406 63.636719 311.285156 64.1875 C 311.875 64.742188 312.410156 65.347656 312.886719 66.003906 C 313.359375 66.660156 313.765625 67.359375 314.101562 68.097656 C 314.4375 68.835938 314.699219 69.597656 314.886719 70.386719 C 315.070312 71.175781 315.179688 71.976562 315.207031 72.789062 C 315.238281 73.597656 315.1875 74.402344 315.054688 75.203125 C 314.925781 76.003906 314.71875 76.785156 314.4375 77.542969 C 314.152344 78.304688 313.796875 79.027344 313.371094 79.71875 C 312.945312 80.410156 312.457031 81.050781 311.902344 81.644531 C 311.351562 82.238281 310.746094 82.769531 310.085938 83.246094 C 309.429688 83.71875 308.730469 84.125 307.992188 84.460938 C 307.253906 84.796875 306.492188 85.058594 305.703125 85.246094 C 304.914062 85.433594 304.113281 85.539062 303.304688 85.570312 C 302.492188 85.597656 301.6875 85.546875 300.886719 85.417969 C 300.085938 85.289062 299.304688 85.082031 298.546875 84.796875 C 297.785156 84.511719 297.0625 84.160156 296.371094 83.730469 C 295.683594 83.304688 295.039062 82.816406 294.445312 82.261719 C 293.855469 81.710938 293.320312 81.105469 292.84375 80.449219 C 292.371094 79.789062 291.964844 79.089844 291.628906 78.355469 C 291.292969 77.617188 291.03125 76.851562 290.84375 76.0625 C 290.660156 75.273438 290.550781 74.472656 290.523438 73.664062 C 290.492188 72.851562 290.542969 72.046875 290.675781 71.246094 C 290.804688 70.445312 291.011719 69.667969 291.292969 68.90625 C 291.578125 68.148438 291.933594 67.421875 292.359375 66.734375 C 292.785156 66.042969 293.273438 65.402344 293.828125 64.808594 C 294.378906 64.214844 294.984375 63.679688 295.644531 63.207031 C 296.300781 62.730469 297 62.328125 297.738281 61.988281 C 298.476562 61.652344 299.238281 61.390625 300.027344 61.207031 C 300.816406 61.019531 301.617188 60.910156 302.425781 60.882812 C 303.238281 60.855469 304.042969 60.90625 304.84375 61.035156 Z M 304.84375 61.035156 " fill-opacity="1" fill-rule="nonzero"/><path fill="#ffffff" d="M 307.589844 267.226562 C 308.339844 267.539062 309.050781 267.917969 309.726562 268.371094 C 310.402344 268.820312 311.023438 269.332031 311.597656 269.90625 C 312.171875 270.480469 312.683594 271.101562 313.132812 271.777344 C 313.585938 272.453125 313.964844 273.164062 314.273438 273.914062 C 314.585938 274.660156 314.820312 275.433594 314.976562 276.230469 C 315.136719 277.023438 315.214844 277.828125 315.214844 278.636719 C 315.214844 279.449219 315.136719 280.253906 314.976562 281.046875 C 314.820312 281.84375 314.585938 282.617188 314.273438 283.363281 C 313.964844 284.113281 313.585938 284.824219 313.132812 285.5 C 312.683594 286.175781 312.171875 286.796875 311.597656 287.371094 C 311.023438 287.945312 310.402344 288.457031 309.726562 288.90625 C 309.050781 289.359375 308.339844 289.738281 307.589844 290.050781 C 306.839844 290.359375 306.070312 290.59375 305.273438 290.753906 C 304.480469 290.910156 303.675781 290.988281 302.863281 290.988281 C 302.054688 290.988281 301.25 290.910156 300.453125 290.753906 C 299.660156 290.59375 298.886719 290.359375 298.136719 290.050781 C 297.390625 289.738281 296.675781 289.359375 296.003906 288.90625 C 295.328125 288.457031 294.703125 287.945312 294.132812 287.371094 C 293.558594 286.796875 293.046875 286.175781 292.59375 285.5 C 292.144531 284.824219 291.765625 284.113281 291.453125 283.363281 C 291.144531 282.617188 290.910156 281.84375 290.75 281.046875 C 290.59375 280.253906 290.511719 279.449219 290.511719 278.636719 C 290.511719 277.828125 290.59375 277.023438 290.75 276.230469 C 290.910156 275.433594 291.144531 274.660156 291.453125 273.914062 C 291.765625 273.164062 292.144531 272.453125 292.59375 271.777344 C 293.046875 271.101562 293.558594 270.480469 294.132812 269.90625 C 294.703125 269.332031 295.328125 268.820312 296.003906 268.371094 C 296.675781 267.917969 297.390625 267.539062 298.136719 267.226562 C 298.886719 266.917969 299.660156 266.683594 300.453125 266.523438 C 301.25 266.367188 302.054688 266.289062 302.863281 266.289062 C 303.675781 266.289062 304.480469 266.367188 305.273438 266.523438 C 306.070312 266.683594 306.839844 266.917969 307.589844 267.226562 Z M 307.589844 267.226562 " fill-opacity="1" fill-rule="nonzero"/><path fill="#ffffff" d="M 78.617188 62.71875 C 79.308594 63.144531 79.949219 63.636719 80.542969 64.1875 C 81.136719 64.742188 81.667969 65.347656 82.144531 66.003906 C 82.617188 66.664062 83.023438 67.359375 83.359375 68.097656 C 83.695312 68.835938 83.957031 69.597656 84.144531 70.386719 C 84.332031 71.175781 84.4375 71.976562 84.46875 72.789062 C 84.496094 73.597656 84.445312 74.402344 84.316406 75.203125 C 84.1875 76.003906 83.980469 76.785156 83.695312 77.542969 C 83.410156 78.304688 83.058594 79.027344 82.628906 79.71875 C 82.203125 80.410156 81.714844 81.050781 81.160156 81.644531 C 80.609375 82.238281 80.003906 82.769531 79.347656 83.246094 C 78.6875 83.71875 77.992188 84.125 77.253906 84.460938 C 76.515625 84.796875 75.75 85.058594 74.960938 85.246094 C 74.171875 85.433594 73.371094 85.539062 72.5625 85.570312 C 71.753906 85.597656 70.945312 85.546875 70.144531 85.417969 C 69.34375 85.289062 68.566406 85.082031 67.804688 84.796875 C 67.046875 84.511719 66.320312 84.160156 65.632812 83.730469 C 64.941406 83.304688 64.300781 82.816406 63.707031 82.261719 C 63.113281 81.710938 62.578125 81.105469 62.105469 80.449219 C 61.628906 79.789062 61.226562 79.09375 60.886719 78.355469 C 60.550781 77.617188 60.289062 76.851562 60.105469 76.0625 C 59.917969 75.273438 59.808594 74.472656 59.78125 73.664062 C 59.753906 72.855469 59.804688 72.046875 59.933594 71.246094 C 60.0625 70.445312 60.269531 69.667969 60.554688 68.90625 C 60.835938 68.148438 61.191406 67.421875 61.617188 66.734375 C 62.042969 66.042969 62.535156 65.402344 63.085938 64.808594 C 63.640625 64.214844 64.246094 63.679688 64.902344 63.207031 C 65.558594 62.730469 66.257812 62.328125 66.996094 61.988281 C 67.734375 61.652344 68.496094 61.390625 69.285156 61.207031 C 70.074219 61.019531 70.875 60.910156 71.6875 60.882812 C 72.496094 60.855469 73.300781 60.90625 74.101562 61.035156 C 74.902344 61.164062 75.683594 61.371094 76.441406 61.65625 C 77.203125 61.9375 77.925781 62.292969 78.617188 62.71875 Z M 78.617188 62.71875 " fill-opacity="1" fill-rule="nonzero"/><path fill="#ffffff" d="M 84.316406 276.660156 C 84.445312 277.460938 84.496094 278.265625 84.46875 279.078125 C 84.4375 279.886719 84.332031 280.6875 84.144531 281.476562 C 83.957031 282.265625 83.695312 283.027344 83.359375 283.765625 C 83.023438 284.503906 82.617188 285.203125 82.144531 285.859375 C 81.667969 286.519531 81.136719 287.125 80.542969 287.675781 C 79.949219 288.230469 79.308594 288.71875 78.617188 289.144531 C 77.925781 289.570312 77.203125 289.925781 76.441406 290.210938 C 75.683594 290.492188 74.902344 290.699219 74.101562 290.828125 C 73.300781 290.960938 72.496094 291.011719 71.6875 290.980469 C 70.875 290.953125 70.074219 290.84375 69.285156 290.660156 C 68.496094 290.472656 67.734375 290.210938 66.996094 289.875 C 66.257812 289.539062 65.558594 289.132812 64.902344 288.660156 C 64.246094 288.183594 63.640625 287.648438 63.085938 287.058594 C 62.535156 286.464844 62.042969 285.820312 61.617188 285.132812 C 61.191406 284.441406 60.835938 283.71875 60.550781 282.957031 C 60.269531 282.199219 60.0625 281.417969 59.933594 280.617188 C 59.800781 279.816406 59.753906 279.011719 59.78125 278.199219 C 59.808594 277.390625 59.917969 276.589844 60.101562 275.800781 C 60.289062 275.011719 60.550781 274.25 60.886719 273.511719 C 61.222656 272.773438 61.628906 272.074219 62.105469 271.417969 C 62.578125 270.757812 63.113281 270.152344 63.707031 269.601562 C 64.300781 269.046875 64.941406 268.558594 65.628906 268.132812 C 66.320312 267.707031 67.046875 267.351562 67.804688 267.066406 C 68.566406 266.785156 69.34375 266.578125 70.144531 266.449219 C 70.945312 266.316406 71.75 266.265625 72.5625 266.296875 C 73.371094 266.324219 74.171875 266.433594 74.960938 266.617188 C 75.75 266.804688 76.515625 267.066406 77.25 267.402344 C 77.988281 267.738281 78.6875 268.144531 79.34375 268.617188 C 80.003906 269.09375 80.609375 269.628906 81.160156 270.21875 C 81.714844 270.8125 82.203125 271.457031 82.628906 272.144531 C 83.054688 272.835938 83.410156 273.558594 83.695312 274.320312 C 83.976562 275.078125 84.183594 275.859375 84.316406 276.660156 Z M 84.316406 276.660156 " fill-opacity="1" fill-rule="nonzero"/></svg>