<svg xmlns="http://www.w3.org/2000/svg" xmlns:xlink="http://www.w3.org/1999/xlink" width="500" zoomAndPan="magnify" viewBox="0 0 375 374.999991" height="500" preserveAspectRatio="xMidYMid meet" version="1.0"><defs><clipPath id="88d2bd2f63"><path d="M 31.515625 34.324219 L 343.449219 34.324219 L 343.449219 331.25 L 31.515625 331.25 Z M 31.515625 34.324219 " clip-rule="nonzero"/></clipPath></defs><g clip-path="url(#88d2bd2f63)"><path fill="#ffffff" d="M 339.058594 83.109375 L 294.507812 38.5625 C 293.09375 37.210938 291.433594 36.148438 289.605469 35.441406 C 285.992188 33.957031 281.9375 33.957031 278.320312 35.441406 C 276.5 36.148438 274.832031 37.210938 273.421875 38.5625 L 228.871094 83.109375 C 226.074219 85.90625 224.503906 89.699219 224.503906 93.652344 C 224.503906 97.609375 226.074219 101.402344 228.871094 104.195312 C 231.667969 106.996094 235.460938 108.5625 239.414062 108.5625 C 243.371094 108.5625 247.160156 106.996094 249.957031 104.195312 L 269.113281 84.890625 L 269.113281 167.902344 C 269.113281 171.839844 270.679688 175.621094 273.464844 178.402344 C 276.246094 181.1875 280.027344 182.753906 283.964844 182.753906 C 287.902344 182.753906 291.679688 181.1875 294.464844 178.402344 C 297.25 175.621094 298.816406 171.839844 298.816406 167.902344 L 298.816406 84.890625 L 317.96875 104.195312 C 319.351562 105.589844 320.992188 106.695312 322.804688 107.445312 C 324.613281 108.203125 326.554688 108.589844 328.511719 108.589844 C 330.476562 108.589844 332.417969 108.203125 334.226562 107.445312 C 336.035156 106.695312 337.675781 105.589844 339.058594 104.195312 C 340.449219 102.816406 341.554688 101.171875 342.308594 99.367188 C 343.0625 97.554688 343.449219 95.613281 343.449219 93.652344 C 343.449219 91.695312 343.0625 89.753906 342.308594 87.941406 C 341.554688 86.132812 340.449219 84.488281 339.058594 83.109375 Z M 313.664062 212.453125 C 309.726562 212.453125 305.949219 214.019531 303.164062 216.800781 C 300.378906 219.585938 298.816406 223.363281 298.816406 227.300781 L 298.816406 286.703125 C 298.816406 290.640625 297.25 294.417969 294.464844 297.203125 C 291.679688 299.984375 287.902344 301.554688 283.964844 301.554688 L 76.066406 301.554688 C 72.128906 301.554688 68.351562 299.984375 65.566406 297.203125 C 62.78125 294.417969 61.21875 290.640625 61.21875 286.703125 L 61.21875 144.289062 L 148.535156 231.757812 C 156.886719 240.097656 168.210938 244.785156 180.015625 244.785156 C 191.820312 244.785156 203.144531 240.097656 211.496094 231.757812 L 235.851562 207.402344 C 238.648438 204.605469 240.21875 200.8125 240.21875 196.859375 C 240.21875 192.90625 238.648438 189.113281 235.851562 186.316406 C 233.054688 183.519531 229.261719 181.949219 225.308594 181.949219 C 221.351562 181.949219 217.558594 183.519531 214.765625 186.316406 L 190.410156 210.671875 C 187.636719 213.390625 183.902344 214.914062 180.015625 214.914062 C 176.128906 214.914062 172.398438 213.390625 169.621094 210.671875 L 82.15625 123.355469 L 180.015625 123.355469 C 183.953125 123.355469 187.730469 121.785156 190.515625 119.003906 C 193.300781 116.21875 194.867188 112.441406 194.867188 108.503906 C 194.867188 104.566406 193.300781 100.785156 190.515625 98.003906 C 187.730469 95.21875 183.953125 93.652344 180.015625 93.652344 L 76.066406 93.652344 C 64.25 93.652344 52.917969 98.347656 44.566406 106.703125 C 36.210938 115.058594 31.515625 126.386719 31.515625 138.203125 L 31.515625 286.703125 C 31.515625 298.515625 36.210938 309.847656 44.566406 318.203125 C 52.917969 326.558594 64.25 331.25 76.066406 331.25 L 283.964844 331.25 C 295.78125 331.25 307.113281 326.558594 315.464844 318.203125 C 323.820312 309.847656 328.511719 298.515625 328.511719 286.703125 L 328.511719 227.300781 C 328.511719 223.363281 326.949219 219.585938 324.164062 216.800781 C 321.378906 214.019531 317.601562 212.453125 313.664062 212.453125 " fill-opacity="1" fill-rule="nonzero"/></g></svg>