<svg xmlns="http://www.w3.org/2000/svg" xmlns:xlink="http://www.w3.org/1999/xlink" width="500" zoomAndPan="magnify" viewBox="0 0 375 374.999991" height="500" preserveAspectRatio="xMidYMid meet" version="1.0"><defs><clipPath id="af4fd3fb99"><path d="M 27 56.898438 L 347.980469 56.898438 L 347.980469 332 L 27 332 Z M 27 56.898438 " clip-rule="nonzero"/></clipPath></defs><g clip-path="url(#af4fd3fb99)"><path fill="#ffffff" d="M 95.871094 331.785156 C 94.1875 331.785156 92.492188 331.417969 90.910156 330.652344 C 86.9375 328.738281 84.417969 324.742188 84.417969 320.332031 L 84.417969 285.972656 C 64.613281 285.972656 27.148438 274.003906 27.148438 228.703125 L 27.148438 114.167969 C 27.148438 94.363281 39.117188 56.898438 84.417969 56.898438 L 290.582031 56.898438 C 310.386719 56.898438 347.851562 68.867188 347.851562 114.167969 L 347.851562 228.703125 C 347.851562 248.507812 338.273438 285.972656 302.035156 285.972656 L 157.160156 285.972656 L 103.027344 329.277344 C 100.957031 330.9375 98.425781 331.785156 95.871094 331.785156 Z M 95.871094 263.0625 C 102.191406 263.0625 107.324219 268.183594 107.324219 274.519531 L 107.324219 296.496094 L 145.980469 265.574219 C 148.019531 263.945312 150.539062 263.0625 153.136719 263.0625 L 302.035156 263.0625 C 324.472656 263.0625 324.929688 230.066406 324.941406 228.667969 L 324.941406 114.167969 C 324.941406 81.832031 296.261719 79.875 290.511719 79.804688 L 84.417969 79.804688 C 52.082031 79.804688 50.125 108.476562 50.054688 114.222656 L 50.054688 228.703125 C 50.054688 261.035156 78.722656 262.996094 84.472656 263.0625 Z M 210.40625 171.433594 C 210.40625 158.777344 200.15625 148.527344 187.5 148.527344 C 174.84375 148.527344 164.59375 158.777344 164.59375 171.433594 C 164.59375 184.089844 174.84375 194.34375 187.5 194.34375 C 200.15625 194.34375 210.40625 184.089844 210.40625 171.433594 Z M 141.683594 171.433594 C 141.683594 158.777344 131.433594 148.527344 118.777344 148.527344 C 106.121094 148.527344 95.871094 158.777344 95.871094 171.433594 C 95.871094 184.089844 106.121094 194.34375 118.777344 194.34375 C 131.433594 194.34375 141.683594 184.089844 141.683594 171.433594 Z M 279.128906 171.433594 C 279.128906 158.777344 268.878906 148.527344 256.222656 148.527344 C 243.566406 148.527344 233.3125 158.777344 233.3125 171.433594 C 233.3125 184.089844 243.566406 194.34375 256.222656 194.34375 C 268.878906 194.34375 279.128906 184.089844 279.128906 171.433594 Z M 279.128906 171.433594 " fill-opacity="1" fill-rule="nonzero"/></g></svg>