<svg xmlns="http://www.w3.org/2000/svg" xmlns:xlink="http://www.w3.org/1999/xlink" width="500" zoomAndPan="magnify" viewBox="0 0 375 374.999991" height="500" preserveAspectRatio="xMidYMid meet" version="1.0"><defs><clipPath id="6cd8bec0ac"><path d="M 187 279 L 240 279 L 240 331.875 L 187 331.875 Z M 187 279 " clip-rule="nonzero"/></clipPath><clipPath id="eb61487633"><path d="M 32.433594 43.125 L 332.433594 43.125 L 332.433594 213 L 32.433594 213 Z M 32.433594 43.125 " clip-rule="nonzero"/></clipPath><clipPath id="1535a405b8"><path d="M 114 279 L 166 279 L 166 331.875 L 114 331.875 Z M 114 279 " clip-rule="nonzero"/></clipPath><clipPath id="d54759c8f5"><path d="M 32.433594 198 L 86 198 L 86 251 L 32.433594 251 Z M 32.433594 198 " clip-rule="nonzero"/></clipPath></defs><g clip-path="url(#6cd8bec0ac)"><path fill="#ffffff" d="M 239.097656 318.121094 C 223.339844 325.683594 206.0625 330.507812 187.816406 331.898438 L 187.816406 286.824219 C 197.976562 285.695312 207.757812 283.414062 216.753906 279.457031 Z M 239.097656 318.121094 " fill-opacity="1" fill-rule="nonzero"/></g><g clip-path="url(#eb61487633)"><path fill="#ffffff" d="M 77.675781 176.683594 L 32.601562 176.683594 C 38.316406 102.117188 100.691406 43.15625 176.691406 43.15625 C 221.40625 43.15625 263.4375 64.085938 290.601562 98.773438 L 332.199219 74.734375 L 332.285156 212.324219 L 213.082031 143.605469 L 251.398438 121.4375 C 232.578125 100.359375 205.5 87.664062 176.691406 87.664062 C 125.269531 87.667969 83.28125 126.742188 77.675781 176.683594 Z M 77.675781 176.683594 " fill-opacity="1" fill-rule="nonzero"/></g><path fill="#ffffff" d="M 257.003906 247.03125 L 295.949219 269.503906 C 285.84375 284.21875 273.085938 296.953125 258.394531 307.082031 L 235.921875 268.136719 C 243.964844 262.179688 251.050781 255.074219 257.003906 247.03125 Z M 257.003906 247.03125 " fill-opacity="1" fill-rule="nonzero"/><g clip-path="url(#1535a405b8)"><path fill="#ffffff" d="M 165.5625 286.824219 L 165.5625 331.898438 C 147.308594 330.507812 130.03125 325.683594 114.296875 318.121094 L 136.617188 279.457031 C 145.636719 283.414062 155.414062 285.695312 165.5625 286.824219 Z M 165.5625 286.824219 " fill-opacity="1" fill-rule="nonzero"/></g><path fill="#ffffff" d="M 117.46875 268.136719 L 94.996094 307.082031 C 80.285156 296.953125 67.527344 284.21875 57.421875 269.503906 L 96.367188 247.03125 C 102.320312 255.074219 109.40625 262.179688 117.46875 268.136719 Z M 117.46875 268.136719 " fill-opacity="1" fill-rule="nonzero"/><g clip-path="url(#d54759c8f5)"><path fill="#ffffff" d="M 85.023438 227.863281 L 46.378906 250.183594 C 38.816406 234.449219 33.992188 217.195312 32.601562 198.9375 L 77.675781 198.9375 C 78.804688 209.085938 81.089844 218.867188 85.023438 227.863281 Z M 85.023438 227.863281 " fill-opacity="1" fill-rule="nonzero"/></g></svg>