<svg xmlns="http://www.w3.org/2000/svg" xmlns:xlink="http://www.w3.org/1999/xlink" width="500" zoomAndPan="magnify" viewBox="0 0 375 374.999991" height="500" preserveAspectRatio="xMidYMid meet" version="1.0"><path fill="#ffffff" d="M 48.46875 193.550781 C 71.878906 209.757812 84.117188 212.695312 104.292969 246.675781 C 124.46875 280.65625 127.996094 303.773438 133.308594 308.023438 C 138.617188 312.269531 165.164062 306.960938 178.96875 299.527344 C 192.773438 292.09375 193.289062 287.988281 206.175781 257.847656 C 224.046875 216.0625 253.070312 164.757812 275.371094 135.027344 C 297.667969 105.292969 344.617188 66.183594 346.742188 58.75 C 348.863281 51.316406 326.566406 47.867188 305.328125 54.238281 C 284.089844 60.609375 239.351562 109.816406 212.339844 148.53125 C 182.332031 191.546875 171.667969 227.851562 166.359375 226.789062 C 161.046875 225.730469 150.675781 204.078125 135.808594 188.152344 C 120.941406 172.222656 105.277344 161.429688 87.226562 164.617188 C 69.171875 167.800781 37.667969 186.074219 48.46875 193.550781 " fill-opacity="1" fill-rule="nonzero"/></svg>