<svg xmlns="http://www.w3.org/2000/svg" xmlns:xlink="http://www.w3.org/1999/xlink" width="500" zoomAndPan="magnify" viewBox="0 0 375 374.999991" height="500" preserveAspectRatio="xMidYMid meet" version="1.0"><defs><clipPath id="f21008089f"><path d="M 37.5 36.121094 L 339 36.121094 L 339 337.621094 L 37.5 337.621094 Z M 37.5 36.121094 " clip-rule="nonzero"/></clipPath></defs><g clip-path="url(#f21008089f)"><path fill="#ffffff" d="M 188.183594 36.121094 C 105.097656 36.121094 37.5 103.714844 37.5 186.804688 C 37.5 269.894531 105.097656 337.492188 188.183594 337.492188 C 271.273438 337.492188 338.871094 269.894531 338.871094 186.804688 C 338.871094 103.714844 271.273438 36.121094 188.183594 36.121094 Z M 188.183594 308.328125 C 121.179688 308.328125 66.664062 253.8125 66.664062 186.804688 C 66.664062 119.796875 121.179688 65.285156 188.183594 65.285156 C 255.191406 65.285156 309.707031 119.796875 309.707031 186.804688 C 309.707031 253.8125 255.191406 308.328125 188.183594 308.328125 Z M 188.183594 308.328125 " fill-opacity="1" fill-rule="nonzero"/></g><path fill="#ffffff" d="M 244.691406 172.222656 L 202.769531 172.222656 L 202.769531 130.300781 C 202.769531 122.242188 196.242188 115.714844 188.183594 115.714844 C 180.128906 115.714844 173.601562 122.242188 173.601562 130.300781 L 173.601562 172.222656 L 131.679688 172.222656 C 123.621094 172.222656 117.097656 178.75 117.097656 186.804688 C 117.097656 194.863281 123.621094 201.386719 131.679688 201.386719 L 173.601562 201.386719 L 173.601562 243.3125 C 173.601562 251.363281 180.128906 257.894531 188.183594 257.894531 C 196.242188 257.894531 202.769531 251.363281 202.769531 243.3125 L 202.769531 201.386719 L 244.691406 201.386719 C 252.75 201.386719 259.273438 194.863281 259.273438 186.804688 C 259.273438 178.75 252.75 172.222656 244.691406 172.222656 Z M 244.691406 172.222656 " fill-opacity="1" fill-rule="nonzero"/></svg>