<svg xmlns="http://www.w3.org/2000/svg" xmlns:xlink="http://www.w3.org/1999/xlink" width="40" zoomAndPan="magnify" viewBox="0 0 375 374.999991" height="40" preserveAspectRatio="xMidYMid meet" version="1.0"><defs><clipPath id="acb7b0ea78"><path d="M 38.136719 38.777344 L 336.636719 38.777344 L 336.636719 337.277344 L 38.136719 337.277344 Z M 38.136719 38.777344 " clip-rule="nonzero"/></clipPath></defs><path fill="#ffffff" d="M 163.066406 223.238281 C 162.574219 222.738281 162.03125 222.289062 161.449219 221.898438 C 160.863281 221.503906 160.246094 221.171875 159.597656 220.902344 C 158.945312 220.632812 158.277344 220.425781 157.585938 220.289062 C 156.894531 220.152344 156.199219 220.082031 155.492188 220.082031 C 154.789062 220.082031 154.09375 220.152344 153.402344 220.289062 C 152.710938 220.425781 152.039062 220.632812 151.390625 220.902344 C 150.742188 221.171875 150.125 221.503906 149.539062 221.898438 C 148.953125 222.289062 148.414062 222.738281 147.917969 223.238281 L 145.359375 225.90625 C 145.460938 225.046875 145.589844 224.191406 145.746094 223.34375 C 145.898438 222.492188 146.078125 221.648438 146.285156 220.808594 C 146.492188 219.96875 146.722656 219.136719 146.980469 218.3125 C 147.234375 217.488281 147.519531 216.671875 147.824219 215.863281 C 148.128906 215.054688 148.460938 214.257812 148.816406 213.46875 C 149.167969 212.679688 149.546875 211.90625 149.949219 211.140625 C 150.351562 210.375 150.777344 209.621094 151.222656 208.882812 C 151.671875 208.144531 152.140625 207.417969 152.632812 206.707031 C 153.125 206 153.636719 205.304688 154.171875 204.625 C 154.703125 203.945312 155.257812 203.28125 155.832031 202.636719 C 156.40625 201.988281 157 201.363281 157.609375 200.753906 C 158.222656 200.140625 158.851562 199.550781 159.5 198.980469 C 160.148438 198.410156 160.8125 197.855469 161.496094 197.324219 C 162.175781 196.796875 162.875 196.285156 163.585938 195.796875 C 164.296875 195.308594 165.027344 194.839844 165.765625 194.394531 C 166.507812 193.949219 167.261719 193.527344 168.027344 193.128906 C 168.792969 192.730469 169.570312 192.355469 170.359375 192.003906 C 171.148438 191.652344 171.949219 191.324219 172.757812 191.023438 C 173.566406 190.71875 174.386719 190.441406 175.210938 190.1875 C 176.035156 189.933594 176.871094 189.707031 177.710938 189.503906 C 178.550781 189.300781 179.394531 189.121094 180.246094 188.972656 C 181.097656 188.820312 181.949219 188.695312 182.808594 188.59375 C 183.667969 188.496094 184.527344 188.421875 185.390625 188.375 C 186.253906 188.328125 187.117188 188.304688 187.980469 188.3125 C 188.84375 188.316406 189.707031 188.347656 190.570312 188.40625 C 191.433594 188.460938 192.292969 188.546875 193.148438 188.65625 C 194.007812 188.765625 194.859375 188.902344 195.707031 189.0625 C 196.558594 189.222656 197.398438 189.410156 198.238281 189.625 C 199.074219 189.835938 199.90625 190.074219 200.726562 190.335938 C 201.550781 190.601562 202.363281 190.890625 203.171875 191.203125 C 203.976562 191.515625 204.769531 191.851562 205.554688 192.210938 C 206.339844 192.574219 207.113281 192.957031 207.875 193.363281 C 208.492188 193.714844 209.136719 194.003906 209.8125 194.226562 C 210.484375 194.449219 211.171875 194.605469 211.875 194.691406 C 212.578125 194.78125 213.285156 194.796875 213.992188 194.746094 C 214.699219 194.695312 215.394531 194.574219 216.078125 194.386719 C 216.761719 194.199219 217.417969 193.945312 218.054688 193.628906 C 218.6875 193.308594 219.285156 192.933594 219.84375 192.496094 C 220.402344 192.0625 220.914062 191.578125 221.378906 191.039062 C 221.84375 190.503906 222.25 189.925781 222.597656 189.3125 C 222.949219 188.695312 223.238281 188.050781 223.460938 187.378906 C 223.683594 186.703125 223.839844 186.015625 223.925781 185.3125 C 224.015625 184.609375 224.03125 183.902344 223.980469 183.195312 C 223.929688 182.488281 223.808594 181.792969 223.621094 181.109375 C 223.433594 180.425781 223.179688 179.769531 222.863281 179.132812 C 222.542969 178.5 222.167969 177.902344 221.730469 177.34375 C 221.296875 176.785156 220.8125 176.273438 220.273438 175.808594 C 219.738281 175.34375 219.160156 174.9375 218.546875 174.589844 C 217.367188 173.933594 216.171875 173.316406 214.957031 172.734375 C 213.742188 172.15625 212.511719 171.613281 211.261719 171.109375 C 210.011719 170.609375 208.746094 170.144531 207.46875 169.722656 C 206.1875 169.300781 204.898438 168.917969 203.597656 168.578125 C 202.292969 168.238281 200.980469 167.9375 199.660156 167.679688 C 198.335938 167.421875 197.007812 167.203125 195.671875 167.03125 C 194.339844 166.855469 193 166.722656 191.65625 166.632812 C 190.3125 166.542969 188.964844 166.496094 187.617188 166.492188 C 186.273438 166.488281 184.925781 166.523438 183.582031 166.605469 C 182.238281 166.683594 180.898438 166.804688 179.5625 166.972656 C 178.222656 167.136719 176.894531 167.34375 175.570312 167.589844 C 174.246094 167.839844 172.933594 168.128906 171.628906 168.460938 C 170.320312 168.792969 169.027344 169.164062 167.746094 169.578125 C 166.464844 169.992188 165.199219 170.445312 163.945312 170.9375 C 162.691406 171.429688 161.453125 171.960938 160.234375 172.535156 C 159.015625 173.105469 157.816406 173.714844 156.632812 174.359375 C 155.453125 175.007812 154.292969 175.691406 153.15625 176.410156 C 152.015625 177.132812 150.902344 177.886719 149.8125 178.675781 C 148.722656 179.46875 147.65625 180.292969 146.621094 181.148438 C 145.582031 182.007812 144.570312 182.894531 143.589844 183.816406 C 142.605469 184.738281 141.65625 185.691406 140.730469 186.671875 C 139.808594 187.652344 138.921875 188.664062 138.0625 189.699219 C 137.203125 190.738281 136.378906 191.800781 135.585938 192.890625 C 134.796875 193.980469 134.039062 195.09375 133.320312 196.230469 C 132.597656 197.371094 131.914062 198.527344 131.265625 199.710938 C 130.617188 200.890625 130.007812 202.089844 129.433594 203.308594 C 128.863281 204.527344 128.328125 205.765625 127.835938 207.015625 C 127.339844 208.269531 126.886719 209.535156 126.472656 210.816406 C 126.058594 212.101562 125.6875 213.394531 125.351562 214.699219 C 125.019531 216.003906 124.730469 217.316406 124.480469 218.640625 C 124.230469 219.964844 124.023438 221.292969 123.859375 222.628906 C 123.691406 223.964844 123.570312 225.308594 123.488281 226.652344 L 120.179688 223.238281 C 119.683594 222.738281 119.140625 222.296875 118.558594 221.90625 C 117.972656 221.515625 117.355469 221.183594 116.703125 220.914062 C 116.054688 220.644531 115.386719 220.441406 114.695312 220.304688 C 114.003906 220.167969 113.308594 220.101562 112.605469 220.101562 C 111.902344 220.101562 111.207031 220.167969 110.515625 220.304688 C 109.824219 220.441406 109.15625 220.644531 108.507812 220.914062 C 107.855469 221.183594 107.238281 221.515625 106.652344 221.90625 C 106.070312 222.296875 105.527344 222.738281 105.03125 223.238281 C 104.535156 223.734375 104.089844 224.277344 103.699219 224.859375 C 103.308594 225.445312 102.976562 226.0625 102.707031 226.710938 C 102.4375 227.363281 102.234375 228.03125 102.097656 228.722656 C 101.960938 229.414062 101.894531 230.109375 101.894531 230.8125 C 101.894531 231.515625 101.960938 232.210938 102.097656 232.902344 C 102.234375 233.59375 102.4375 234.261719 102.707031 234.910156 C 102.976562 235.5625 103.308594 236.179688 103.699219 236.761719 C 104.089844 237.347656 104.535156 237.890625 105.03125 238.386719 L 126.367188 259.722656 C 126.863281 260.222656 127.402344 260.671875 127.988281 261.0625 C 128.574219 261.457031 129.191406 261.789062 129.839844 262.058594 C 130.488281 262.332031 131.160156 262.535156 131.851562 262.671875 C 132.542969 262.8125 133.238281 262.878906 133.941406 262.878906 C 134.648438 262.878906 135.34375 262.8125 136.035156 262.671875 C 136.726562 262.535156 137.394531 262.332031 138.046875 262.058594 C 138.695312 261.789062 139.3125 261.457031 139.898438 261.0625 C 140.480469 260.671875 141.023438 260.222656 141.515625 259.722656 L 162.855469 238.386719 C 163.363281 237.898438 163.816406 237.363281 164.21875 236.785156 C 164.617188 236.207031 164.960938 235.59375 165.238281 234.949219 C 165.519531 234.300781 165.734375 233.632812 165.882812 232.945312 C 166.027344 232.257812 166.109375 231.5625 166.117188 230.855469 C 166.128906 230.152344 166.070312 229.453125 165.941406 228.761719 C 165.8125 228.070312 165.617188 227.394531 165.355469 226.742188 C 165.09375 226.089844 164.769531 225.464844 164.386719 224.875 C 164 224.285156 163.5625 223.742188 163.066406 223.238281 Z M 163.066406 223.238281 " fill-opacity="1" fill-rule="nonzero"/><g clip-path="url(#acb7b0ea78)"><path fill="#ffffff" d="M 315.523438 60.113281 L 294.1875 60.113281 L 294.1875 49.445312 C 294.1875 48.746094 294.117188 48.050781 293.980469 47.363281 C 293.84375 46.675781 293.640625 46.007812 293.375 45.363281 C 293.105469 44.714844 292.777344 44.101562 292.386719 43.519531 C 292 42.933594 291.554688 42.394531 291.0625 41.902344 C 290.566406 41.40625 290.027344 40.964844 289.445312 40.574219 C 288.863281 40.183594 288.246094 39.855469 287.601562 39.589844 C 286.953125 39.320312 286.285156 39.117188 285.597656 38.980469 C 284.910156 38.84375 284.21875 38.777344 283.515625 38.777344 C 282.816406 38.777344 282.125 38.84375 281.4375 38.980469 C 280.75 39.117188 280.082031 39.320312 279.433594 39.589844 C 278.789062 39.855469 278.171875 40.183594 277.589844 40.574219 C 277.007812 40.964844 276.46875 41.40625 275.972656 41.902344 C 275.476562 42.394531 275.035156 42.933594 274.648438 43.519531 C 274.257812 44.101562 273.929688 44.714844 273.660156 45.363281 C 273.394531 46.007812 273.191406 46.675781 273.054688 47.363281 C 272.917969 48.050781 272.847656 48.746094 272.847656 49.445312 L 272.847656 60.113281 L 230.175781 60.113281 L 230.175781 49.445312 C 230.175781 48.746094 230.105469 48.050781 229.96875 47.363281 C 229.832031 46.675781 229.628906 46.007812 229.363281 45.363281 C 229.09375 44.714844 228.765625 44.101562 228.375 43.519531 C 227.988281 42.933594 227.542969 42.394531 227.050781 41.902344 C 226.554688 41.40625 226.015625 40.964844 225.433594 40.574219 C 224.851562 40.183594 224.234375 39.855469 223.589844 39.589844 C 222.941406 39.320312 222.273438 39.117188 221.585938 38.980469 C 220.898438 38.84375 220.207031 38.777344 219.503906 38.777344 C 218.804688 38.777344 218.109375 38.84375 217.425781 38.980469 C 216.738281 39.117188 216.070312 39.320312 215.421875 39.589844 C 214.777344 39.855469 214.160156 40.183594 213.578125 40.574219 C 212.996094 40.964844 212.457031 41.40625 211.960938 41.902344 C 211.464844 42.394531 211.023438 42.933594 210.632812 43.519531 C 210.246094 44.101562 209.917969 44.714844 209.648438 45.363281 C 209.378906 46.007812 209.179688 46.675781 209.042969 47.363281 C 208.90625 48.050781 208.835938 48.746094 208.835938 49.445312 L 208.835938 60.113281 L 166.164062 60.113281 L 166.164062 49.445312 C 166.164062 48.746094 166.09375 48.050781 165.957031 47.363281 C 165.820312 46.675781 165.617188 46.007812 165.351562 45.363281 C 165.082031 44.714844 164.753906 44.101562 164.363281 43.519531 C 163.976562 42.933594 163.53125 42.394531 163.039062 41.902344 C 162.542969 41.40625 162.003906 40.964844 161.421875 40.574219 C 160.839844 40.183594 160.222656 39.855469 159.574219 39.589844 C 158.929688 39.320312 158.261719 39.117188 157.574219 38.980469 C 156.886719 38.84375 156.195312 38.777344 155.492188 38.777344 C 154.792969 38.777344 154.097656 38.84375 153.410156 38.980469 C 152.726562 39.117188 152.058594 39.320312 151.410156 39.589844 C 150.761719 39.855469 150.148438 40.183594 149.566406 40.574219 C 148.984375 40.964844 148.445312 41.40625 147.949219 41.902344 C 147.453125 42.394531 147.011719 42.933594 146.621094 43.519531 C 146.234375 44.101562 145.90625 44.714844 145.636719 45.363281 C 145.367188 46.007812 145.167969 46.675781 145.03125 47.363281 C 144.894531 48.050781 144.824219 48.746094 144.824219 49.445312 L 144.824219 60.113281 L 102.148438 60.113281 L 102.148438 49.445312 C 102.148438 48.746094 102.082031 48.050781 101.945312 47.363281 C 101.808594 46.675781 101.605469 46.007812 101.339844 45.363281 C 101.070312 44.714844 100.742188 44.101562 100.351562 43.519531 C 99.964844 42.933594 99.519531 42.394531 99.023438 41.902344 C 98.53125 41.40625 97.992188 40.964844 97.410156 40.574219 C 96.828125 40.183594 96.210938 39.855469 95.5625 39.589844 C 94.917969 39.320312 94.25 39.117188 93.5625 38.980469 C 92.875 38.84375 92.183594 38.777344 91.480469 38.777344 C 90.78125 38.777344 90.085938 38.84375 89.398438 38.980469 C 88.714844 39.117188 88.046875 39.320312 87.398438 39.589844 C 86.75 39.855469 86.136719 40.183594 85.554688 40.574219 C 84.972656 40.964844 84.433594 41.40625 83.9375 41.902344 C 83.441406 42.394531 83 42.933594 82.609375 43.519531 C 82.222656 44.101562 81.894531 44.714844 81.625 45.363281 C 81.355469 46.007812 81.15625 46.675781 81.019531 47.363281 C 80.882812 48.050781 80.8125 48.746094 80.8125 49.445312 L 80.8125 60.113281 L 59.476562 60.113281 C 58.777344 60.113281 58.078125 60.148438 57.382812 60.214844 C 56.6875 60.285156 56 60.386719 55.3125 60.523438 C 54.628906 60.660156 53.949219 60.828125 53.28125 61.03125 C 52.613281 61.234375 51.957031 61.46875 51.308594 61.738281 C 50.664062 62.003906 50.035156 62.304688 49.417969 62.632812 C 48.800781 62.960938 48.203125 63.320312 47.621094 63.710938 C 47.039062 64.097656 46.480469 64.511719 45.9375 64.957031 C 45.398438 65.398438 44.882812 65.867188 44.386719 66.363281 C 43.894531 66.855469 43.425781 67.375 42.980469 67.914062 C 42.539062 68.453125 42.121094 69.015625 41.734375 69.597656 C 41.347656 70.175781 40.988281 70.777344 40.65625 71.390625 C 40.328125 72.007812 40.03125 72.640625 39.761719 73.285156 C 39.496094 73.929688 39.261719 74.589844 39.058594 75.257812 C 38.855469 75.925781 38.683594 76.601562 38.546875 77.289062 C 38.410156 77.972656 38.308594 78.664062 38.242188 79.359375 C 38.171875 80.054688 38.136719 80.753906 38.136719 81.449219 L 38.136719 316.160156 C 38.136719 316.859375 38.171875 317.558594 38.242188 318.253906 C 38.308594 318.949219 38.410156 319.640625 38.546875 320.324219 C 38.683594 321.007812 38.855469 321.6875 39.058594 322.355469 C 39.257812 323.023438 39.496094 323.679688 39.761719 324.328125 C 40.03125 324.972656 40.328125 325.605469 40.65625 326.21875 C 40.988281 326.835938 41.347656 327.433594 41.734375 328.015625 C 42.121094 328.597656 42.539062 329.15625 42.980469 329.699219 C 43.425781 330.238281 43.894531 330.753906 44.386719 331.25 C 44.882812 331.742188 45.398438 332.210938 45.9375 332.65625 C 46.480469 333.097656 47.039062 333.515625 47.621094 333.902344 C 48.203125 334.292969 48.800781 334.648438 49.417969 334.980469 C 50.035156 335.308594 50.664062 335.605469 51.308594 335.875 C 51.957031 336.140625 52.613281 336.378906 53.28125 336.582031 C 53.949219 336.78125 54.628906 336.953125 55.3125 337.089844 C 56 337.226562 56.6875 337.328125 57.382812 337.394531 C 58.078125 337.464844 58.777344 337.5 59.476562 337.5 L 315.523438 337.5 C 316.222656 337.5 316.917969 337.464844 317.613281 337.394531 C 318.308594 337.328125 319 337.226562 319.6875 337.089844 C 320.371094 336.953125 321.046875 336.78125 321.71875 336.578125 C 322.386719 336.378906 323.042969 336.140625 323.6875 335.875 C 324.335938 335.605469 324.964844 335.308594 325.582031 334.980469 C 326.199219 334.648438 326.796875 334.292969 327.378906 333.902344 C 327.957031 333.515625 328.519531 333.097656 329.058594 332.65625 C 329.601562 332.210938 330.117188 331.742188 330.609375 331.25 C 331.105469 330.753906 331.574219 330.238281 332.015625 329.699219 C 332.460938 329.15625 332.875 328.597656 333.265625 328.015625 C 333.652344 327.433594 334.011719 326.835938 334.339844 326.21875 C 334.671875 325.605469 334.96875 324.972656 335.238281 324.328125 C 335.503906 323.679688 335.738281 323.023438 335.941406 322.355469 C 336.144531 321.6875 336.3125 321.007812 336.449219 320.324219 C 336.585938 319.640625 336.691406 318.949219 336.757812 318.253906 C 336.828125 317.558594 336.859375 316.859375 336.859375 316.160156 L 336.859375 81.449219 C 336.859375 80.753906 336.828125 80.054688 336.757812 79.359375 C 336.691406 78.664062 336.585938 77.972656 336.449219 77.289062 C 336.3125 76.601562 336.144531 75.925781 335.941406 75.257812 C 335.738281 74.589844 335.503906 73.929688 335.238281 73.285156 C 334.96875 72.640625 334.671875 72.007812 334.339844 71.390625 C 334.011719 70.777344 333.652344 70.175781 333.265625 69.597656 C 332.875 69.015625 332.460938 68.453125 332.015625 67.914062 C 331.574219 67.375 331.105469 66.855469 330.609375 66.363281 C 330.117188 65.867188 329.601562 65.398438 329.058594 64.957031 C 328.519531 64.511719 327.957031 64.097656 327.378906 63.710938 C 326.796875 63.320312 326.199219 62.960938 325.582031 62.632812 C 324.964844 62.304688 324.335938 62.003906 323.6875 61.738281 C 323.042969 61.46875 322.386719 61.234375 321.71875 61.03125 C 321.046875 60.828125 320.371094 60.660156 319.6875 60.523438 C 319 60.386719 318.308594 60.285156 317.613281 60.214844 C 316.917969 60.148438 316.222656 60.113281 315.523438 60.113281 Z M 80.8125 81.449219 C 80.8125 82.152344 80.882812 82.84375 81.019531 83.53125 C 81.15625 84.21875 81.355469 84.886719 81.625 85.535156 C 81.894531 86.179688 82.222656 86.796875 82.609375 87.378906 C 83 87.960938 83.441406 88.5 83.9375 88.996094 C 84.433594 89.488281 84.972656 89.933594 85.554688 90.320312 C 86.136719 90.710938 86.75 91.039062 87.398438 91.308594 C 88.046875 91.574219 88.714844 91.777344 89.398438 91.914062 C 90.085938 92.050781 90.78125 92.121094 91.480469 92.121094 C 92.183594 92.121094 92.875 92.050781 93.5625 91.914062 C 94.25 91.777344 94.917969 91.574219 95.5625 91.308594 C 96.210938 91.039062 96.828125 90.710938 97.410156 90.320312 C 97.992188 89.933594 98.53125 89.488281 99.023438 88.996094 C 99.519531 88.5 99.964844 87.960938 100.351562 87.378906 C 100.742188 86.796875 101.070312 86.179688 101.339844 85.535156 C 101.605469 84.886719 101.808594 84.21875 101.945312 83.53125 C 102.082031 82.84375 102.148438 82.152344 102.148438 81.449219 L 144.824219 81.449219 C 144.824219 82.152344 144.894531 82.84375 145.03125 83.53125 C 145.167969 84.21875 145.367188 84.886719 145.636719 85.535156 C 145.90625 86.179688 146.234375 86.796875 146.621094 87.378906 C 147.011719 87.960938 147.453125 88.5 147.949219 88.996094 C 148.445312 89.488281 148.984375 89.933594 149.566406 90.320312 C 150.148438 90.710938 150.761719 91.039062 151.410156 91.308594 C 152.058594 91.574219 152.726562 91.777344 153.410156 91.914062 C 154.097656 92.050781 154.792969 92.121094 155.492188 92.121094 C 156.195312 92.121094 156.886719 92.050781 157.574219 91.914062 C 158.261719 91.777344 158.929688 91.574219 159.574219 91.308594 C 160.222656 91.039062 160.839844 90.710938 161.421875 90.320312 C 162.003906 89.933594 162.542969 89.488281 163.039062 88.996094 C 163.53125 88.5 163.976562 87.960938 164.363281 87.378906 C 164.753906 86.796875 165.082031 86.179688 165.351562 85.535156 C 165.617188 84.886719 165.820312 84.21875 165.957031 83.53125 C 166.09375 82.84375 166.164062 82.152344 166.164062 81.449219 L 208.835938 81.449219 C 208.835938 82.152344 208.90625 82.84375 209.042969 83.53125 C 209.179688 84.21875 209.378906 84.886719 209.648438 85.535156 C 209.917969 86.179688 210.246094 86.796875 210.632812 87.378906 C 211.023438 87.960938 211.464844 88.5 211.960938 88.996094 C 212.457031 89.488281 212.996094 89.933594 213.578125 90.320312 C 214.160156 90.710938 214.777344 91.039062 215.421875 91.308594 C 216.070312 91.574219 216.738281 91.777344 217.425781 91.914062 C 218.109375 92.050781 218.804688 92.121094 219.503906 92.121094 C 220.207031 92.121094 220.898438 92.050781 221.585938 91.914062 C 222.273438 91.777344 222.941406 91.574219 223.589844 91.308594 C 224.234375 91.039062 224.851562 90.710938 225.433594 90.320312 C 226.015625 89.933594 226.554688 89.488281 227.050781 88.996094 C 227.542969 88.5 227.988281 87.960938 228.375 87.378906 C 228.765625 86.796875 229.09375 86.179688 229.363281 85.535156 C 229.628906 84.886719 229.832031 84.21875 229.96875 83.53125 C 230.105469 82.84375 230.175781 82.152344 230.175781 81.449219 L 272.847656 81.449219 C 272.847656 82.152344 272.917969 82.84375 273.054688 83.53125 C 273.191406 84.21875 273.394531 84.886719 273.660156 85.535156 C 273.929688 86.179688 274.257812 86.796875 274.648438 87.378906 C 275.035156 87.960938 275.476562 88.5 275.972656 88.996094 C 276.46875 89.488281 277.007812 89.933594 277.589844 90.320312 C 278.171875 90.710938 278.789062 91.039062 279.433594 91.308594 C 280.082031 91.574219 280.75 91.777344 281.4375 91.914062 C 282.125 92.050781 282.816406 92.121094 283.515625 92.121094 C 284.21875 92.121094 284.910156 92.050781 285.597656 91.914062 C 286.285156 91.777344 286.953125 91.574219 287.601562 91.308594 C 288.246094 91.039062 288.863281 90.710938 289.445312 90.320312 C 290.027344 89.933594 290.566406 89.488281 291.0625 88.996094 C 291.554688 88.5 292 87.960938 292.386719 87.378906 C 292.777344 86.796875 293.105469 86.179688 293.375 85.535156 C 293.640625 84.886719 293.84375 84.21875 293.980469 83.53125 C 294.117188 82.84375 294.1875 82.152344 294.1875 81.449219 L 315.523438 81.449219 L 315.523438 124.125 L 59.476562 124.125 L 59.476562 81.449219 Z M 59.476562 316.160156 L 59.476562 145.460938 L 315.523438 145.460938 L 315.523438 316.160156 Z M 59.476562 316.160156 " fill-opacity="1" fill-rule="nonzero"/></g><path fill="#ffffff" d="M 269.753906 223.238281 L 248.417969 201.898438 C 247.921875 201.398438 247.382812 200.953125 246.796875 200.5625 C 246.214844 200.167969 245.597656 199.835938 244.945312 199.566406 C 244.296875 199.292969 243.625 199.089844 242.933594 198.953125 C 242.246094 198.8125 241.546875 198.746094 240.84375 198.746094 C 240.136719 198.746094 239.441406 198.8125 238.75 198.953125 C 238.058594 199.089844 237.390625 199.292969 236.738281 199.566406 C 236.089844 199.835938 235.472656 200.167969 234.886719 200.5625 C 234.304688 200.953125 233.765625 201.398438 233.269531 201.898438 L 211.929688 223.238281 C 211.433594 223.734375 210.992188 224.277344 210.601562 224.859375 C 210.210938 225.445312 209.878906 226.0625 209.613281 226.710938 C 209.34375 227.363281 209.140625 228.03125 209.003906 228.722656 C 208.867188 229.410156 208.796875 230.109375 208.800781 230.808594 C 208.800781 231.511719 208.867188 232.210938 209.003906 232.898438 C 209.144531 233.589844 209.347656 234.257812 209.613281 234.90625 C 209.882812 235.558594 210.214844 236.175781 210.605469 236.757812 C 210.996094 237.34375 211.4375 237.882812 211.9375 238.382812 C 212.433594 238.878906 212.972656 239.320312 213.558594 239.710938 C 214.144531 240.101562 214.761719 240.433594 215.410156 240.703125 C 216.058594 240.972656 216.730469 241.175781 217.417969 241.3125 C 218.109375 241.449219 218.804688 241.519531 219.507812 241.519531 C 220.210938 241.519531 220.90625 241.449219 221.597656 241.3125 C 222.285156 241.175781 222.957031 240.972656 223.605469 240.707031 C 224.253906 240.4375 224.871094 240.109375 225.457031 239.71875 C 226.042969 239.328125 226.582031 238.882812 227.082031 238.386719 L 229.640625 235.71875 C 229.492188 237 229.285156 238.273438 229.023438 239.535156 C 228.757812 240.796875 228.4375 242.046875 228.0625 243.28125 C 227.683594 244.511719 227.253906 245.726562 226.765625 246.921875 C 226.28125 248.117188 225.738281 249.285156 225.148438 250.429688 C 224.554688 251.574219 223.910156 252.691406 223.214844 253.777344 C 222.523438 254.867188 221.78125 255.917969 220.992188 256.9375 C 220.203125 257.960938 219.367188 258.941406 218.488281 259.886719 C 217.609375 260.828125 216.691406 261.730469 215.730469 262.59375 C 214.769531 263.453125 213.773438 264.269531 212.738281 265.039062 C 211.703125 265.808594 210.636719 266.53125 209.535156 267.207031 C 208.4375 267.878906 207.308594 268.5 206.152344 269.074219 C 204.996094 269.644531 203.816406 270.160156 202.613281 270.625 C 201.410156 271.089844 200.1875 271.5 198.949219 271.851562 C 197.707031 272.207031 196.453125 272.503906 195.1875 272.742188 C 193.917969 272.984375 192.644531 273.164062 191.359375 273.289062 C 190.074219 273.414062 188.789062 273.480469 187.5 273.488281 C 183.933594 273.515625 180.425781 273.085938 176.96875 272.199219 C 173.515625 271.3125 170.234375 270 167.121094 268.257812 C 166.507812 267.910156 165.859375 267.625 165.1875 267.398438 C 164.515625 267.175781 163.828125 267.023438 163.125 266.933594 C 162.421875 266.847656 161.714844 266.828125 161.007812 266.882812 C 160.300781 266.933594 159.605469 267.054688 158.921875 267.242188 C 158.242188 267.429688 157.582031 267.683594 156.949219 268 C 156.316406 268.320312 155.71875 268.695312 155.160156 269.128906 C 154.601562 269.566406 154.089844 270.050781 153.625 270.589844 C 153.164062 271.125 152.753906 271.699219 152.40625 272.316406 C 152.054688 272.933594 151.769531 273.578125 151.546875 274.25 C 151.320312 274.921875 151.167969 275.609375 151.078125 276.3125 C 150.992188 277.015625 150.972656 277.722656 151.023438 278.429688 C 151.074219 279.136719 151.195312 279.832031 151.382812 280.515625 C 151.570312 281.199219 151.824219 281.855469 152.140625 282.488281 C 152.457031 283.125 152.835938 283.71875 153.269531 284.28125 C 153.703125 284.839844 154.191406 285.351562 154.726562 285.816406 C 155.261719 286.277344 155.835938 286.6875 156.453125 287.035156 C 157.628906 287.691406 158.824219 288.308594 160.042969 288.890625 C 161.257812 289.46875 162.488281 290.011719 163.738281 290.511719 C 164.988281 291.015625 166.253906 291.476562 167.53125 291.902344 C 168.808594 292.324219 170.101562 292.703125 171.402344 293.046875 C 172.707031 293.386719 174.019531 293.6875 175.339844 293.945312 C 176.660156 294.203125 177.988281 294.417969 179.324219 294.59375 C 180.660156 294.769531 182 294.902344 183.34375 294.992188 C 184.6875 295.082031 186.03125 295.128906 187.378906 295.132812 C 188.726562 295.136719 190.070312 295.101562 191.417969 295.019531 C 192.761719 294.941406 194.101562 294.816406 195.4375 294.652344 C 196.773438 294.488281 198.105469 294.28125 199.429688 294.035156 C 200.75 293.785156 202.066406 293.496094 203.371094 293.164062 C 204.675781 292.832031 205.96875 292.460938 207.253906 292.046875 C 208.535156 291.632812 209.800781 291.179688 211.054688 290.6875 C 212.308594 290.195312 213.542969 289.664062 214.761719 289.089844 C 215.984375 288.519531 217.183594 287.910156 218.363281 287.265625 C 219.546875 286.617188 220.707031 285.933594 221.84375 285.214844 C 222.980469 284.492188 224.097656 283.738281 225.1875 282.949219 C 226.277344 282.15625 227.339844 281.332031 228.378906 280.476562 C 229.417969 279.617188 230.429688 278.726562 231.410156 277.808594 C 232.390625 276.886719 233.34375 275.933594 234.265625 274.953125 C 235.1875 273.972656 236.078125 272.960938 236.9375 271.925781 C 237.796875 270.886719 238.621094 269.824219 239.410156 268.734375 C 240.203125 267.644531 240.960938 266.53125 241.679688 265.390625 C 242.402344 264.253906 243.085938 263.097656 243.734375 261.914062 C 244.382812 260.734375 244.992188 259.535156 245.5625 258.316406 C 246.136719 257.097656 246.667969 255.859375 247.164062 254.609375 C 247.65625 253.355469 248.113281 252.085938 248.527344 250.804688 C 248.941406 249.523438 249.3125 248.230469 249.644531 246.925781 C 249.976562 245.621094 250.269531 244.308594 250.519531 242.984375 C 250.769531 241.660156 250.976562 240.332031 251.140625 238.992188 C 251.308594 237.65625 251.429688 236.316406 251.511719 234.972656 L 254.820312 238.386719 C 255.316406 238.886719 255.855469 239.332031 256.4375 239.726562 C 257.023438 240.121094 257.640625 240.453125 258.289062 240.722656 C 258.941406 240.992188 259.609375 241.199219 260.300781 241.335938 C 260.992188 241.472656 261.6875 241.542969 262.394531 241.542969 C 263.097656 241.542969 263.796875 241.472656 264.484375 241.335938 C 265.175781 241.199219 265.847656 240.992188 266.496094 240.722656 C 267.144531 240.453125 267.761719 240.121094 268.347656 239.726562 C 268.933594 239.332031 269.472656 238.886719 269.96875 238.386719 C 270.460938 237.882812 270.898438 237.335938 271.285156 236.746094 C 271.671875 236.15625 271.992188 235.535156 272.253906 234.882812 C 272.515625 234.226562 272.710938 233.554688 272.839844 232.863281 C 272.96875 232.171875 273.027344 231.472656 273.019531 230.769531 C 273.007812 230.0625 272.929688 229.367188 272.78125 228.679688 C 272.632812 227.988281 272.417969 227.324219 272.140625 226.675781 C 271.859375 226.03125 271.519531 225.417969 271.117188 224.839844 C 270.714844 224.261719 270.261719 223.726562 269.753906 223.238281 Z M 269.753906 223.238281 " fill-opacity="1" fill-rule="nonzero"/></svg>